M48
;Layer_Color=9474304
;FILE_FORMAT=2:5
INCH,LZ
;TYPE=PLATED
T1F00S00C0.00787
T2F00S00C0.01181
T3F00S00C0.01575
T6F00S00C0.03000
T7F00S00C0.03346
T8F00S00C0.03937
T9F00S00C0.04331
T10F00S00C0.12598
%
T01
X0090173Y0091413
X0094504
Y0095744
X0090173
Y0100075
X0094504
X0081429Y0247476
X0077098
X0072768
Y0251807
Y0256138
X0077098
Y0251807
X0081429
Y0256138
T02
X0041866Y0046969
X0045803Y0054843
X0053677
X0061551
X0069425
X0077299
X0085173
X0093047
X0100921
X0104859Y0062717
X0100921Y0070591
X0116669
X0120607Y0062717
X0128481
X0136354
X0140292Y0054843
X0144229Y0046969
X0136354
X0140292Y0039095
X0148166
X015604
X0163914
X0159977Y0031221
X0152103
X0144229
X0136354
X0128481
X0120607
X0112733
X0104859
X0108795Y0023347
X0116669
X0124543
X0132418
X0140292
X0148166
X015604
X0163914
X0175725Y0046969
X0183599
X0191473Y0062717
X0132418Y0039095
X0124543
X0116669
Y0054843
X0104859Y0046969
X0100921Y0023347
X0069425
Y0039095
X0073362Y0062717
X0065488
X0057614
X004974
X0041866
X0045803Y0070591
X0037929
Y0054843
X0030055
X0033992Y0062717
X0030055Y0070591
X0033992Y0078465
Y0125709
X0030055Y0133583
Y0196575
X0029335Y0204976
X0057614Y0204449
X0065488
X0061551Y0196575
X0065488Y0188701
X0057614
X0061551Y0180827
X0069425
X0077299
X0085173
X0093047
X0096984Y0172953
X0104859
X008911
X0081236
X0073362
X0065488
X0057614
X0061551Y0165079
X007078Y0165807
X0061551Y0149331
X0053677
X0057614Y0141457
X004974
X0053677Y0133583
X0061551
X0045803
X0046177Y011496
X0073362Y0125709
X0081236
X008911
X0096984
X0094705Y0134138
X0093425Y0139154
X0097354Y0142181
X0100819Y0144862
X0105622Y0147189
X0120607Y0141457
X0128481
X0132418Y0133583
X0124543
X0126957Y0155728
X0125819Y0160472
X0123413Y0170295
X0123268Y0176118
X0127421Y0184831
X0135709Y0189256
X0152103Y0188701
X0165861Y0187601
X0166559Y017311
X0172554Y0161259
X0171788Y0133583
X0187536
X0185925Y0129748
X0187536Y0117835
X0191473Y0109961
X0185658Y0107252
X0172555Y0107524
X0172701Y0099138
X0183122Y008448
X0136354Y0078465
X0104859
X0096984
X008911
X0093047Y0086339
X008911Y0109961
X0085173Y0133583
X008911Y0188701
X0093047Y0196575
X008911Y0204449
X0085173Y0212323
X0081236Y0220197
X0073362
X0065488
X0057614
X0109106Y020863
X0108795Y0196575
X0104937Y0199874
X0124543Y0228071
X0132418
X013272Y0220622
X0140292Y0228071
X0168835Y0224039
X0187536Y0228071
X0144713Y0169413
X0148166Y0149331
X015604
X0152103Y0141457
X0065488Y0078465
X0057614
X0203284Y0086339
X0215095Y0094213
Y0125709
X0203284Y0117835
Y0165079
X0199347Y0172953
X0194024Y0182327
X0203284Y0196575
X0215095Y0204449
X0203284Y0228071
X0199347Y0235945
X0203284Y0243819
X019541
X0199347Y0251693
X0203284Y0259567
X0211158
X019541
X0215095Y0235945
X0191473
X0183599
X0175725
X0167851
X0159977
X0152103
X0144229
X0148166Y0243819
X0152103Y0251693
X0144229
X0136354
X013326Y024559
X0131748Y0234315
X0132418Y0259567
X0148166
Y0275315
X015604
X0163914
X0159977Y0283189
X0152103
X0144229
X0136354
X0140292Y0291063
X0148166
X015604
X0163914
X0171788Y0259567
X0175725Y0251693
X0183599
X0191473
X0187536Y0259567
X0191473Y0267441
X0183599
X0187536Y0243819
X0167851Y0251693
X0158835Y0253693
X0140292Y0275315
X0132418
X011348Y026698
X0108453Y0252807
X0119138Y0253008
X0096784Y0253748
X0091189Y0242516
X008911Y0235945
X0081236
X0073362
X0065488
X0057614
X004974
X0053677Y0243819
X0061551
X0045803
X004974Y0267441
X0041866
X0068429Y0269094
X008911Y0267441
X0093563Y0273256
X008911Y0283189
X0081236
X0085173Y0291063
X0093047
X0100921
X0077299
X0069425
X0030055Y0259567
X0022181
X0033992Y0251693
T03
X0077653Y010261
T06
X0210362Y0060071
Y0070071
X0022898
Y0060071
Y0080071
Y0090071
Y0100071
Y0110071
Y0120071
Y0130071
Y0140071
Y0150071
Y0160071
Y0170071
Y0180071
Y0190071
X0210362
Y0180071
Y0170071
Y0160071
Y0150071
Y0140071
Y0130071
Y0120071
Y0110071
Y0100071
Y0090071
Y0080071
T07
X0048937Y0047555
X0061929Y0047583
Y0083016
X0048937Y0082988
X0110153Y0282335
X0129839
T08
X0193441Y0056555
X0185567
T09
X0022898Y0200071
Y0210071
Y0220071
Y0230071
X0164157Y0151087
X0174158
X0210362Y0200071
Y0210071
Y0220071
Y0230071
Y0240071
Y0250071
X0022898
Y0240071
T10
X0057614Y003122
X0175724
Y0283189
X0057614
M30
