G04*
G04 #@! TF.GenerationSoftware,Altium Limited,Altium Designer,22.1.2 (22)*
G04*
G04 Layer_Color=16711935*
%FSLAX25Y25*%
%MOIN*%
G70*
G04*
G04 #@! TF.SameCoordinates,55BB0F9E-9583-49B5-81CB-360D1DA6D785*
G04*
G04*
G04 #@! TF.FilePolarity,Negative*
G04*
G01*
G75*
%ADD55R,0.06509X0.05328*%
%ADD61R,0.06509X0.04540*%
%ADD84O,0.16548X0.08674*%
%ADD85O,0.08674X0.16548*%
%ADD86C,0.06737*%
%ADD87R,0.06737X0.06737*%
%ADD88C,0.06800*%
%ADD89C,0.07099*%
%ADD90R,0.07099X0.07099*%
%ADD91C,0.06509*%
%ADD92R,0.07099X0.07099*%
%ADD93R,0.06115X0.06115*%
%ADD94C,0.06115*%
%ADD95C,0.20485*%
%ADD96C,0.04343*%
%ADD97C,0.02769*%
%ADD116R,0.05603X0.04383*%
D55*
X141130Y128634D02*
D03*
Y135721D02*
D03*
D61*
X173701Y115295D02*
D03*
Y122972D02*
D03*
X135232Y155701D02*
D03*
Y163378D02*
D03*
X135276Y178953D02*
D03*
Y171276D02*
D03*
X36492Y230153D02*
D03*
Y222476D02*
D03*
X36689Y207366D02*
D03*
Y215043D02*
D03*
D84*
X126551Y50980D02*
D03*
Y74996D02*
D03*
D85*
X145449Y63185D02*
D03*
D86*
X193441Y56555D02*
D03*
D87*
X185567D02*
D03*
D88*
X22898Y60071D02*
D03*
Y70071D02*
D03*
Y80071D02*
D03*
Y90071D02*
D03*
Y100071D02*
D03*
Y110071D02*
D03*
Y120071D02*
D03*
Y130071D02*
D03*
Y140071D02*
D03*
Y150071D02*
D03*
Y160071D02*
D03*
Y170071D02*
D03*
Y180071D02*
D03*
Y190071D02*
D03*
X210362D02*
D03*
Y60071D02*
D03*
Y70071D02*
D03*
Y80071D02*
D03*
Y90071D02*
D03*
Y100071D02*
D03*
Y110071D02*
D03*
Y120071D02*
D03*
Y130071D02*
D03*
Y140071D02*
D03*
Y150071D02*
D03*
Y160071D02*
D03*
Y170071D02*
D03*
Y180071D02*
D03*
D89*
X22898Y200071D02*
D03*
Y210071D02*
D03*
Y240071D02*
D03*
Y230071D02*
D03*
Y220071D02*
D03*
X174158Y151087D02*
D03*
X210362Y200071D02*
D03*
Y210071D02*
D03*
Y240071D02*
D03*
Y230071D02*
D03*
Y220071D02*
D03*
D90*
X22898Y250071D02*
D03*
X210362D02*
D03*
D91*
X110153Y282335D02*
D03*
X129839D02*
D03*
D92*
X164157Y151087D02*
D03*
D93*
X61929Y47583D02*
D03*
X48937Y82988D02*
D03*
D94*
X61929Y83016D02*
D03*
X48937Y47555D02*
D03*
D95*
X175724Y31220D02*
D03*
X57614Y283189D02*
D03*
X175724D02*
D03*
X57614Y31220D02*
D03*
D96*
X211158Y259567D02*
D03*
X215095Y235945D02*
D03*
Y204449D02*
D03*
Y125709D02*
D03*
Y94213D02*
D03*
X203284Y259567D02*
D03*
Y243819D02*
D03*
Y228071D02*
D03*
Y196575D02*
D03*
Y165079D02*
D03*
Y117835D02*
D03*
Y86339D02*
D03*
X195410Y259567D02*
D03*
X199347Y251693D02*
D03*
X195410Y243819D02*
D03*
X199347Y235945D02*
D03*
Y172953D02*
D03*
X191473Y267441D02*
D03*
X187536Y259567D02*
D03*
X191473Y251693D02*
D03*
X187536Y243819D02*
D03*
X191473Y235945D02*
D03*
X187536Y228071D02*
D03*
Y133583D02*
D03*
Y117835D02*
D03*
X191473Y109961D02*
D03*
Y62717D02*
D03*
X183599Y267441D02*
D03*
Y251693D02*
D03*
Y235945D02*
D03*
Y46969D02*
D03*
X171788Y259567D02*
D03*
X175725Y251693D02*
D03*
Y235945D02*
D03*
X171788Y133583D02*
D03*
X175725Y46969D02*
D03*
X163914Y291063D02*
D03*
Y275315D02*
D03*
X167851Y251693D02*
D03*
Y235945D02*
D03*
X163914Y39095D02*
D03*
Y23347D02*
D03*
X156040Y291063D02*
D03*
X159977Y283189D02*
D03*
X156040Y275315D02*
D03*
X159977Y235945D02*
D03*
X156040Y149331D02*
D03*
Y39095D02*
D03*
X159977Y31221D02*
D03*
X156040Y23347D02*
D03*
X148166Y291063D02*
D03*
X152103Y283189D02*
D03*
X148166Y275315D02*
D03*
Y259567D02*
D03*
X152103Y251693D02*
D03*
X148166Y243819D02*
D03*
X152103Y235945D02*
D03*
Y188701D02*
D03*
X148166Y149331D02*
D03*
X152103Y141457D02*
D03*
X148166Y39095D02*
D03*
X152103Y31221D02*
D03*
X148166Y23347D02*
D03*
X140292Y291063D02*
D03*
X144229Y283189D02*
D03*
X140292Y275315D02*
D03*
X144229Y251693D02*
D03*
Y235945D02*
D03*
X140292Y228071D02*
D03*
Y54843D02*
D03*
X144229Y46969D02*
D03*
X140292Y39095D02*
D03*
X144229Y31221D02*
D03*
X140292Y23347D02*
D03*
X136354Y283189D02*
D03*
X132418Y275315D02*
D03*
Y259567D02*
D03*
X136354Y251693D02*
D03*
X132418Y228071D02*
D03*
Y133583D02*
D03*
X136354Y78465D02*
D03*
Y62717D02*
D03*
Y46969D02*
D03*
X132418Y39095D02*
D03*
X136354Y31221D02*
D03*
X132418Y23347D02*
D03*
X124543Y228071D02*
D03*
X128481Y141457D02*
D03*
X124543Y133583D02*
D03*
X128481Y62717D02*
D03*
X124543Y39095D02*
D03*
X128481Y31221D02*
D03*
X124543Y23347D02*
D03*
X120607Y141457D02*
D03*
X116669Y70591D02*
D03*
X120607Y62717D02*
D03*
X116669Y54843D02*
D03*
Y39095D02*
D03*
X120607Y31221D02*
D03*
X116669Y23347D02*
D03*
X108795Y196575D02*
D03*
X112733Y31221D02*
D03*
X108795Y23347D02*
D03*
X100921Y291063D02*
D03*
X104859Y172953D02*
D03*
Y78465D02*
D03*
X100921Y70591D02*
D03*
X104859Y62717D02*
D03*
X100921Y54843D02*
D03*
X104859Y46969D02*
D03*
Y31221D02*
D03*
X100921Y23347D02*
D03*
X93047Y291063D02*
D03*
Y196575D02*
D03*
Y180827D02*
D03*
X96984Y172953D02*
D03*
Y125709D02*
D03*
X93047Y86339D02*
D03*
X96984Y78465D02*
D03*
X93047Y54843D02*
D03*
X85173Y291063D02*
D03*
X89110Y283189D02*
D03*
Y267441D02*
D03*
Y235945D02*
D03*
X85173Y212323D02*
D03*
X89110Y204449D02*
D03*
Y188701D02*
D03*
X85173Y180827D02*
D03*
X89110Y172953D02*
D03*
X85173Y133583D02*
D03*
X89110Y125709D02*
D03*
Y109961D02*
D03*
Y78465D02*
D03*
X85173Y54843D02*
D03*
X77299Y291063D02*
D03*
X81236Y283189D02*
D03*
Y235945D02*
D03*
Y220197D02*
D03*
X77299Y180827D02*
D03*
X81236Y172953D02*
D03*
Y125709D02*
D03*
X77299Y54843D02*
D03*
X69425Y291063D02*
D03*
X73362Y235945D02*
D03*
Y220197D02*
D03*
X69425Y180827D02*
D03*
X73362Y172953D02*
D03*
Y125709D02*
D03*
Y62717D02*
D03*
X69425Y54843D02*
D03*
Y39095D02*
D03*
Y23347D02*
D03*
X61551Y243819D02*
D03*
X65488Y235945D02*
D03*
Y220197D02*
D03*
Y204449D02*
D03*
X61551Y196575D02*
D03*
X65488Y188701D02*
D03*
X61551Y180827D02*
D03*
X65488Y172953D02*
D03*
X61551Y165079D02*
D03*
Y149331D02*
D03*
Y133583D02*
D03*
X65488Y78465D02*
D03*
Y62717D02*
D03*
X61551Y54843D02*
D03*
X53677Y243819D02*
D03*
X57614Y235945D02*
D03*
Y220197D02*
D03*
Y204449D02*
D03*
Y188701D02*
D03*
Y172953D02*
D03*
X53677Y149331D02*
D03*
X57614Y141457D02*
D03*
X53677Y133583D02*
D03*
X57614Y78465D02*
D03*
Y62717D02*
D03*
X53677Y54843D02*
D03*
X49740Y267441D02*
D03*
X45803Y243819D02*
D03*
X49740Y235945D02*
D03*
Y141457D02*
D03*
X45803Y133583D02*
D03*
Y70591D02*
D03*
X49740Y62717D02*
D03*
X45803Y54843D02*
D03*
X41866Y267441D02*
D03*
X37929Y70591D02*
D03*
X41866Y62717D02*
D03*
X37929Y54843D02*
D03*
X41866Y46969D02*
D03*
X30055Y259567D02*
D03*
X33992Y251693D02*
D03*
X30055Y196575D02*
D03*
Y133583D02*
D03*
X33992Y125709D02*
D03*
Y78465D02*
D03*
X30055Y70591D02*
D03*
X33992Y62717D02*
D03*
X30055Y54843D02*
D03*
X22181Y259567D02*
D03*
D97*
X72768Y247476D02*
D03*
Y251807D02*
D03*
Y256138D02*
D03*
X77098Y247476D02*
D03*
Y251807D02*
D03*
Y256138D02*
D03*
X81429Y247476D02*
D03*
Y251807D02*
D03*
Y256138D02*
D03*
X94504Y91413D02*
D03*
X90173D02*
D03*
X94504Y95744D02*
D03*
X90173D02*
D03*
X94504Y100075D02*
D03*
X90173D02*
D03*
D116*
X150854Y135858D02*
D03*
Y122984D02*
D03*
M02*
