G04*
G04 #@! TF.GenerationSoftware,Altium Limited,Altium Designer,22.1.2 (22)*
G04*
G04 Layer_Color=65535*
%FSLAX25Y25*%
%MOIN*%
G70*
G04*
G04 #@! TF.SameCoordinates,55BB0F9E-9583-49B5-81CB-360D1DA6D785*
G04*
G04*
G04 #@! TF.FilePolarity,Positive*
G04*
G01*
G75*
%ADD10C,0.01575*%
%ADD11C,0.00984*%
%ADD12C,0.00945*%
%ADD13C,0.00669*%
%ADD14C,0.00787*%
%ADD15C,0.00394*%
%ADD16C,0.00500*%
%ADD17C,0.00800*%
%ADD18C,0.01000*%
%ADD19R,0.06299X0.01181*%
D10*
X127299Y82004D02*
G03*
X127299Y82004I-787J0D01*
G01*
D11*
X44012Y225622D02*
G03*
X44012Y225622I-492J0D01*
G01*
X87433Y264799D02*
G03*
X87433Y264799I-492J0D01*
G01*
X125606Y277512D02*
G03*
X125606Y277512I-492J0D01*
G01*
X84563Y105193D02*
G03*
X84563Y105193I-492J0D01*
G01*
X89650Y74967D02*
G03*
X89650Y74967I-492J0D01*
G01*
D12*
X177201Y174256D02*
G03*
X177201Y174256I-472J0D01*
G01*
D13*
X196403Y147484D02*
G03*
X196403Y147484I-557J0D01*
G01*
X180037Y124039D02*
G03*
X180037Y124039I-557J0D01*
G01*
X17779Y212189D02*
Y254992D01*
Y54697D02*
Y212189D01*
Y54697D02*
X28094D01*
X17779Y254992D02*
X27566D01*
X28094Y54697D01*
X57689Y247354D02*
Y260740D01*
X49815Y247354D02*
X57689D01*
X49815D02*
Y260740D01*
X57689D01*
X46311Y247315D02*
Y260701D01*
X38437Y247315D02*
X46311D01*
X38437D02*
Y260701D01*
X46311D01*
X33547Y230492D02*
Y243878D01*
X41421D01*
Y230492D02*
Y243878D01*
X33547Y230492D02*
X41421D01*
X70201Y270276D02*
Y283661D01*
X78075D01*
Y270276D02*
Y283661D01*
X70201Y270276D02*
X78075D01*
X98126Y254784D02*
Y268169D01*
X106000D01*
Y254784D02*
Y268169D01*
X98126Y254784D02*
X106000D01*
X105921Y239291D02*
Y252677D01*
X98047Y239291D02*
X105921D01*
X98047D02*
Y252677D01*
X105921D01*
X137654Y240630D02*
Y268976D01*
X156551D01*
Y240630D02*
Y268976D01*
X137654Y240630D02*
X156551D01*
X160591Y240059D02*
Y268406D01*
X179488D01*
Y240059D02*
Y268406D01*
X160591Y240059D02*
X179488D01*
X192697Y130161D02*
X198996D01*
Y145909D01*
X192697D02*
X198996D01*
X192697Y130161D02*
Y145909D01*
X176331Y141362D02*
X182630D01*
X176331Y125614D02*
Y141362D01*
Y125614D02*
X182630D01*
Y141362D01*
X175512Y104740D02*
Y118126D01*
X183386D01*
Y104740D02*
Y118126D01*
X175512Y104740D02*
X183386D01*
X192008Y112531D02*
Y125917D01*
X199882D01*
Y112531D02*
Y125917D01*
X192008Y112531D02*
X199882D01*
X191689Y87051D02*
Y100437D01*
X199563D01*
Y87051D02*
Y100437D01*
X191689Y87051D02*
X199563D01*
X179079Y146165D02*
Y156008D01*
X159236D02*
X179079Y156087D01*
X159236Y146165D02*
Y156008D01*
Y146165D02*
X179079D01*
X153654Y81303D02*
X167039D01*
X153654D02*
Y89177D01*
X167039D01*
Y81303D02*
Y89177D01*
X153492Y79061D02*
X166878D01*
Y71187D02*
Y79061D01*
X153492Y71187D02*
X166878D01*
X153492D02*
Y79061D01*
X153492Y61165D02*
X166878D01*
X153492D02*
Y69039D01*
X166878D01*
Y61165D02*
Y69039D01*
X205244Y212189D02*
Y254992D01*
Y54697D02*
Y212189D01*
Y54697D02*
X215559D01*
X205244Y254992D02*
X215031D01*
X215559Y54697D01*
D14*
X179787Y85413D02*
G03*
X179787Y85413I-394J0D01*
G01*
X47457Y228870D02*
Y230602D01*
Y154421D02*
Y157374D01*
X108953Y154421D02*
X118913D01*
X47457D02*
X57457D01*
X118913Y228870D02*
Y230602D01*
Y154421D02*
Y157374D01*
X47457Y230602D02*
X118913D01*
X66665Y259681D02*
Y262240D01*
X69224D01*
X66665Y241374D02*
Y243933D01*
Y241374D02*
X69224D01*
X84972D02*
X87532D01*
Y243933D01*
Y259681D02*
Y262240D01*
X84972D02*
X87532D01*
X134740Y298232D02*
Y301429D01*
X134741Y282944D02*
Y287697D01*
X134224Y282944D02*
X134741D01*
X105251Y282925D02*
X105764D01*
X105251Y282925D02*
Y287697D01*
Y298232D02*
Y301429D01*
X105252Y301429D02*
X134740D01*
X121894Y267287D02*
X124059D01*
X117071Y261776D02*
Y265457D01*
X125634Y261776D02*
X128882D01*
X117071D02*
X120319D01*
X128882D02*
Y265457D01*
X122039Y243342D02*
X124205D01*
X129028Y245173D02*
Y248854D01*
X117217D02*
X120465D01*
X125779D02*
X129028D01*
X117217Y245173D02*
Y248854D01*
X160020Y107996D02*
X160413D01*
X160020Y103272D02*
X160413D01*
X160020Y99496D02*
X160413D01*
X160020Y94772D02*
X160413D01*
X149575Y113150D02*
X156465D01*
X149575Y140709D02*
X156465D01*
X125906Y122764D02*
Y123158D01*
X131220Y122764D02*
Y123158D01*
X88205Y87673D02*
X96472D01*
X88205Y103815D02*
X96472D01*
X80713Y28740D02*
X85043D01*
X80713Y22047D02*
X85043D01*
X100654Y39748D02*
Y66756D01*
X98232Y39748D02*
X100654D01*
X98232Y66756D02*
X100654D01*
X77661Y39748D02*
Y66756D01*
X80083D01*
X77661Y39748D02*
X80083D01*
X63244Y110669D02*
X63638D01*
X63244Y105551D02*
X63638D01*
X62874Y100795D02*
X63268D01*
X62874Y95677D02*
X63268D01*
X57205Y77701D02*
X66654D01*
Y52898D02*
Y77701D01*
X57205Y52898D02*
Y77701D01*
Y52898D02*
X66654D01*
X47878Y106142D02*
Y110079D01*
X46697D02*
X47878D01*
X46697Y106142D02*
X47878D01*
X47969Y95988D02*
Y99925D01*
X46787D02*
X47969D01*
X46787Y95988D02*
X47969D01*
X44213Y52870D02*
X53661D01*
X44213D02*
Y77673D01*
X53661Y52870D02*
Y77673D01*
X44213D02*
X53661D01*
X159189Y52567D02*
X163520D01*
X159189Y45874D02*
X163520D01*
D15*
X160181Y164254D02*
G03*
X160181Y165533I0J640D01*
G01*
Y165878D02*
X167858D01*
Y163909D02*
Y165878D01*
X160181Y163909D02*
X167858D01*
X160181D02*
Y165533D01*
Y164254D02*
Y165878D01*
D16*
X104898Y74996D02*
X117102D01*
X136000D02*
X148205D01*
Y71453D02*
Y74996D01*
Y19091D02*
Y54524D01*
X142299Y-3350D02*
Y19091D01*
X110803Y-3350D02*
Y19091D01*
Y-3350D02*
X142299D01*
X104898Y19091D02*
Y74996D01*
Y19091D02*
X110803D01*
X142299D01*
X148205D01*
X184209Y233114D02*
X189720D01*
X135390D02*
X142768D01*
X189720Y188823D02*
Y233114D01*
X135390Y188823D02*
Y233114D01*
X177228Y91772D02*
Y97677D01*
X189039Y91772D02*
Y97677D01*
D17*
X94972Y111201D02*
Y114350D01*
Y111201D02*
X97335D01*
X105996D02*
Y114350D01*
X103634Y111201D02*
X105996D01*
X112181Y105165D02*
X115331D01*
X112181Y102803D02*
Y105165D01*
Y94142D02*
X115331D01*
X112181D02*
Y96504D01*
D18*
X153024Y29810D02*
X151843D01*
X152433D01*
Y26859D01*
X151843Y26268D01*
X151253D01*
X150662Y26859D01*
X156566Y29810D02*
X154204D01*
Y28039D01*
X155385Y28630D01*
X155976D01*
X156566Y28039D01*
Y26859D01*
X155976Y26268D01*
X154795D01*
X154204Y26859D01*
X80594Y82834D02*
Y80472D01*
X81775Y79292D01*
X82956Y80472D01*
Y82834D01*
X84136Y79292D02*
X85317D01*
X84727D01*
Y81653D01*
X84136D01*
X87088Y79292D02*
Y81653D01*
X88859D01*
X89450Y81063D01*
Y79292D01*
X90630Y78701D02*
X92992D01*
X94173Y81653D02*
Y79292D01*
Y80472D01*
X94763Y81063D01*
X95353Y81653D01*
X95944D01*
X99486Y79292D02*
X98305D01*
X97715Y79882D01*
Y81063D01*
X98305Y81653D01*
X99486D01*
X100076Y81063D01*
Y80472D01*
X97715D01*
X102438Y78111D02*
X103028D01*
X103618Y78701D01*
Y81653D01*
X101847D01*
X101257Y81063D01*
Y79882D01*
X101847Y79292D01*
X103618D01*
X180612Y67054D02*
Y64693D01*
X181793Y63512D01*
X182974Y64693D01*
Y67054D01*
X186516D02*
X184154D01*
Y65284D01*
X185335D01*
X184154D01*
Y63512D01*
X187697Y67054D02*
Y63512D01*
X189468D01*
X190058Y64103D01*
Y64693D01*
X189468Y65284D01*
X187697D01*
X189468D01*
X190058Y65874D01*
Y66464D01*
X189468Y67054D01*
X187697D01*
X193600Y63512D02*
X191239D01*
X193600Y65874D01*
Y66464D01*
X193010Y67054D01*
X191829D01*
X191239Y66464D01*
X123085Y91980D02*
Y89618D01*
X124265Y88438D01*
X125446Y89618D01*
Y91980D01*
X128988D02*
X126627D01*
Y90209D01*
X127807D01*
X126627D01*
Y88438D01*
X130169Y91980D02*
Y88438D01*
X131940D01*
X132530Y89028D01*
Y89618D01*
X131940Y90209D01*
X130169D01*
X131940D01*
X132530Y90799D01*
Y91389D01*
X131940Y91980D01*
X130169D01*
X133711Y88438D02*
X134892D01*
X134301D01*
Y91980D01*
X133711Y91389D01*
X82623Y112893D02*
Y109941D01*
X83213Y109351D01*
X84394D01*
X84984Y109941D01*
Y112893D01*
X86165Y112303D02*
X86756Y112893D01*
X87936D01*
X88527Y112303D01*
Y111712D01*
X87936Y111122D01*
X87346D01*
X87936D01*
X88527Y110532D01*
Y109941D01*
X87936Y109351D01*
X86756D01*
X86165Y109941D01*
X184505Y82897D02*
Y79945D01*
X185095Y79355D01*
X186276D01*
X186866Y79945D01*
Y82897D01*
X190409Y79355D02*
X188047D01*
X190409Y81716D01*
Y82307D01*
X189818Y82897D01*
X188637D01*
X188047Y82307D01*
X61871Y268787D02*
Y265835D01*
X62461Y265245D01*
X63642D01*
X64232Y265835D01*
Y268787D01*
X65413Y265245D02*
X66594D01*
X66003D01*
Y268787D01*
X65413Y268197D01*
X139451Y274389D02*
Y270847D01*
X141222D01*
X141812Y271437D01*
Y272028D01*
X141222Y272618D01*
X139451D01*
X141222D01*
X141812Y273208D01*
Y273799D01*
X141222Y274389D01*
X139451D01*
X144764D02*
X143583D01*
X142993Y273799D01*
Y271437D01*
X143583Y270847D01*
X144764D01*
X145354Y271437D01*
Y273799D01*
X144764Y274389D01*
X148306D02*
X147126D01*
X146535Y273799D01*
Y271437D01*
X147126Y270847D01*
X148306D01*
X148897Y271437D01*
Y273799D01*
X148306Y274389D01*
X150077D02*
X152439D01*
X151258D01*
Y270847D01*
X163563Y274098D02*
X161202D01*
Y270556D01*
X163563D01*
X161202Y272327D02*
X162382D01*
X164744Y270556D02*
Y274098D01*
X167105Y270556D01*
Y274098D01*
X59312Y113934D02*
Y117476D01*
X61084D01*
X61674Y116885D01*
Y115705D01*
X61084Y115114D01*
X59312D01*
X60493D02*
X61674Y113934D01*
X62855D02*
X64035D01*
X63445D01*
Y117476D01*
X62855Y116885D01*
X68168Y117476D02*
X66987Y116885D01*
X65806Y115705D01*
Y114524D01*
X66397Y113934D01*
X67577D01*
X68168Y114524D01*
Y115114D01*
X67577Y115705D01*
X65806D01*
X58730Y89737D02*
Y93279D01*
X60501D01*
X61091Y92689D01*
Y91508D01*
X60501Y90917D01*
X58730D01*
X59911D02*
X61091Y89737D01*
X62272D02*
X63453D01*
X62862D01*
Y93279D01*
X62272Y92689D01*
X67585Y93279D02*
X65224D01*
Y91508D01*
X66404Y92098D01*
X66995D01*
X67585Y91508D01*
Y90327D01*
X66995Y89737D01*
X65814D01*
X65224Y90327D01*
X152745Y38355D02*
Y41897D01*
X154517D01*
X155107Y41307D01*
Y40126D01*
X154517Y39536D01*
X152745D01*
X153926D02*
X155107Y38355D01*
X156288D02*
X157468D01*
X156878D01*
Y41897D01*
X156288Y41307D01*
X161011Y38355D02*
Y41897D01*
X159239Y40126D01*
X161601D01*
X168820Y72831D02*
Y76373D01*
X170591D01*
X171182Y75783D01*
Y74602D01*
X170591Y74012D01*
X168820D01*
X170001D02*
X171182Y72831D01*
X172362D02*
X173543D01*
X172953D01*
Y76373D01*
X172362Y75783D01*
X175314D02*
X175905Y76373D01*
X177085D01*
X177676Y75783D01*
Y75193D01*
X177085Y74602D01*
X176495D01*
X177085D01*
X177676Y74012D01*
Y73422D01*
X177085Y72831D01*
X175905D01*
X175314Y73422D01*
X173621Y82521D02*
X170079D01*
Y84292D01*
X170670Y84883D01*
X171850D01*
X172441Y84292D01*
Y82521D01*
Y83702D02*
X173621Y84883D01*
Y86063D02*
Y87244D01*
Y86654D01*
X170079D01*
X170670Y86063D01*
X173621Y91377D02*
Y89015D01*
X171260Y91377D01*
X170670D01*
X170079Y90786D01*
Y89605D01*
X170670Y89015D01*
X41586Y62375D02*
X38044D01*
Y64146D01*
X38634Y64737D01*
X39815D01*
X40405Y64146D01*
Y62375D01*
Y63556D02*
X41586Y64737D01*
Y65917D02*
Y67098D01*
Y66508D01*
X38044D01*
X38634Y65917D01*
X41586Y68869D02*
Y70050D01*
Y69460D01*
X38044D01*
X38634Y68869D01*
X143659Y95426D02*
Y98968D01*
X145430D01*
X146020Y98378D01*
Y97197D01*
X145430Y96606D01*
X143659D01*
X144840D02*
X146020Y95426D01*
X147201D02*
X148382D01*
X147791D01*
Y98968D01*
X147201Y98378D01*
X150153D02*
X150743Y98968D01*
X151924D01*
X152514Y98378D01*
Y96016D01*
X151924Y95426D01*
X150743D01*
X150153Y96016D01*
Y98378D01*
X145954Y103812D02*
Y107354D01*
X147725D01*
X148315Y106763D01*
Y105583D01*
X147725Y104992D01*
X145954D01*
X147134D02*
X148315Y103812D01*
X149496Y104402D02*
X150086Y103812D01*
X151267D01*
X151857Y104402D01*
Y106763D01*
X151267Y107354D01*
X150086D01*
X149496Y106763D01*
Y106173D01*
X150086Y105583D01*
X151857D01*
X67402Y46579D02*
Y50121D01*
X69174D01*
X69764Y49531D01*
Y48350D01*
X69174Y47760D01*
X67402D01*
X68583D02*
X69764Y46579D01*
X70945Y49531D02*
X71535Y50121D01*
X72716D01*
X73306Y49531D01*
Y48941D01*
X72716Y48350D01*
X73306Y47760D01*
Y47170D01*
X72716Y46579D01*
X71535D01*
X70945Y47170D01*
Y47760D01*
X71535Y48350D01*
X70945Y48941D01*
Y49531D01*
X71535Y48350D02*
X72716D01*
X99076Y233922D02*
Y237464D01*
X100847D01*
X101437Y236874D01*
Y235693D01*
X100847Y235103D01*
X99076D01*
X100257D02*
X101437Y233922D01*
X102618Y237464D02*
X104979D01*
Y236874D01*
X102618Y234512D01*
Y233922D01*
X99253Y270142D02*
Y273685D01*
X101024D01*
X101614Y273094D01*
Y271913D01*
X101024Y271323D01*
X99253D01*
X100434D02*
X101614Y270142D01*
X105157Y273685D02*
X103976Y273094D01*
X102795Y271913D01*
Y270733D01*
X103385Y270142D01*
X104566D01*
X105157Y270733D01*
Y271323D01*
X104566Y271913D01*
X102795D01*
X190393Y116843D02*
X186851D01*
Y118615D01*
X187441Y119205D01*
X188622D01*
X189212Y118615D01*
Y116843D01*
Y118024D02*
X190393Y119205D01*
X187441Y120386D02*
X186851Y120976D01*
Y122157D01*
X187441Y122747D01*
X188032D01*
X188622Y122157D01*
Y121566D01*
Y122157D01*
X189212Y122747D01*
X189803D01*
X190393Y122157D01*
Y120976D01*
X189803Y120386D01*
X153205Y166016D02*
Y168378D01*
X152615Y168968D01*
X151434D01*
X150844Y168378D01*
Y166016D01*
X151434Y165426D01*
X152615D01*
X152024Y166606D02*
X153205Y165426D01*
X152615D02*
X153205Y166016D01*
X154386Y168378D02*
X154976Y168968D01*
X156157D01*
X156747Y168378D01*
Y167787D01*
X156157Y167197D01*
X155566D01*
X156157D01*
X156747Y166606D01*
Y166016D01*
X156157Y165426D01*
X154976D01*
X154386Y166016D01*
X111414Y245099D02*
Y247460D01*
X110823Y248051D01*
X109643D01*
X109052Y247460D01*
Y245099D01*
X109643Y244508D01*
X110823D01*
X110233Y245689D02*
X111414Y244508D01*
X110823D02*
X111414Y245099D01*
X114956Y244508D02*
X112594D01*
X114956Y246870D01*
Y247460D01*
X114365Y248051D01*
X113185D01*
X112594Y247460D01*
X112091Y261111D02*
Y263472D01*
X111500Y264062D01*
X110319D01*
X109729Y263472D01*
Y261111D01*
X110319Y260520D01*
X111500D01*
X110910Y261701D02*
X112091Y260520D01*
X111500D02*
X112091Y261111D01*
X113271Y260520D02*
X114452D01*
X113862D01*
Y264062D01*
X113271Y263472D01*
X151552Y150752D02*
Y154295D01*
X153323D01*
X153913Y153704D01*
Y152524D01*
X153323Y151933D01*
X151552D01*
X155094Y150752D02*
X156275D01*
X155684D01*
Y154295D01*
X155094Y153704D01*
X49513Y234008D02*
Y237551D01*
X50694Y236370D01*
X51875Y237551D01*
Y234008D01*
X53055Y237551D02*
Y234008D01*
X54826D01*
X55417Y234599D01*
Y236960D01*
X54826Y237551D01*
X53055D01*
X56598Y234008D02*
X57778D01*
X57188D01*
Y237551D01*
X56598Y236960D01*
X171008Y128325D02*
X174551D01*
Y130686D01*
X171008Y134229D02*
Y131867D01*
X174551D01*
Y134229D01*
X172780Y131867D02*
Y133048D01*
X171008Y135409D02*
X174551D01*
Y137180D01*
X173960Y137771D01*
X171599D01*
X171008Y137180D01*
Y135409D01*
X174551Y140723D02*
X171008D01*
X172780Y138951D01*
Y141313D01*
X40561Y93413D02*
Y89871D01*
X42923D01*
X46465Y93413D02*
X44103D01*
Y89871D01*
X46465D01*
X44103Y91642D02*
X45284D01*
X47646Y93413D02*
Y89871D01*
X49417D01*
X50007Y90461D01*
Y92822D01*
X49417Y93413D01*
X47646D01*
X51188Y92822D02*
X51778Y93413D01*
X52959D01*
X53549Y92822D01*
Y92232D01*
X52959Y91642D01*
X52368D01*
X52959D01*
X53549Y91051D01*
Y90461D01*
X52959Y89871D01*
X51778D01*
X51188Y90461D01*
X40758Y116940D02*
Y113398D01*
X43119D01*
X46662Y116940D02*
X44300D01*
Y113398D01*
X46662D01*
X44300Y115169D02*
X45481D01*
X47842Y116940D02*
Y113398D01*
X49613D01*
X50204Y113989D01*
Y116350D01*
X49613Y116940D01*
X47842D01*
X53746Y113398D02*
X51385D01*
X53746Y115760D01*
Y116350D01*
X53156Y116940D01*
X51975D01*
X51385Y116350D01*
X187083Y134624D02*
X190625D01*
Y136985D01*
X187083Y140528D02*
Y138166D01*
X190625D01*
Y140528D01*
X188854Y138166D02*
Y139347D01*
X187083Y141708D02*
X190625D01*
Y143479D01*
X190035Y144070D01*
X187674D01*
X187083Y143479D01*
Y141708D01*
X190625Y145250D02*
Y146431D01*
Y145841D01*
X187083D01*
X187674Y145250D01*
X130284Y141066D02*
Y137524D01*
X132646D01*
X133826D02*
X135007D01*
X134417D01*
Y141066D01*
X133826Y140476D01*
X135299Y171074D02*
X134119D01*
X134709D01*
Y168122D01*
X134119Y167532D01*
X133528D01*
X132938Y168122D01*
X138842Y171074D02*
X137661Y170484D01*
X136480Y169303D01*
Y168122D01*
X137071Y167532D01*
X138251D01*
X138842Y168122D01*
Y168713D01*
X138251Y169303D01*
X136480D01*
X95666Y294421D02*
X94485D01*
X95075D01*
Y291469D01*
X94485Y290879D01*
X93894D01*
X93304Y291469D01*
X96846Y293830D02*
X97437Y294421D01*
X98617D01*
X99208Y293830D01*
Y293240D01*
X98617Y292650D01*
X98027D01*
X98617D01*
X99208Y292059D01*
Y291469D01*
X98617Y290879D01*
X97437D01*
X96846Y291469D01*
X208230Y261867D02*
X207049D01*
X207640D01*
Y258915D01*
X207049Y258324D01*
X206459D01*
X205869Y258915D01*
X211772Y258324D02*
X209411D01*
X211772Y260686D01*
Y261276D01*
X211182Y261867D01*
X210001D01*
X209411Y261276D01*
X21276Y261873D02*
X20095D01*
X20685D01*
Y258922D01*
X20095Y258331D01*
X19504D01*
X18914Y258922D01*
X22456Y258331D02*
X23637D01*
X23047D01*
Y261873D01*
X22456Y261283D01*
X115371Y112350D02*
Y108808D01*
X117142D01*
X117733Y109398D01*
Y111759D01*
X117142Y112350D01*
X115371D01*
X118913Y111759D02*
X119503Y112350D01*
X120684D01*
X121275Y111759D01*
Y111169D01*
X120684Y110579D01*
X120094D01*
X120684D01*
X121275Y109988D01*
Y109398D01*
X120684Y108808D01*
X119503D01*
X118913Y109398D01*
X69564Y63661D02*
Y60119D01*
X71335D01*
X71925Y60709D01*
Y63070D01*
X71335Y63661D01*
X69564D01*
X75468Y60119D02*
X73106D01*
X75468Y62480D01*
Y63070D01*
X74877Y63661D01*
X73697D01*
X73106Y63070D01*
X98532Y126322D02*
Y122780D01*
X100303D01*
X100894Y123371D01*
Y125732D01*
X100303Y126322D01*
X98532D01*
X102074Y122780D02*
X103255D01*
X102665D01*
Y126322D01*
X102074Y125732D01*
X157166Y58543D02*
X156575Y59133D01*
X155394D01*
X154804Y58543D01*
Y56182D01*
X155394Y55591D01*
X156575D01*
X157166Y56182D01*
X158346D02*
X158937Y55591D01*
X160117D01*
X160708Y56182D01*
Y58543D01*
X160117Y59133D01*
X158937D01*
X158346Y58543D01*
Y57953D01*
X158937Y57362D01*
X160708D01*
X195603Y105015D02*
X195012Y105606D01*
X193832D01*
X193241Y105015D01*
Y102654D01*
X193832Y102064D01*
X195012D01*
X195603Y102654D01*
X196783Y105015D02*
X197374Y105606D01*
X198554D01*
X199145Y105015D01*
Y104425D01*
X198554Y103835D01*
X199145Y103244D01*
Y102654D01*
X198554Y102064D01*
X197374D01*
X196783Y102654D01*
Y103244D01*
X197374Y103835D01*
X196783Y104425D01*
Y105015D01*
X197374Y103835D02*
X198554D01*
X171252Y115126D02*
X170662Y114536D01*
Y113355D01*
X171252Y112765D01*
X173614D01*
X174204Y113355D01*
Y114536D01*
X173614Y115126D01*
X170662Y116307D02*
Y118668D01*
X171252D01*
X173614Y116307D01*
X174204D01*
X97477Y26511D02*
X96886Y27102D01*
X95705D01*
X95115Y26511D01*
Y24150D01*
X95705Y23560D01*
X96886D01*
X97477Y24150D01*
X101019Y27102D02*
X99838Y26511D01*
X98657Y25331D01*
Y24150D01*
X99248Y23560D01*
X100428D01*
X101019Y24150D01*
Y24740D01*
X100428Y25331D01*
X98657D01*
X119036Y128315D02*
X118445Y128905D01*
X117264D01*
X116674Y128315D01*
Y125953D01*
X117264Y125363D01*
X118445D01*
X119036Y125953D01*
X122578Y128905D02*
X120216D01*
Y127134D01*
X121397Y127724D01*
X121987D01*
X122578Y127134D01*
Y125953D01*
X121987Y125363D01*
X120807D01*
X120216Y125953D01*
X82366Y280358D02*
X81776Y280948D01*
X80595D01*
X80005Y280358D01*
Y277996D01*
X80595Y277406D01*
X81776D01*
X82366Y277996D01*
X85318Y277406D02*
Y280948D01*
X83547Y279177D01*
X85909D01*
X41421Y265657D02*
X40831Y266248D01*
X39650D01*
X39060Y265657D01*
Y263296D01*
X39650Y262705D01*
X40831D01*
X41421Y263296D01*
X42602Y265657D02*
X43192Y266248D01*
X44373D01*
X44964Y265657D01*
Y265067D01*
X44373Y264476D01*
X43783D01*
X44373D01*
X44964Y263886D01*
Y263296D01*
X44373Y262705D01*
X43192D01*
X42602Y263296D01*
X52882Y265657D02*
X52292Y266248D01*
X51111D01*
X50521Y265657D01*
Y263296D01*
X51111Y262705D01*
X52292D01*
X52882Y263296D01*
X56424Y262705D02*
X54063D01*
X56424Y265067D01*
Y265657D01*
X55834Y266248D01*
X54653D01*
X54063Y265657D01*
X33173Y248862D02*
X32583Y249452D01*
X31402D01*
X30812Y248862D01*
Y246500D01*
X31402Y245910D01*
X32583D01*
X33173Y246500D01*
X34354Y245910D02*
X35535D01*
X34944D01*
Y249452D01*
X34354Y248862D01*
D19*
X195846Y145319D02*
D03*
X179480Y126205D02*
D03*
M02*
