G04*
G04 #@! TF.GenerationSoftware,Altium Limited,Altium Designer,22.1.2 (22)*
G04*
G04 Layer_Physical_Order=2*
G04 Layer_Color=36540*
%FSLAX25Y25*%
%MOIN*%
G70*
G04*
G04 #@! TF.SameCoordinates,55BB0F9E-9583-49B5-81CB-360D1DA6D785*
G04*
G04*
G04 #@! TF.FilePolarity,Positive*
G04*
G01*
G75*
%ADD106R,0.06299X0.06299*%
%ADD114C,0.02362*%
G36*
X186113Y287749D02*
X185613Y287649D01*
X185415Y288127D01*
X184523Y289582D01*
X183415Y290880D01*
X182117Y291988D01*
X180662Y292880D01*
X179085Y293533D01*
X177426Y293931D01*
X175724Y294065D01*
X174023Y293931D01*
X172363Y293533D01*
X170787Y292880D01*
X169332Y291988D01*
X168034Y290880D01*
X166926Y289582D01*
X166034Y288127D01*
X165381Y286550D01*
X164982Y284890D01*
X164848Y283189D01*
X164982Y281488D01*
X165381Y279828D01*
X166034Y278251D01*
X166926Y276796D01*
X168034Y275498D01*
X169332Y274390D01*
X170787Y273498D01*
X172363Y272845D01*
X174023Y272447D01*
X175724Y272313D01*
X177426Y272447D01*
X179085Y272845D01*
X180662Y273498D01*
X182117Y274390D01*
X183415Y275498D01*
X184523Y276796D01*
X185415Y278251D01*
X185998Y279659D01*
X186518Y279608D01*
X186690Y278743D01*
X187413Y276615D01*
X188406Y274600D01*
X189655Y272731D01*
X191136Y271042D01*
X191525Y270701D01*
X191319Y270217D01*
X190749Y270142D01*
X190075Y269862D01*
X189496Y269418D01*
X189052Y268839D01*
X188772Y268165D01*
X188677Y267441D01*
X188772Y266718D01*
X189052Y266043D01*
X189496Y265464D01*
X190075Y265020D01*
X190749Y264741D01*
X191473Y264646D01*
X192196Y264741D01*
X192870Y265020D01*
X193449Y265464D01*
X193894Y266043D01*
X194173Y266718D01*
X194268Y267441D01*
X194188Y268049D01*
X194443Y268274D01*
X194635Y268352D01*
X194694Y268312D01*
X196710Y267318D01*
X198837Y266596D01*
X201041Y266157D01*
X203284Y266010D01*
Y266018D01*
X217609D01*
Y238043D01*
X217109Y237873D01*
X217072Y237922D01*
X216493Y238366D01*
X215818Y238645D01*
X215095Y238741D01*
X214829Y238706D01*
X214702Y238790D01*
X214427Y239157D01*
X214548Y240071D01*
X214405Y241154D01*
X213987Y242164D01*
X213322Y243030D01*
X212455Y243695D01*
X211445Y244114D01*
X210362Y244256D01*
X209279Y244114D01*
X208270Y243695D01*
X207403Y243030D01*
X206737Y242164D01*
X206319Y241154D01*
X206177Y240071D01*
X206319Y238988D01*
X206737Y237978D01*
X207403Y237111D01*
X208270Y236446D01*
X209279Y236028D01*
X210362Y235885D01*
X211445Y236028D01*
X211893Y236213D01*
X212312Y235846D01*
X212394Y235222D01*
X212674Y234547D01*
X213118Y233968D01*
X213697Y233524D01*
X214371Y233245D01*
X215095Y233150D01*
X215818Y233245D01*
X216493Y233524D01*
X217072Y233968D01*
X217109Y234017D01*
X217609Y233847D01*
Y206547D01*
X217109Y206377D01*
X217072Y206426D01*
X216493Y206870D01*
X215818Y207149D01*
X215095Y207245D01*
X214371Y207149D01*
X213799Y206912D01*
X213488Y207224D01*
X213454Y207283D01*
X213987Y207978D01*
X214405Y208988D01*
X214548Y210071D01*
X214405Y211154D01*
X213987Y212164D01*
X213322Y213030D01*
X212455Y213696D01*
X211445Y214114D01*
X210362Y214256D01*
X209279Y214114D01*
X208270Y213696D01*
X207403Y213030D01*
X206737Y212164D01*
X206319Y211154D01*
X206177Y210071D01*
X206319Y208988D01*
X206737Y207978D01*
X207403Y207111D01*
X208270Y206446D01*
X209279Y206028D01*
X210362Y205885D01*
X211445Y206028D01*
X212455Y206446D01*
X212573Y206537D01*
X212929Y206180D01*
X212674Y205847D01*
X212394Y205173D01*
X212299Y204449D01*
X212320Y204293D01*
X211862Y203941D01*
X211445Y204114D01*
X210362Y204256D01*
X209279Y204114D01*
X208270Y203696D01*
X207403Y203030D01*
X206737Y202164D01*
X206319Y201154D01*
X206177Y200071D01*
X206319Y198988D01*
X206737Y197978D01*
X207403Y197111D01*
X208270Y196446D01*
X209279Y196028D01*
X210362Y195885D01*
X211445Y196028D01*
X212455Y196446D01*
X213322Y197111D01*
X213987Y197978D01*
X214405Y198988D01*
X214548Y200071D01*
X214405Y201154D01*
X214367Y201245D01*
X214719Y201703D01*
X215095Y201654D01*
X215818Y201749D01*
X216493Y202028D01*
X217072Y202472D01*
X217109Y202521D01*
X217609Y202351D01*
Y127807D01*
X217109Y127637D01*
X217072Y127686D01*
X216493Y128130D01*
X215818Y128409D01*
X215095Y128504D01*
X214555Y128433D01*
X214178Y128831D01*
X214259Y129027D01*
X214397Y130071D01*
X214259Y131115D01*
X213856Y132088D01*
X213215Y132924D01*
X212380Y133565D01*
X211406Y133968D01*
X210362Y134105D01*
X209318Y133968D01*
X208345Y133565D01*
X207509Y132924D01*
X206868Y132088D01*
X206465Y131115D01*
X206328Y130071D01*
X206465Y129027D01*
X206868Y128054D01*
X207509Y127218D01*
X208345Y126577D01*
X209318Y126174D01*
X210362Y126036D01*
X211406Y126174D01*
X211882Y126371D01*
X212340Y126019D01*
X212299Y125709D01*
X212394Y124985D01*
X212674Y124311D01*
X213118Y123732D01*
X213697Y123288D01*
X214371Y123009D01*
X215095Y122913D01*
X215818Y123009D01*
X216493Y123288D01*
X217072Y123732D01*
X217109Y123781D01*
X217609Y123611D01*
Y96311D01*
X217109Y96141D01*
X217072Y96189D01*
X216493Y96634D01*
X215818Y96913D01*
X215095Y97008D01*
X214371Y96913D01*
X213697Y96634D01*
X213118Y96189D01*
X212674Y95611D01*
X212394Y94936D01*
X212299Y94213D01*
X212309Y94135D01*
X211851Y93784D01*
X211406Y93968D01*
X210362Y94105D01*
X209318Y93968D01*
X208345Y93565D01*
X207509Y92924D01*
X206868Y92088D01*
X206465Y91115D01*
X206328Y90071D01*
X206465Y89027D01*
X206868Y88054D01*
X207509Y87218D01*
X208345Y86577D01*
X209318Y86174D01*
X210362Y86036D01*
X211406Y86174D01*
X212380Y86577D01*
X213215Y87218D01*
X213856Y88054D01*
X214259Y89027D01*
X214397Y90071D01*
X214269Y91038D01*
X214435Y91276D01*
X214651Y91476D01*
X215095Y91417D01*
X215818Y91513D01*
X216493Y91792D01*
X217072Y92236D01*
X217109Y92285D01*
X217609Y92115D01*
Y48391D01*
X203284D01*
Y48399D01*
X201041Y48252D01*
X198837Y47814D01*
X196710Y47091D01*
X194694Y46097D01*
X192826Y44849D01*
X191136Y43367D01*
X189655Y41678D01*
X188406Y39810D01*
X187413Y37794D01*
X186690Y35667D01*
X186518Y34801D01*
X185998Y34750D01*
X185415Y36158D01*
X184523Y37613D01*
X183415Y38911D01*
X182117Y40019D01*
X180662Y40911D01*
X179085Y41564D01*
X177426Y41963D01*
X175724Y42096D01*
X174023Y41963D01*
X172363Y41564D01*
X170787Y40911D01*
X169332Y40019D01*
X168034Y38911D01*
X166926Y37613D01*
X166034Y36158D01*
X165381Y34581D01*
X164982Y32922D01*
X164848Y31220D01*
X164982Y29519D01*
X165381Y27860D01*
X166034Y26283D01*
X166926Y24828D01*
X168034Y23530D01*
X169332Y22422D01*
X170787Y21530D01*
X172214Y20938D01*
X172115Y20438D01*
X165447D01*
X165323Y20889D01*
X165328Y20938D01*
X165890Y21370D01*
X166335Y21949D01*
X166614Y22623D01*
X166709Y23347D01*
X166614Y24070D01*
X166335Y24744D01*
X165890Y25323D01*
X165311Y25768D01*
X164637Y26047D01*
X163914Y26142D01*
X163190Y26047D01*
X162516Y25768D01*
X161937Y25323D01*
X161493Y24744D01*
X161213Y24070D01*
X161118Y23347D01*
X161213Y22623D01*
X161493Y21949D01*
X161937Y21370D01*
X162499Y20938D01*
X162504Y20889D01*
X162380Y20438D01*
X157573D01*
X157449Y20889D01*
X157454Y20938D01*
X158016Y21370D01*
X158461Y21949D01*
X158740Y22623D01*
X158835Y23347D01*
X158740Y24070D01*
X158461Y24744D01*
X158016Y25323D01*
X157437Y25768D01*
X156763Y26047D01*
X156040Y26142D01*
X155316Y26047D01*
X154642Y25768D01*
X154063Y25323D01*
X153619Y24744D01*
X153339Y24070D01*
X153244Y23347D01*
X153339Y22623D01*
X153619Y21949D01*
X154063Y21370D01*
X154625Y20938D01*
X154630Y20889D01*
X154506Y20438D01*
X149699D01*
X149575Y20889D01*
X149580Y20938D01*
X150142Y21370D01*
X150587Y21949D01*
X150866Y22623D01*
X150961Y23347D01*
X150866Y24070D01*
X150587Y24744D01*
X150142Y25323D01*
X149563Y25768D01*
X148889Y26047D01*
X148166Y26142D01*
X147442Y26047D01*
X146768Y25768D01*
X146189Y25323D01*
X145745Y24744D01*
X145465Y24070D01*
X145370Y23347D01*
X145465Y22623D01*
X145745Y21949D01*
X146189Y21370D01*
X146751Y20938D01*
X146756Y20889D01*
X146632Y20438D01*
X141825D01*
X141701Y20889D01*
X141706Y20938D01*
X142268Y21370D01*
X142713Y21949D01*
X142992Y22623D01*
X143087Y23347D01*
X142992Y24070D01*
X142713Y24744D01*
X142268Y25323D01*
X141689Y25768D01*
X141015Y26047D01*
X140292Y26142D01*
X139568Y26047D01*
X138894Y25768D01*
X138315Y25323D01*
X137871Y24744D01*
X137591Y24070D01*
X137496Y23347D01*
X137591Y22623D01*
X137871Y21949D01*
X138315Y21370D01*
X138877Y20938D01*
X138882Y20889D01*
X138758Y20438D01*
X133951D01*
X133827Y20889D01*
X133832Y20938D01*
X134394Y21370D01*
X134839Y21949D01*
X135118Y22623D01*
X135213Y23347D01*
X135118Y24070D01*
X134839Y24744D01*
X134394Y25323D01*
X133815Y25768D01*
X133141Y26047D01*
X132418Y26142D01*
X131694Y26047D01*
X131020Y25768D01*
X130441Y25323D01*
X129997Y24744D01*
X129717Y24070D01*
X129622Y23347D01*
X129717Y22623D01*
X129997Y21949D01*
X130441Y21370D01*
X131003Y20938D01*
X131008Y20889D01*
X130884Y20438D01*
X126077D01*
X125953Y20889D01*
X125958Y20938D01*
X126520Y21370D01*
X126965Y21949D01*
X127244Y22623D01*
X127339Y23347D01*
X127244Y24070D01*
X126965Y24744D01*
X126520Y25323D01*
X125941Y25768D01*
X125267Y26047D01*
X124543Y26142D01*
X123820Y26047D01*
X123146Y25768D01*
X122567Y25323D01*
X122123Y24744D01*
X121843Y24070D01*
X121748Y23347D01*
X121843Y22623D01*
X122123Y21949D01*
X122567Y21370D01*
X123129Y20938D01*
X123134Y20889D01*
X123010Y20438D01*
X118203D01*
X118079Y20889D01*
X118084Y20938D01*
X118646Y21370D01*
X119090Y21949D01*
X119370Y22623D01*
X119465Y23347D01*
X119370Y24070D01*
X119090Y24744D01*
X118646Y25323D01*
X118067Y25768D01*
X117393Y26047D01*
X116669Y26142D01*
X115946Y26047D01*
X115272Y25768D01*
X114693Y25323D01*
X114249Y24744D01*
X113969Y24070D01*
X113874Y23347D01*
X113969Y22623D01*
X114249Y21949D01*
X114693Y21370D01*
X115255Y20938D01*
X115260Y20889D01*
X115136Y20438D01*
X110329D01*
X110205Y20889D01*
X110210Y20938D01*
X110772Y21370D01*
X111216Y21949D01*
X111496Y22623D01*
X111591Y23347D01*
X111496Y24070D01*
X111216Y24744D01*
X110772Y25323D01*
X110193Y25768D01*
X109519Y26047D01*
X108795Y26142D01*
X108072Y26047D01*
X107398Y25768D01*
X106819Y25323D01*
X106375Y24744D01*
X106095Y24070D01*
X106000Y23347D01*
X106095Y22623D01*
X106375Y21949D01*
X106819Y21370D01*
X107381Y20938D01*
X107386Y20889D01*
X107262Y20438D01*
X102455D01*
X102331Y20889D01*
X102336Y20938D01*
X102898Y21370D01*
X103342Y21949D01*
X103622Y22623D01*
X103717Y23347D01*
X103622Y24070D01*
X103342Y24744D01*
X102898Y25323D01*
X102319Y25768D01*
X101645Y26047D01*
X100921Y26142D01*
X100198Y26047D01*
X99524Y25768D01*
X98945Y25323D01*
X98500Y24744D01*
X98221Y24070D01*
X98126Y23347D01*
X98221Y22623D01*
X98500Y21949D01*
X98945Y21370D01*
X99507Y20938D01*
X99512Y20889D01*
X99388Y20438D01*
X70959D01*
X70835Y20889D01*
X70840Y20938D01*
X71402Y21370D01*
X71846Y21949D01*
X72126Y22623D01*
X72221Y23347D01*
X72126Y24070D01*
X71846Y24744D01*
X71402Y25323D01*
X70823Y25768D01*
X70149Y26047D01*
X69425Y26142D01*
X68702Y26047D01*
X68028Y25768D01*
X67449Y25323D01*
X67004Y24744D01*
X66725Y24070D01*
X66630Y23347D01*
X66725Y22623D01*
X67004Y21949D01*
X67449Y21370D01*
X68011Y20938D01*
X68016Y20889D01*
X67892Y20438D01*
X61224D01*
X61124Y20938D01*
X62552Y21530D01*
X64007Y22422D01*
X65305Y23530D01*
X66413Y24828D01*
X67305Y26283D01*
X67958Y27860D01*
X68356Y29519D01*
X68490Y31220D01*
X68356Y32922D01*
X67958Y34581D01*
X67305Y36158D01*
X66413Y37613D01*
X65305Y38911D01*
X64007Y40019D01*
X62552Y40911D01*
X60975Y41564D01*
X59316Y41963D01*
X57614Y42096D01*
X55913Y41963D01*
X54253Y41564D01*
X52676Y40911D01*
X51221Y40019D01*
X49924Y38911D01*
X48815Y37613D01*
X47923Y36158D01*
X47340Y34750D01*
X46820Y34801D01*
X46648Y35667D01*
X45926Y37794D01*
X44932Y39810D01*
X43684Y41678D01*
X42202Y43367D01*
X41813Y43709D01*
X42019Y44193D01*
X42590Y44268D01*
X43264Y44548D01*
X43843Y44992D01*
X44287Y45571D01*
X44567Y46245D01*
X44662Y46969D01*
X44567Y47692D01*
X44287Y48366D01*
X43843Y48945D01*
X43264Y49390D01*
X42590Y49669D01*
X41866Y49764D01*
X41143Y49669D01*
X40468Y49390D01*
X39889Y48945D01*
X39445Y48366D01*
X39166Y47692D01*
X39071Y46969D01*
X39151Y46360D01*
X38898Y46136D01*
X38704Y46058D01*
X38644Y46097D01*
X36629Y47091D01*
X34501Y47814D01*
X32297Y48252D01*
X30055Y48399D01*
Y48391D01*
X15730D01*
Y266018D01*
X30055D01*
Y266010D01*
X32297Y266157D01*
X34501Y266596D01*
X36629Y267318D01*
X38644Y268312D01*
X38704Y268352D01*
X38897Y268274D01*
X39151Y268049D01*
X39071Y267441D01*
X39166Y266718D01*
X39445Y266043D01*
X39889Y265464D01*
X40468Y265020D01*
X41143Y264741D01*
X41866Y264646D01*
X42590Y264741D01*
X43264Y265020D01*
X43843Y265464D01*
X44287Y266043D01*
X44567Y266718D01*
X44662Y267441D01*
X44567Y268165D01*
X44287Y268839D01*
X43843Y269418D01*
X43264Y269862D01*
X42590Y270142D01*
X42019Y270217D01*
X41813Y270701D01*
X42202Y271042D01*
X43684Y272731D01*
X44932Y274600D01*
X45926Y276615D01*
X46648Y278743D01*
X46820Y279608D01*
X47340Y279659D01*
X47923Y278251D01*
X48815Y276796D01*
X49924Y275498D01*
X51221Y274390D01*
X52676Y273498D01*
X54253Y272845D01*
X55913Y272447D01*
X57614Y272313D01*
X59316Y272447D01*
X60975Y272845D01*
X62552Y273498D01*
X64007Y274390D01*
X65305Y275498D01*
X66413Y276796D01*
X67305Y278251D01*
X67958Y279828D01*
X68356Y281488D01*
X68490Y283189D01*
X68356Y284890D01*
X67958Y286550D01*
X67305Y288127D01*
X66413Y289582D01*
X65305Y290880D01*
X64007Y291988D01*
X62552Y292880D01*
X60975Y293533D01*
X59316Y293931D01*
X57614Y294065D01*
X55913Y293931D01*
X54253Y293533D01*
X52676Y292880D01*
X51221Y291988D01*
X49924Y290880D01*
X48815Y289582D01*
X47923Y288127D01*
X47726Y287649D01*
X47226Y287749D01*
Y297908D01*
X186113D01*
Y287749D01*
D02*
G37*
%LPC*%
G36*
X106217Y296566D02*
X105366Y296397D01*
X104644Y295915D01*
X104162Y295194D01*
X103993Y294342D01*
Y292198D01*
X103493Y292098D01*
X103342Y292461D01*
X102898Y293040D01*
X102319Y293484D01*
X101645Y293764D01*
X100921Y293859D01*
X100198Y293764D01*
X99524Y293484D01*
X98945Y293040D01*
X98500Y292461D01*
X98221Y291787D01*
X98126Y291063D01*
X98221Y290340D01*
X98500Y289666D01*
X98945Y289087D01*
X99524Y288642D01*
X100198Y288363D01*
X100921Y288268D01*
X101645Y288363D01*
X102319Y288642D01*
X102898Y289087D01*
X103342Y289666D01*
X103622Y290340D01*
X103655Y290589D01*
X104130Y290722D01*
X104175Y290715D01*
X104644Y290014D01*
X105366Y289532D01*
X106217Y289363D01*
X107068Y289532D01*
X107789Y290014D01*
X108271Y290736D01*
X108440Y291587D01*
Y294342D01*
X108271Y295194D01*
X107789Y295915D01*
X107068Y296397D01*
X106217Y296566D01*
D02*
G37*
G36*
X133776D02*
X132925Y296397D01*
X132203Y295915D01*
X131721Y295194D01*
X131552Y294342D01*
Y291587D01*
X131721Y290736D01*
X132203Y290014D01*
X132925Y289532D01*
X133776Y289363D01*
X134627Y289532D01*
X135348Y290014D01*
X135830Y290736D01*
X135999Y291587D01*
Y294342D01*
X135830Y295194D01*
X135348Y295915D01*
X134627Y296397D01*
X133776Y296566D01*
D02*
G37*
G36*
X163914Y293859D02*
X163190Y293764D01*
X162516Y293484D01*
X161937Y293040D01*
X161493Y292461D01*
X161213Y291787D01*
X161118Y291063D01*
X161213Y290340D01*
X161493Y289666D01*
X161937Y289087D01*
X162516Y288642D01*
X163190Y288363D01*
X163914Y288268D01*
X164637Y288363D01*
X165311Y288642D01*
X165890Y289087D01*
X166335Y289666D01*
X166614Y290340D01*
X166709Y291063D01*
X166614Y291787D01*
X166335Y292461D01*
X165890Y293040D01*
X165311Y293484D01*
X164637Y293764D01*
X163914Y293859D01*
D02*
G37*
G36*
X156040D02*
X155316Y293764D01*
X154642Y293484D01*
X154063Y293040D01*
X153619Y292461D01*
X153339Y291787D01*
X153244Y291063D01*
X153339Y290340D01*
X153619Y289666D01*
X154063Y289087D01*
X154642Y288642D01*
X155316Y288363D01*
X156040Y288268D01*
X156763Y288363D01*
X157437Y288642D01*
X158016Y289087D01*
X158461Y289666D01*
X158740Y290340D01*
X158835Y291063D01*
X158740Y291787D01*
X158461Y292461D01*
X158016Y293040D01*
X157437Y293484D01*
X156763Y293764D01*
X156040Y293859D01*
D02*
G37*
G36*
X148166D02*
X147442Y293764D01*
X146768Y293484D01*
X146189Y293040D01*
X145745Y292461D01*
X145465Y291787D01*
X145370Y291063D01*
X145465Y290340D01*
X145745Y289666D01*
X146189Y289087D01*
X146768Y288642D01*
X147442Y288363D01*
X148166Y288268D01*
X148889Y288363D01*
X149563Y288642D01*
X150142Y289087D01*
X150587Y289666D01*
X150866Y290340D01*
X150961Y291063D01*
X150866Y291787D01*
X150587Y292461D01*
X150142Y293040D01*
X149563Y293484D01*
X148889Y293764D01*
X148166Y293859D01*
D02*
G37*
G36*
X140292D02*
X139568Y293764D01*
X138894Y293484D01*
X138315Y293040D01*
X137871Y292461D01*
X137591Y291787D01*
X137496Y291063D01*
X137591Y290340D01*
X137871Y289666D01*
X138315Y289087D01*
X138894Y288642D01*
X139568Y288363D01*
X140292Y288268D01*
X141015Y288363D01*
X141689Y288642D01*
X142268Y289087D01*
X142713Y289666D01*
X142992Y290340D01*
X143087Y291063D01*
X142992Y291787D01*
X142713Y292461D01*
X142268Y293040D01*
X141689Y293484D01*
X141015Y293764D01*
X140292Y293859D01*
D02*
G37*
G36*
X93047D02*
X92324Y293764D01*
X91650Y293484D01*
X91071Y293040D01*
X90626Y292461D01*
X90347Y291787D01*
X90252Y291063D01*
X90347Y290340D01*
X90626Y289666D01*
X91071Y289087D01*
X91650Y288642D01*
X92324Y288363D01*
X93047Y288268D01*
X93771Y288363D01*
X94445Y288642D01*
X95024Y289087D01*
X95468Y289666D01*
X95748Y290340D01*
X95843Y291063D01*
X95748Y291787D01*
X95468Y292461D01*
X95024Y293040D01*
X94445Y293484D01*
X93771Y293764D01*
X93047Y293859D01*
D02*
G37*
G36*
X85173D02*
X84450Y293764D01*
X83776Y293484D01*
X83197Y293040D01*
X82752Y292461D01*
X82473Y291787D01*
X82378Y291063D01*
X82473Y290340D01*
X82752Y289666D01*
X83197Y289087D01*
X83776Y288642D01*
X84450Y288363D01*
X85173Y288268D01*
X85897Y288363D01*
X86571Y288642D01*
X87150Y289087D01*
X87594Y289666D01*
X87874Y290340D01*
X87969Y291063D01*
X87874Y291787D01*
X87594Y292461D01*
X87150Y293040D01*
X86571Y293484D01*
X85897Y293764D01*
X85173Y293859D01*
D02*
G37*
G36*
X77299D02*
X76576Y293764D01*
X75902Y293484D01*
X75323Y293040D01*
X74878Y292461D01*
X74599Y291787D01*
X74504Y291063D01*
X74599Y290340D01*
X74878Y289666D01*
X75323Y289087D01*
X75902Y288642D01*
X76576Y288363D01*
X77299Y288268D01*
X78023Y288363D01*
X78697Y288642D01*
X79276Y289087D01*
X79720Y289666D01*
X80000Y290340D01*
X80095Y291063D01*
X80000Y291787D01*
X79720Y292461D01*
X79276Y293040D01*
X78697Y293484D01*
X78023Y293764D01*
X77299Y293859D01*
D02*
G37*
G36*
X69425D02*
X68702Y293764D01*
X68028Y293484D01*
X67449Y293040D01*
X67004Y292461D01*
X66725Y291787D01*
X66630Y291063D01*
X66725Y290340D01*
X67004Y289666D01*
X67449Y289087D01*
X68028Y288642D01*
X68702Y288363D01*
X69425Y288268D01*
X70149Y288363D01*
X70823Y288642D01*
X71402Y289087D01*
X71846Y289666D01*
X72126Y290340D01*
X72221Y291063D01*
X72126Y291787D01*
X71846Y292461D01*
X71402Y293040D01*
X70823Y293484D01*
X70149Y293764D01*
X69425Y293859D01*
D02*
G37*
G36*
X159977Y285985D02*
X159253Y285890D01*
X158579Y285610D01*
X158000Y285166D01*
X157556Y284587D01*
X157276Y283913D01*
X157181Y283189D01*
X157276Y282466D01*
X157556Y281791D01*
X158000Y281212D01*
X158579Y280768D01*
X159253Y280489D01*
X159977Y280394D01*
X160700Y280489D01*
X161374Y280768D01*
X161953Y281212D01*
X162398Y281791D01*
X162677Y282466D01*
X162772Y283189D01*
X162677Y283913D01*
X162398Y284587D01*
X161953Y285166D01*
X161374Y285610D01*
X160700Y285890D01*
X159977Y285985D01*
D02*
G37*
G36*
X152103D02*
X151379Y285890D01*
X150705Y285610D01*
X150126Y285166D01*
X149682Y284587D01*
X149402Y283913D01*
X149307Y283189D01*
X149402Y282466D01*
X149682Y281791D01*
X150126Y281212D01*
X150705Y280768D01*
X151379Y280489D01*
X152103Y280394D01*
X152826Y280489D01*
X153500Y280768D01*
X154079Y281212D01*
X154524Y281791D01*
X154803Y282466D01*
X154898Y283189D01*
X154803Y283913D01*
X154524Y284587D01*
X154079Y285166D01*
X153500Y285610D01*
X152826Y285890D01*
X152103Y285985D01*
D02*
G37*
G36*
X144229D02*
X143505Y285890D01*
X142831Y285610D01*
X142252Y285166D01*
X141807Y284587D01*
X141528Y283913D01*
X141433Y283189D01*
X141528Y282466D01*
X141807Y281791D01*
X142252Y281212D01*
X142831Y280768D01*
X143505Y280489D01*
X144229Y280394D01*
X144952Y280489D01*
X145626Y280768D01*
X146205Y281212D01*
X146650Y281791D01*
X146929Y282466D01*
X147024Y283189D01*
X146929Y283913D01*
X146650Y284587D01*
X146205Y285166D01*
X145626Y285610D01*
X144952Y285890D01*
X144229Y285985D01*
D02*
G37*
G36*
X129839Y286222D02*
X128832Y286090D01*
X127895Y285701D01*
X127090Y285084D01*
X126472Y284278D01*
X126084Y283341D01*
X125951Y282335D01*
X126084Y281329D01*
X126472Y280391D01*
X127090Y279586D01*
X127895Y278968D01*
X128832Y278579D01*
X129839Y278447D01*
X130845Y278579D01*
X131782Y278968D01*
X132588Y279586D01*
X133205Y280391D01*
X133594Y281329D01*
X133603Y281401D01*
X134126Y281541D01*
X134378Y281212D01*
X134957Y280768D01*
X135631Y280489D01*
X136354Y280394D01*
X137078Y280489D01*
X137752Y280768D01*
X138331Y281212D01*
X138776Y281791D01*
X139055Y282466D01*
X139150Y283189D01*
X139055Y283913D01*
X138776Y284587D01*
X138331Y285166D01*
X137752Y285610D01*
X137078Y285890D01*
X136354Y285985D01*
X135631Y285890D01*
X134957Y285610D01*
X134378Y285166D01*
X133933Y284587D01*
X133776Y284207D01*
X133235D01*
X133205Y284278D01*
X132588Y285084D01*
X131782Y285701D01*
X130845Y286090D01*
X129839Y286222D01*
D02*
G37*
G36*
X89110Y285985D02*
X88387Y285890D01*
X87713Y285610D01*
X87134Y285166D01*
X86689Y284587D01*
X86410Y283913D01*
X86315Y283189D01*
X86410Y282466D01*
X86689Y281791D01*
X87134Y281212D01*
X87713Y280768D01*
X88387Y280489D01*
X89110Y280394D01*
X89834Y280489D01*
X90508Y280768D01*
X91087Y281212D01*
X91531Y281791D01*
X91811Y282466D01*
X91906Y283189D01*
X91811Y283913D01*
X91531Y284587D01*
X91087Y285166D01*
X90508Y285610D01*
X89834Y285890D01*
X89110Y285985D01*
D02*
G37*
G36*
X81236D02*
X80513Y285890D01*
X79839Y285610D01*
X79260Y285166D01*
X78815Y284587D01*
X78536Y283913D01*
X78441Y283189D01*
X78536Y282466D01*
X78815Y281791D01*
X79260Y281212D01*
X79839Y280768D01*
X80513Y280489D01*
X81236Y280394D01*
X81960Y280489D01*
X82634Y280768D01*
X83213Y281212D01*
X83657Y281791D01*
X83937Y282466D01*
X84032Y283189D01*
X83937Y283913D01*
X83657Y284587D01*
X83213Y285166D01*
X82634Y285610D01*
X81960Y285890D01*
X81236Y285985D01*
D02*
G37*
G36*
X110153Y286222D02*
X109147Y286090D01*
X108210Y285701D01*
X107405Y285084D01*
X106787Y284278D01*
X106398Y283341D01*
X106266Y282335D01*
X106398Y281329D01*
X106787Y280391D01*
X107405Y279586D01*
X108210Y278968D01*
X109147Y278579D01*
X110153Y278447D01*
X111160Y278579D01*
X112097Y278968D01*
X112902Y279586D01*
X113520Y280391D01*
X113909Y281329D01*
X114041Y282335D01*
X113909Y283341D01*
X113520Y284278D01*
X112902Y285084D01*
X112097Y285701D01*
X111160Y286090D01*
X110153Y286222D01*
D02*
G37*
G36*
X163914Y278111D02*
X163190Y278015D01*
X162516Y277736D01*
X161937Y277292D01*
X161493Y276713D01*
X161213Y276039D01*
X161118Y275315D01*
X161213Y274592D01*
X161493Y273918D01*
X161937Y273339D01*
X162516Y272894D01*
X163190Y272615D01*
X163914Y272520D01*
X164637Y272615D01*
X165311Y272894D01*
X165890Y273339D01*
X166335Y273918D01*
X166614Y274592D01*
X166709Y275315D01*
X166614Y276039D01*
X166335Y276713D01*
X165890Y277292D01*
X165311Y277736D01*
X164637Y278015D01*
X163914Y278111D01*
D02*
G37*
G36*
X156040D02*
X155316Y278015D01*
X154642Y277736D01*
X154063Y277292D01*
X153619Y276713D01*
X153339Y276039D01*
X153244Y275315D01*
X153339Y274592D01*
X153619Y273918D01*
X154063Y273339D01*
X154642Y272894D01*
X155316Y272615D01*
X156040Y272520D01*
X156763Y272615D01*
X157437Y272894D01*
X158016Y273339D01*
X158461Y273918D01*
X158740Y274592D01*
X158835Y275315D01*
X158740Y276039D01*
X158461Y276713D01*
X158016Y277292D01*
X157437Y277736D01*
X156763Y278015D01*
X156040Y278111D01*
D02*
G37*
G36*
X148166D02*
X147442Y278015D01*
X146768Y277736D01*
X146189Y277292D01*
X145745Y276713D01*
X145465Y276039D01*
X145370Y275315D01*
X145465Y274592D01*
X145745Y273918D01*
X146189Y273339D01*
X146768Y272894D01*
X147442Y272615D01*
X148166Y272520D01*
X148889Y272615D01*
X149563Y272894D01*
X150142Y273339D01*
X150587Y273918D01*
X150866Y274592D01*
X150961Y275315D01*
X150866Y276039D01*
X150587Y276713D01*
X150142Y277292D01*
X149563Y277736D01*
X148889Y278015D01*
X148166Y278111D01*
D02*
G37*
G36*
X140292D02*
X139568Y278015D01*
X138894Y277736D01*
X138315Y277292D01*
X137871Y276713D01*
X137591Y276039D01*
X137496Y275315D01*
X137591Y274592D01*
X137871Y273918D01*
X138315Y273339D01*
X138894Y272894D01*
X139568Y272615D01*
X140292Y272520D01*
X141015Y272615D01*
X141689Y272894D01*
X142268Y273339D01*
X142713Y273918D01*
X142992Y274592D01*
X143087Y275315D01*
X142992Y276039D01*
X142713Y276713D01*
X142268Y277292D01*
X141689Y277736D01*
X141015Y278015D01*
X140292Y278111D01*
D02*
G37*
G36*
X132418D02*
X131694Y278015D01*
X131020Y277736D01*
X130441Y277292D01*
X129997Y276713D01*
X129717Y276039D01*
X129622Y275315D01*
X129717Y274592D01*
X129997Y273918D01*
X130441Y273339D01*
X131020Y272894D01*
X131694Y272615D01*
X132418Y272520D01*
X133141Y272615D01*
X133815Y272894D01*
X134394Y273339D01*
X134839Y273918D01*
X135118Y274592D01*
X135213Y275315D01*
X135118Y276039D01*
X134839Y276713D01*
X134394Y277292D01*
X133815Y277736D01*
X133141Y278015D01*
X132418Y278111D01*
D02*
G37*
G36*
X93563Y275480D02*
X92712Y275310D01*
X91991Y274828D01*
X91508Y274107D01*
X91339Y273256D01*
X91508Y272405D01*
X91991Y271683D01*
X92712Y271201D01*
X93563Y271032D01*
X94414Y271201D01*
X95135Y271683D01*
X95618Y272405D01*
X95787Y273256D01*
X95618Y274107D01*
X95135Y274828D01*
X94414Y275310D01*
X93563Y275480D01*
D02*
G37*
G36*
X68429Y271318D02*
X67578Y271149D01*
X66857Y270667D01*
X66375Y269946D01*
X66205Y269094D01*
X66375Y268244D01*
X66857Y267522D01*
X67578Y267040D01*
X68429Y266871D01*
X69280Y267040D01*
X70002Y267522D01*
X70484Y268244D01*
X70653Y269094D01*
X70484Y269946D01*
X70002Y270667D01*
X69280Y271149D01*
X68429Y271318D01*
D02*
G37*
G36*
X113480Y269204D02*
X112629Y269035D01*
X111908Y268553D01*
X111426Y267831D01*
X111257Y266980D01*
X111426Y266129D01*
X111908Y265408D01*
X112629Y264926D01*
X113480Y264756D01*
X114331Y264926D01*
X115053Y265408D01*
X115535Y266129D01*
X115704Y266980D01*
X115535Y267831D01*
X115053Y268553D01*
X114331Y269035D01*
X113480Y269204D01*
D02*
G37*
G36*
X183599Y270237D02*
X182875Y270142D01*
X182201Y269862D01*
X181622Y269418D01*
X181178Y268839D01*
X180898Y268165D01*
X180803Y267441D01*
X180898Y266718D01*
X181178Y266043D01*
X181622Y265464D01*
X182201Y265020D01*
X182875Y264741D01*
X183599Y264646D01*
X184322Y264741D01*
X184996Y265020D01*
X185575Y265464D01*
X186020Y266043D01*
X186299Y266718D01*
X186394Y267441D01*
X186299Y268165D01*
X186020Y268839D01*
X185575Y269418D01*
X184996Y269862D01*
X184322Y270142D01*
X183599Y270237D01*
D02*
G37*
G36*
X89110D02*
X88387Y270142D01*
X87713Y269862D01*
X87134Y269418D01*
X86689Y268839D01*
X86410Y268165D01*
X86315Y267441D01*
X86410Y266718D01*
X86689Y266043D01*
X87134Y265464D01*
X87713Y265020D01*
X88387Y264741D01*
X89110Y264646D01*
X89834Y264741D01*
X90508Y265020D01*
X91087Y265464D01*
X91531Y266043D01*
X91811Y266718D01*
X91906Y267441D01*
X91811Y268165D01*
X91531Y268839D01*
X91087Y269418D01*
X90508Y269862D01*
X89834Y270142D01*
X89110Y270237D01*
D02*
G37*
G36*
X49740D02*
X49017Y270142D01*
X48342Y269862D01*
X47764Y269418D01*
X47319Y268839D01*
X47040Y268165D01*
X46945Y267441D01*
X47040Y266718D01*
X47319Y266043D01*
X47764Y265464D01*
X48342Y265020D01*
X49017Y264741D01*
X49740Y264646D01*
X50464Y264741D01*
X51138Y265020D01*
X51717Y265464D01*
X52161Y266043D01*
X52441Y266718D01*
X52536Y267441D01*
X52441Y268165D01*
X52161Y268839D01*
X51717Y269418D01*
X51138Y269862D01*
X50464Y270142D01*
X49740Y270237D01*
D02*
G37*
G36*
X211158Y262363D02*
X210434Y262267D01*
X209760Y261988D01*
X209181Y261544D01*
X208737Y260965D01*
X208457Y260291D01*
X208362Y259567D01*
X208457Y258844D01*
X208737Y258169D01*
X209181Y257590D01*
X209760Y257146D01*
X210434Y256867D01*
X211158Y256772D01*
X211881Y256867D01*
X212556Y257146D01*
X213135Y257590D01*
X213579Y258169D01*
X213858Y258844D01*
X213953Y259567D01*
X213858Y260291D01*
X213579Y260965D01*
X213135Y261544D01*
X212556Y261988D01*
X211881Y262267D01*
X211158Y262363D01*
D02*
G37*
G36*
X203284D02*
X202560Y262267D01*
X201886Y261988D01*
X201307Y261544D01*
X200863Y260965D01*
X200583Y260291D01*
X200488Y259567D01*
X200583Y258844D01*
X200863Y258169D01*
X201307Y257590D01*
X201886Y257146D01*
X202560Y256867D01*
X203284Y256772D01*
X204007Y256867D01*
X204681Y257146D01*
X205260Y257590D01*
X205705Y258169D01*
X205984Y258844D01*
X206079Y259567D01*
X205984Y260291D01*
X205705Y260965D01*
X205260Y261544D01*
X204681Y261988D01*
X204007Y262267D01*
X203284Y262363D01*
D02*
G37*
G36*
X195410D02*
X194686Y262267D01*
X194012Y261988D01*
X193433Y261544D01*
X192989Y260965D01*
X192709Y260291D01*
X192614Y259567D01*
X192709Y258844D01*
X192989Y258169D01*
X193433Y257590D01*
X194012Y257146D01*
X194686Y256867D01*
X195410Y256772D01*
X196133Y256867D01*
X196808Y257146D01*
X197387Y257590D01*
X197831Y258169D01*
X198110Y258844D01*
X198205Y259567D01*
X198110Y260291D01*
X197831Y260965D01*
X197387Y261544D01*
X196808Y261988D01*
X196133Y262267D01*
X195410Y262363D01*
D02*
G37*
G36*
X187536D02*
X186812Y262267D01*
X186138Y261988D01*
X185559Y261544D01*
X185115Y260965D01*
X184835Y260291D01*
X184740Y259567D01*
X184835Y258844D01*
X185115Y258169D01*
X185559Y257590D01*
X186138Y257146D01*
X186812Y256867D01*
X187536Y256772D01*
X188259Y256867D01*
X188934Y257146D01*
X189512Y257590D01*
X189957Y258169D01*
X190236Y258844D01*
X190331Y259567D01*
X190236Y260291D01*
X189957Y260965D01*
X189512Y261544D01*
X188934Y261988D01*
X188259Y262267D01*
X187536Y262363D01*
D02*
G37*
G36*
X171788D02*
X171064Y262267D01*
X170390Y261988D01*
X169811Y261544D01*
X169367Y260965D01*
X169087Y260291D01*
X168992Y259567D01*
X169087Y258844D01*
X169367Y258169D01*
X169811Y257590D01*
X170390Y257146D01*
X171064Y256867D01*
X171788Y256772D01*
X172511Y256867D01*
X173185Y257146D01*
X173764Y257590D01*
X174209Y258169D01*
X174488Y258844D01*
X174583Y259567D01*
X174488Y260291D01*
X174209Y260965D01*
X173764Y261544D01*
X173185Y261988D01*
X172511Y262267D01*
X171788Y262363D01*
D02*
G37*
G36*
X148166D02*
X147442Y262267D01*
X146768Y261988D01*
X146189Y261544D01*
X145745Y260965D01*
X145465Y260291D01*
X145370Y259567D01*
X145465Y258844D01*
X145745Y258169D01*
X146189Y257590D01*
X146768Y257146D01*
X147442Y256867D01*
X148166Y256772D01*
X148889Y256867D01*
X149563Y257146D01*
X150142Y257590D01*
X150587Y258169D01*
X150866Y258844D01*
X150961Y259567D01*
X150866Y260291D01*
X150587Y260965D01*
X150142Y261544D01*
X149563Y261988D01*
X148889Y262267D01*
X148166Y262363D01*
D02*
G37*
G36*
X132418D02*
X131694Y262267D01*
X131020Y261988D01*
X130441Y261544D01*
X129997Y260965D01*
X129717Y260291D01*
X129622Y259567D01*
X129717Y258844D01*
X129997Y258169D01*
X130441Y257590D01*
X131020Y257146D01*
X131694Y256867D01*
X132418Y256772D01*
X133141Y256867D01*
X133815Y257146D01*
X134394Y257590D01*
X134839Y258169D01*
X135118Y258844D01*
X135213Y259567D01*
X135118Y260291D01*
X134839Y260965D01*
X134394Y261544D01*
X133815Y261988D01*
X133141Y262267D01*
X132418Y262363D01*
D02*
G37*
G36*
X30055D02*
X29332Y262267D01*
X28657Y261988D01*
X28078Y261544D01*
X27634Y260965D01*
X27355Y260291D01*
X27260Y259567D01*
X27355Y258844D01*
X27634Y258169D01*
X28078Y257590D01*
X28657Y257146D01*
X29332Y256867D01*
X30055Y256772D01*
X30779Y256867D01*
X31453Y257146D01*
X32032Y257590D01*
X32476Y258169D01*
X32756Y258844D01*
X32851Y259567D01*
X32756Y260291D01*
X32476Y260965D01*
X32032Y261544D01*
X31453Y261988D01*
X30779Y262267D01*
X30055Y262363D01*
D02*
G37*
G36*
X22181D02*
X21458Y262267D01*
X20784Y261988D01*
X20204Y261544D01*
X19760Y260965D01*
X19481Y260291D01*
X19386Y259567D01*
X19481Y258844D01*
X19760Y258169D01*
X20204Y257590D01*
X20784Y257146D01*
X21458Y256867D01*
X22181Y256772D01*
X22905Y256867D01*
X23579Y257146D01*
X24158Y257590D01*
X24602Y258169D01*
X24882Y258844D01*
X24977Y259567D01*
X24882Y260291D01*
X24602Y260965D01*
X24158Y261544D01*
X23579Y261988D01*
X22905Y262267D01*
X22181Y262363D01*
D02*
G37*
G36*
X81429Y258161D02*
X80655Y258007D01*
X79999Y257568D01*
X79560Y256912D01*
X79519Y256704D01*
X79009D01*
X78968Y256912D01*
X78529Y257568D01*
X77873Y258007D01*
X77098Y258161D01*
X76324Y258007D01*
X75668Y257568D01*
X75229Y256912D01*
X75188Y256704D01*
X74678D01*
X74637Y256912D01*
X74198Y257568D01*
X73542Y258007D01*
X72768Y258161D01*
X71993Y258007D01*
X71337Y257568D01*
X70899Y256912D01*
X70745Y256138D01*
X70899Y255364D01*
X71337Y254707D01*
X71993Y254269D01*
X72201Y254227D01*
Y253717D01*
X71993Y253676D01*
X71337Y253238D01*
X70899Y252581D01*
X70745Y251807D01*
X70899Y251033D01*
X71337Y250377D01*
X71993Y249938D01*
X72201Y249897D01*
Y249387D01*
X71993Y249345D01*
X71337Y248907D01*
X70899Y248251D01*
X70745Y247476D01*
X70899Y246702D01*
X71337Y246046D01*
X71993Y245607D01*
X72768Y245453D01*
X73542Y245607D01*
X74198Y246046D01*
X74637Y246702D01*
X74678Y246910D01*
X75188D01*
X75229Y246702D01*
X75668Y246046D01*
X76324Y245607D01*
X77098Y245453D01*
X77873Y245607D01*
X78529Y246046D01*
X78968Y246702D01*
X79009Y246910D01*
X79519D01*
X79560Y246702D01*
X79999Y246046D01*
X80655Y245607D01*
X81429Y245453D01*
X82203Y245607D01*
X82860Y246046D01*
X83298Y246702D01*
X83452Y247476D01*
X83298Y248251D01*
X82860Y248907D01*
X82203Y249345D01*
X81995Y249387D01*
Y249897D01*
X82203Y249938D01*
X82860Y250377D01*
X83298Y251033D01*
X83452Y251807D01*
X83298Y252581D01*
X82860Y253238D01*
X82203Y253676D01*
X81996Y253717D01*
Y254227D01*
X82203Y254269D01*
X82860Y254707D01*
X83298Y255364D01*
X83452Y256138D01*
X83298Y256912D01*
X82860Y257568D01*
X82203Y258007D01*
X81429Y258161D01*
D02*
G37*
G36*
X96784Y255972D02*
X95932Y255803D01*
X95211Y255321D01*
X94729Y254599D01*
X94560Y253748D01*
X94729Y252897D01*
X95211Y252175D01*
X95932Y251694D01*
X96784Y251524D01*
X97635Y251694D01*
X98356Y252175D01*
X98838Y252897D01*
X99007Y253748D01*
X98838Y254599D01*
X98356Y255321D01*
X97635Y255803D01*
X96784Y255972D01*
D02*
G37*
G36*
X158835Y255917D02*
X157984Y255748D01*
X157262Y255265D01*
X156780Y254544D01*
X156611Y253693D01*
X156780Y252842D01*
X157262Y252120D01*
X157984Y251638D01*
X158835Y251469D01*
X159686Y251638D01*
X160407Y252120D01*
X160889Y252842D01*
X161058Y253693D01*
X160889Y254544D01*
X160407Y255265D01*
X159686Y255748D01*
X158835Y255917D01*
D02*
G37*
G36*
X119138Y255232D02*
X118287Y255062D01*
X117565Y254580D01*
X117083Y253859D01*
X116914Y253008D01*
X117083Y252157D01*
X117565Y251435D01*
X118287Y250953D01*
X119138Y250784D01*
X119989Y250953D01*
X120710Y251435D01*
X121192Y252157D01*
X121362Y253008D01*
X121192Y253859D01*
X120710Y254580D01*
X119989Y255062D01*
X119138Y255232D01*
D02*
G37*
G36*
X108453Y255031D02*
X107602Y254862D01*
X106880Y254380D01*
X106398Y253658D01*
X106229Y252807D01*
X106398Y251956D01*
X106880Y251235D01*
X107602Y250752D01*
X108453Y250583D01*
X109304Y250752D01*
X110025Y251235D01*
X110507Y251956D01*
X110677Y252807D01*
X110507Y253658D01*
X110025Y254380D01*
X109304Y254862D01*
X108453Y255031D01*
D02*
G37*
G36*
X27047Y254221D02*
X23398D01*
Y250571D01*
X27047D01*
Y254221D01*
D02*
G37*
G36*
X22398D02*
X18748D01*
Y250571D01*
X22398D01*
Y254221D01*
D02*
G37*
G36*
X199347Y254489D02*
X198623Y254394D01*
X197949Y254114D01*
X197370Y253670D01*
X196926Y253091D01*
X196646Y252417D01*
X196551Y251693D01*
X196646Y250970D01*
X196926Y250295D01*
X197370Y249716D01*
X197949Y249272D01*
X198623Y248993D01*
X199347Y248898D01*
X200070Y248993D01*
X200745Y249272D01*
X201324Y249716D01*
X201768Y250295D01*
X202047Y250970D01*
X202142Y251693D01*
X202047Y252417D01*
X201768Y253091D01*
X201324Y253670D01*
X200745Y254114D01*
X200070Y254394D01*
X199347Y254489D01*
D02*
G37*
G36*
X191473D02*
X190749Y254394D01*
X190075Y254114D01*
X189496Y253670D01*
X189052Y253091D01*
X188772Y252417D01*
X188677Y251693D01*
X188772Y250970D01*
X189052Y250295D01*
X189496Y249716D01*
X190075Y249272D01*
X190749Y248993D01*
X191473Y248898D01*
X192196Y248993D01*
X192870Y249272D01*
X193449Y249716D01*
X193894Y250295D01*
X194173Y250970D01*
X194268Y251693D01*
X194173Y252417D01*
X193894Y253091D01*
X193449Y253670D01*
X192870Y254114D01*
X192196Y254394D01*
X191473Y254489D01*
D02*
G37*
G36*
X183599D02*
X182875Y254394D01*
X182201Y254114D01*
X181622Y253670D01*
X181178Y253091D01*
X180898Y252417D01*
X180803Y251693D01*
X180898Y250970D01*
X181178Y250295D01*
X181622Y249716D01*
X182201Y249272D01*
X182875Y248993D01*
X183599Y248898D01*
X184322Y248993D01*
X184996Y249272D01*
X185575Y249716D01*
X186020Y250295D01*
X186299Y250970D01*
X186394Y251693D01*
X186299Y252417D01*
X186020Y253091D01*
X185575Y253670D01*
X184996Y254114D01*
X184322Y254394D01*
X183599Y254489D01*
D02*
G37*
G36*
X175725D02*
X175001Y254394D01*
X174327Y254114D01*
X173748Y253670D01*
X173304Y253091D01*
X173024Y252417D01*
X172929Y251693D01*
X173024Y250970D01*
X173304Y250295D01*
X173748Y249716D01*
X174327Y249272D01*
X175001Y248993D01*
X175725Y248898D01*
X176448Y248993D01*
X177122Y249272D01*
X177701Y249716D01*
X178146Y250295D01*
X178425Y250970D01*
X178520Y251693D01*
X178425Y252417D01*
X178146Y253091D01*
X177701Y253670D01*
X177122Y254114D01*
X176448Y254394D01*
X175725Y254489D01*
D02*
G37*
G36*
X167851D02*
X167127Y254394D01*
X166453Y254114D01*
X165874Y253670D01*
X165430Y253091D01*
X165150Y252417D01*
X165055Y251693D01*
X165150Y250970D01*
X165430Y250295D01*
X165874Y249716D01*
X166453Y249272D01*
X167127Y248993D01*
X167851Y248898D01*
X168574Y248993D01*
X169248Y249272D01*
X169827Y249716D01*
X170272Y250295D01*
X170551Y250970D01*
X170646Y251693D01*
X170551Y252417D01*
X170272Y253091D01*
X169827Y253670D01*
X169248Y254114D01*
X168574Y254394D01*
X167851Y254489D01*
D02*
G37*
G36*
X152103D02*
X151379Y254394D01*
X150705Y254114D01*
X150126Y253670D01*
X149682Y253091D01*
X149402Y252417D01*
X149307Y251693D01*
X149402Y250970D01*
X149682Y250295D01*
X150126Y249716D01*
X150705Y249272D01*
X151379Y248993D01*
X152103Y248898D01*
X152826Y248993D01*
X153500Y249272D01*
X154079Y249716D01*
X154524Y250295D01*
X154803Y250970D01*
X154898Y251693D01*
X154803Y252417D01*
X154524Y253091D01*
X154079Y253670D01*
X153500Y254114D01*
X152826Y254394D01*
X152103Y254489D01*
D02*
G37*
G36*
X144229D02*
X143505Y254394D01*
X142831Y254114D01*
X142252Y253670D01*
X141807Y253091D01*
X141528Y252417D01*
X141433Y251693D01*
X141528Y250970D01*
X141807Y250295D01*
X142252Y249716D01*
X142831Y249272D01*
X143505Y248993D01*
X144229Y248898D01*
X144952Y248993D01*
X145626Y249272D01*
X146205Y249716D01*
X146650Y250295D01*
X146929Y250970D01*
X147024Y251693D01*
X146929Y252417D01*
X146650Y253091D01*
X146205Y253670D01*
X145626Y254114D01*
X144952Y254394D01*
X144229Y254489D01*
D02*
G37*
G36*
X136354D02*
X135631Y254394D01*
X134957Y254114D01*
X134378Y253670D01*
X133933Y253091D01*
X133654Y252417D01*
X133559Y251693D01*
X133654Y250970D01*
X133933Y250295D01*
X134378Y249716D01*
X134957Y249272D01*
X135631Y248993D01*
X136354Y248898D01*
X137078Y248993D01*
X137752Y249272D01*
X138331Y249716D01*
X138776Y250295D01*
X139055Y250970D01*
X139150Y251693D01*
X139055Y252417D01*
X138776Y253091D01*
X138331Y253670D01*
X137752Y254114D01*
X137078Y254394D01*
X136354Y254489D01*
D02*
G37*
G36*
X33992D02*
X33269Y254394D01*
X32594Y254114D01*
X32015Y253670D01*
X31571Y253091D01*
X31292Y252417D01*
X31197Y251693D01*
X31292Y250970D01*
X31571Y250295D01*
X32015Y249716D01*
X32594Y249272D01*
X33269Y248993D01*
X33992Y248898D01*
X34716Y248993D01*
X35390Y249272D01*
X35969Y249716D01*
X36413Y250295D01*
X36693Y250970D01*
X36788Y251693D01*
X36693Y252417D01*
X36413Y253091D01*
X35969Y253670D01*
X35390Y254114D01*
X34716Y254394D01*
X33992Y254489D01*
D02*
G37*
G36*
X214512Y254221D02*
X206213D01*
Y245921D01*
X214512D01*
Y254221D01*
D02*
G37*
G36*
X27047Y249571D02*
X23398D01*
Y245921D01*
X27047D01*
Y249571D01*
D02*
G37*
G36*
X22398D02*
X18748D01*
Y245921D01*
X22398D01*
Y249571D01*
D02*
G37*
G36*
X133260Y247814D02*
X132409Y247645D01*
X131687Y247163D01*
X131205Y246442D01*
X131036Y245590D01*
X131205Y244740D01*
X131687Y244018D01*
X132409Y243536D01*
X133260Y243367D01*
X134111Y243536D01*
X134832Y244018D01*
X135314Y244740D01*
X135484Y245590D01*
X135314Y246442D01*
X134832Y247163D01*
X134111Y247645D01*
X133260Y247814D01*
D02*
G37*
G36*
X203284Y246615D02*
X202560Y246519D01*
X201886Y246240D01*
X201307Y245796D01*
X200863Y245217D01*
X200583Y244543D01*
X200488Y243819D01*
X200583Y243096D01*
X200863Y242421D01*
X201307Y241842D01*
X201886Y241398D01*
X202560Y241119D01*
X203284Y241024D01*
X204007Y241119D01*
X204681Y241398D01*
X205260Y241842D01*
X205705Y242421D01*
X205984Y243096D01*
X206079Y243819D01*
X205984Y244543D01*
X205705Y245217D01*
X205260Y245796D01*
X204681Y246240D01*
X204007Y246519D01*
X203284Y246615D01*
D02*
G37*
G36*
X195410D02*
X194686Y246519D01*
X194012Y246240D01*
X193433Y245796D01*
X192989Y245217D01*
X192709Y244543D01*
X192614Y243819D01*
X192709Y243096D01*
X192989Y242421D01*
X193433Y241842D01*
X194012Y241398D01*
X194686Y241119D01*
X195410Y241024D01*
X196133Y241119D01*
X196808Y241398D01*
X197387Y241842D01*
X197831Y242421D01*
X198110Y243096D01*
X198205Y243819D01*
X198110Y244543D01*
X197831Y245217D01*
X197387Y245796D01*
X196808Y246240D01*
X196133Y246519D01*
X195410Y246615D01*
D02*
G37*
G36*
X187536D02*
X186812Y246519D01*
X186138Y246240D01*
X185559Y245796D01*
X185115Y245217D01*
X184835Y244543D01*
X184740Y243819D01*
X184835Y243096D01*
X185115Y242421D01*
X185559Y241842D01*
X186138Y241398D01*
X186812Y241119D01*
X187536Y241024D01*
X188259Y241119D01*
X188934Y241398D01*
X189512Y241842D01*
X189957Y242421D01*
X190236Y243096D01*
X190331Y243819D01*
X190236Y244543D01*
X189957Y245217D01*
X189512Y245796D01*
X188934Y246240D01*
X188259Y246519D01*
X187536Y246615D01*
D02*
G37*
G36*
X148166D02*
X147442Y246519D01*
X146768Y246240D01*
X146189Y245796D01*
X145745Y245217D01*
X145465Y244543D01*
X145370Y243819D01*
X145465Y243096D01*
X145745Y242421D01*
X146189Y241842D01*
X146768Y241398D01*
X147442Y241119D01*
X148166Y241024D01*
X148889Y241119D01*
X149563Y241398D01*
X150142Y241842D01*
X150587Y242421D01*
X150866Y243096D01*
X150961Y243819D01*
X150866Y244543D01*
X150587Y245217D01*
X150142Y245796D01*
X149563Y246240D01*
X148889Y246519D01*
X148166Y246615D01*
D02*
G37*
G36*
X61551D02*
X60828Y246519D01*
X60154Y246240D01*
X59575Y245796D01*
X59130Y245217D01*
X58851Y244543D01*
X58756Y243819D01*
X58851Y243096D01*
X59130Y242421D01*
X59575Y241842D01*
X60154Y241398D01*
X60828Y241119D01*
X61551Y241024D01*
X62275Y241119D01*
X62949Y241398D01*
X63528Y241842D01*
X63972Y242421D01*
X64252Y243096D01*
X64347Y243819D01*
X64252Y244543D01*
X63972Y245217D01*
X63528Y245796D01*
X62949Y246240D01*
X62275Y246519D01*
X61551Y246615D01*
D02*
G37*
G36*
X53677D02*
X52954Y246519D01*
X52280Y246240D01*
X51701Y245796D01*
X51256Y245217D01*
X50977Y244543D01*
X50882Y243819D01*
X50977Y243096D01*
X51256Y242421D01*
X51701Y241842D01*
X52280Y241398D01*
X52954Y241119D01*
X53677Y241024D01*
X54401Y241119D01*
X55075Y241398D01*
X55654Y241842D01*
X56098Y242421D01*
X56378Y243096D01*
X56473Y243819D01*
X56378Y244543D01*
X56098Y245217D01*
X55654Y245796D01*
X55075Y246240D01*
X54401Y246519D01*
X53677Y246615D01*
D02*
G37*
G36*
X45803D02*
X45080Y246519D01*
X44405Y246240D01*
X43826Y245796D01*
X43382Y245217D01*
X43103Y244543D01*
X43008Y243819D01*
X43103Y243096D01*
X43382Y242421D01*
X43826Y241842D01*
X44405Y241398D01*
X45080Y241119D01*
X45803Y241024D01*
X46527Y241119D01*
X47201Y241398D01*
X47780Y241842D01*
X48224Y242421D01*
X48504Y243096D01*
X48599Y243819D01*
X48504Y244543D01*
X48224Y245217D01*
X47780Y245796D01*
X47201Y246240D01*
X46527Y246519D01*
X45803Y246615D01*
D02*
G37*
G36*
X91189Y244740D02*
X90338Y244570D01*
X89617Y244088D01*
X89134Y243367D01*
X88965Y242516D01*
X89134Y241665D01*
X89617Y240943D01*
X90338Y240461D01*
X91189Y240292D01*
X92040Y240461D01*
X92761Y240943D01*
X93243Y241665D01*
X93413Y242516D01*
X93243Y243367D01*
X92761Y244088D01*
X92040Y244570D01*
X91189Y244740D01*
D02*
G37*
G36*
X22898Y244256D02*
X21814Y244114D01*
X20805Y243695D01*
X19938Y243030D01*
X19273Y242164D01*
X18855Y241154D01*
X18712Y240071D01*
X18855Y238988D01*
X19273Y237978D01*
X19938Y237111D01*
X20805Y236446D01*
X21814Y236028D01*
X22898Y235885D01*
X23981Y236028D01*
X24990Y236446D01*
X25857Y237111D01*
X26522Y237978D01*
X26940Y238988D01*
X27083Y240071D01*
X26940Y241154D01*
X26522Y242164D01*
X25857Y243030D01*
X24990Y243695D01*
X23981Y244114D01*
X22898Y244256D01*
D02*
G37*
G36*
X199347Y238741D02*
X198623Y238645D01*
X197949Y238366D01*
X197370Y237922D01*
X196926Y237343D01*
X196646Y236669D01*
X196551Y235945D01*
X196646Y235222D01*
X196926Y234547D01*
X197370Y233968D01*
X197949Y233524D01*
X198623Y233245D01*
X199347Y233150D01*
X200070Y233245D01*
X200745Y233524D01*
X201324Y233968D01*
X201768Y234547D01*
X202047Y235222D01*
X202142Y235945D01*
X202047Y236669D01*
X201768Y237343D01*
X201324Y237922D01*
X200745Y238366D01*
X200070Y238645D01*
X199347Y238741D01*
D02*
G37*
G36*
X191473D02*
X190749Y238645D01*
X190075Y238366D01*
X189496Y237922D01*
X189052Y237343D01*
X188772Y236669D01*
X188677Y235945D01*
X188772Y235222D01*
X189052Y234547D01*
X189496Y233968D01*
X190075Y233524D01*
X190749Y233245D01*
X191473Y233150D01*
X192196Y233245D01*
X192870Y233524D01*
X193449Y233968D01*
X193894Y234547D01*
X194173Y235222D01*
X194268Y235945D01*
X194173Y236669D01*
X193894Y237343D01*
X193449Y237922D01*
X192870Y238366D01*
X192196Y238645D01*
X191473Y238741D01*
D02*
G37*
G36*
X183599D02*
X182875Y238645D01*
X182201Y238366D01*
X181622Y237922D01*
X181178Y237343D01*
X180898Y236669D01*
X180803Y235945D01*
X180898Y235222D01*
X181178Y234547D01*
X181622Y233968D01*
X182201Y233524D01*
X182875Y233245D01*
X183599Y233150D01*
X184322Y233245D01*
X184996Y233524D01*
X185575Y233968D01*
X186020Y234547D01*
X186299Y235222D01*
X186394Y235945D01*
X186299Y236669D01*
X186020Y237343D01*
X185575Y237922D01*
X184996Y238366D01*
X184322Y238645D01*
X183599Y238741D01*
D02*
G37*
G36*
X175725D02*
X175001Y238645D01*
X174327Y238366D01*
X173748Y237922D01*
X173304Y237343D01*
X173024Y236669D01*
X172929Y235945D01*
X173024Y235222D01*
X173304Y234547D01*
X173748Y233968D01*
X174327Y233524D01*
X175001Y233245D01*
X175725Y233150D01*
X176448Y233245D01*
X177122Y233524D01*
X177701Y233968D01*
X178146Y234547D01*
X178425Y235222D01*
X178520Y235945D01*
X178425Y236669D01*
X178146Y237343D01*
X177701Y237922D01*
X177122Y238366D01*
X176448Y238645D01*
X175725Y238741D01*
D02*
G37*
G36*
X167851D02*
X167127Y238645D01*
X166453Y238366D01*
X165874Y237922D01*
X165430Y237343D01*
X165150Y236669D01*
X165055Y235945D01*
X165150Y235222D01*
X165430Y234547D01*
X165874Y233968D01*
X166453Y233524D01*
X167127Y233245D01*
X167851Y233150D01*
X168574Y233245D01*
X169248Y233524D01*
X169827Y233968D01*
X170272Y234547D01*
X170551Y235222D01*
X170646Y235945D01*
X170551Y236669D01*
X170272Y237343D01*
X169827Y237922D01*
X169248Y238366D01*
X168574Y238645D01*
X167851Y238741D01*
D02*
G37*
G36*
X159977D02*
X159253Y238645D01*
X158579Y238366D01*
X158000Y237922D01*
X157556Y237343D01*
X157276Y236669D01*
X157181Y235945D01*
X157276Y235222D01*
X157556Y234547D01*
X158000Y233968D01*
X158579Y233524D01*
X159253Y233245D01*
X159977Y233150D01*
X160700Y233245D01*
X161374Y233524D01*
X161953Y233968D01*
X162398Y234547D01*
X162677Y235222D01*
X162772Y235945D01*
X162677Y236669D01*
X162398Y237343D01*
X161953Y237922D01*
X161374Y238366D01*
X160700Y238645D01*
X159977Y238741D01*
D02*
G37*
G36*
X152103D02*
X151379Y238645D01*
X150705Y238366D01*
X150126Y237922D01*
X149682Y237343D01*
X149402Y236669D01*
X149307Y235945D01*
X149402Y235222D01*
X149682Y234547D01*
X150126Y233968D01*
X150705Y233524D01*
X151379Y233245D01*
X152103Y233150D01*
X152826Y233245D01*
X153500Y233524D01*
X154079Y233968D01*
X154524Y234547D01*
X154803Y235222D01*
X154898Y235945D01*
X154803Y236669D01*
X154524Y237343D01*
X154079Y237922D01*
X153500Y238366D01*
X152826Y238645D01*
X152103Y238741D01*
D02*
G37*
G36*
X144229D02*
X143505Y238645D01*
X142831Y238366D01*
X142252Y237922D01*
X141807Y237343D01*
X141528Y236669D01*
X141433Y235945D01*
X141528Y235222D01*
X141807Y234547D01*
X142252Y233968D01*
X142831Y233524D01*
X143505Y233245D01*
X144229Y233150D01*
X144952Y233245D01*
X145626Y233524D01*
X146205Y233968D01*
X146650Y234547D01*
X146929Y235222D01*
X147024Y235945D01*
X146929Y236669D01*
X146650Y237343D01*
X146205Y237922D01*
X145626Y238366D01*
X144952Y238645D01*
X144229Y238741D01*
D02*
G37*
G36*
X89110D02*
X88387Y238645D01*
X87713Y238366D01*
X87134Y237922D01*
X86689Y237343D01*
X86410Y236669D01*
X86315Y235945D01*
X86410Y235222D01*
X86689Y234547D01*
X87134Y233968D01*
X87713Y233524D01*
X88387Y233245D01*
X89110Y233150D01*
X89834Y233245D01*
X90508Y233524D01*
X91087Y233968D01*
X91531Y234547D01*
X91811Y235222D01*
X91906Y235945D01*
X91811Y236669D01*
X91531Y237343D01*
X91087Y237922D01*
X90508Y238366D01*
X89834Y238645D01*
X89110Y238741D01*
D02*
G37*
G36*
X81236D02*
X80513Y238645D01*
X79839Y238366D01*
X79260Y237922D01*
X78815Y237343D01*
X78536Y236669D01*
X78441Y235945D01*
X78536Y235222D01*
X78815Y234547D01*
X79260Y233968D01*
X79839Y233524D01*
X80513Y233245D01*
X81236Y233150D01*
X81960Y233245D01*
X82634Y233524D01*
X83213Y233968D01*
X83657Y234547D01*
X83937Y235222D01*
X84032Y235945D01*
X83937Y236669D01*
X83657Y237343D01*
X83213Y237922D01*
X82634Y238366D01*
X81960Y238645D01*
X81236Y238741D01*
D02*
G37*
G36*
X73362D02*
X72639Y238645D01*
X71965Y238366D01*
X71386Y237922D01*
X70941Y237343D01*
X70662Y236669D01*
X70567Y235945D01*
X70662Y235222D01*
X70941Y234547D01*
X71386Y233968D01*
X71965Y233524D01*
X72639Y233245D01*
X73362Y233150D01*
X74086Y233245D01*
X74760Y233524D01*
X75339Y233968D01*
X75783Y234547D01*
X76063Y235222D01*
X76158Y235945D01*
X76063Y236669D01*
X75783Y237343D01*
X75339Y237922D01*
X74760Y238366D01*
X74086Y238645D01*
X73362Y238741D01*
D02*
G37*
G36*
X65488D02*
X64765Y238645D01*
X64091Y238366D01*
X63512Y237922D01*
X63067Y237343D01*
X62788Y236669D01*
X62693Y235945D01*
X62788Y235222D01*
X63067Y234547D01*
X63512Y233968D01*
X64091Y233524D01*
X64765Y233245D01*
X65488Y233150D01*
X66212Y233245D01*
X66886Y233524D01*
X67465Y233968D01*
X67909Y234547D01*
X68189Y235222D01*
X68284Y235945D01*
X68189Y236669D01*
X67909Y237343D01*
X67465Y237922D01*
X66886Y238366D01*
X66212Y238645D01*
X65488Y238741D01*
D02*
G37*
G36*
X57614D02*
X56891Y238645D01*
X56217Y238366D01*
X55638Y237922D01*
X55193Y237343D01*
X54914Y236669D01*
X54819Y235945D01*
X54914Y235222D01*
X55193Y234547D01*
X55638Y233968D01*
X56217Y233524D01*
X56891Y233245D01*
X57614Y233150D01*
X58338Y233245D01*
X59012Y233524D01*
X59591Y233968D01*
X60035Y234547D01*
X60315Y235222D01*
X60410Y235945D01*
X60315Y236669D01*
X60035Y237343D01*
X59591Y237922D01*
X59012Y238366D01*
X58338Y238645D01*
X57614Y238741D01*
D02*
G37*
G36*
X49740D02*
X49017Y238645D01*
X48342Y238366D01*
X47764Y237922D01*
X47319Y237343D01*
X47040Y236669D01*
X46945Y235945D01*
X47040Y235222D01*
X47319Y234547D01*
X47764Y233968D01*
X48342Y233524D01*
X49017Y233245D01*
X49740Y233150D01*
X50464Y233245D01*
X51138Y233524D01*
X51717Y233968D01*
X52161Y234547D01*
X52441Y235222D01*
X52536Y235945D01*
X52441Y236669D01*
X52161Y237343D01*
X51717Y237922D01*
X51138Y238366D01*
X50464Y238645D01*
X49740Y238741D01*
D02*
G37*
G36*
X131748Y236539D02*
X130897Y236369D01*
X130175Y235887D01*
X129693Y235166D01*
X129524Y234315D01*
X129693Y233464D01*
X130175Y232743D01*
X130897Y232260D01*
X131748Y232091D01*
X132599Y232260D01*
X133320Y232743D01*
X133803Y233464D01*
X133972Y234315D01*
X133803Y235166D01*
X133320Y235887D01*
X132599Y236369D01*
X131748Y236539D01*
D02*
G37*
G36*
X210362Y234256D02*
X209279Y234114D01*
X208270Y233696D01*
X207403Y233030D01*
X206737Y232164D01*
X206319Y231154D01*
X206177Y230071D01*
X206261Y229433D01*
X205774Y229303D01*
X205705Y229469D01*
X205260Y230048D01*
X204681Y230492D01*
X204007Y230771D01*
X203284Y230867D01*
X202560Y230771D01*
X201886Y230492D01*
X201307Y230048D01*
X200863Y229469D01*
X200583Y228795D01*
X200488Y228071D01*
X200583Y227348D01*
X200863Y226673D01*
X201307Y226094D01*
X201886Y225650D01*
X202560Y225371D01*
X203284Y225275D01*
X204007Y225371D01*
X204681Y225650D01*
X205260Y226094D01*
X205705Y226673D01*
X205984Y227348D01*
X206079Y228071D01*
X206043Y228349D01*
X206530Y228480D01*
X206737Y227978D01*
X207403Y227111D01*
X208270Y226446D01*
X209279Y226028D01*
X210362Y225885D01*
X211445Y226028D01*
X212455Y226446D01*
X213322Y227111D01*
X213987Y227978D01*
X214405Y228988D01*
X214548Y230071D01*
X214405Y231154D01*
X213987Y232164D01*
X213322Y233030D01*
X212455Y233696D01*
X211445Y234114D01*
X210362Y234256D01*
D02*
G37*
G36*
X22898D02*
X21814Y234114D01*
X20805Y233696D01*
X19938Y233030D01*
X19273Y232164D01*
X18855Y231154D01*
X18712Y230071D01*
X18855Y228988D01*
X19273Y227978D01*
X19938Y227111D01*
X20805Y226446D01*
X21814Y226028D01*
X22898Y225885D01*
X23981Y226028D01*
X24990Y226446D01*
X25857Y227111D01*
X26522Y227978D01*
X26940Y228988D01*
X27083Y230071D01*
X26940Y231154D01*
X26522Y232164D01*
X25857Y233030D01*
X24990Y233696D01*
X23981Y234114D01*
X22898Y234256D01*
D02*
G37*
G36*
X187536Y230867D02*
X186812Y230771D01*
X186138Y230492D01*
X185559Y230048D01*
X185115Y229469D01*
X184835Y228795D01*
X184740Y228071D01*
X184835Y227348D01*
X185115Y226673D01*
X185559Y226094D01*
X186138Y225650D01*
X186812Y225371D01*
X187536Y225275D01*
X188259Y225371D01*
X188934Y225650D01*
X189512Y226094D01*
X189957Y226673D01*
X190236Y227348D01*
X190331Y228071D01*
X190236Y228795D01*
X189957Y229469D01*
X189512Y230048D01*
X188934Y230492D01*
X188259Y230771D01*
X187536Y230867D01*
D02*
G37*
G36*
X140292D02*
X139568Y230771D01*
X138894Y230492D01*
X138315Y230048D01*
X137871Y229469D01*
X137591Y228795D01*
X137496Y228071D01*
X137591Y227348D01*
X137871Y226673D01*
X138315Y226094D01*
X138894Y225650D01*
X139568Y225371D01*
X140292Y225275D01*
X141015Y225371D01*
X141689Y225650D01*
X142268Y226094D01*
X142713Y226673D01*
X142992Y227348D01*
X143087Y228071D01*
X142992Y228795D01*
X142713Y229469D01*
X142268Y230048D01*
X141689Y230492D01*
X141015Y230771D01*
X140292Y230867D01*
D02*
G37*
G36*
X132418D02*
X131694Y230771D01*
X131020Y230492D01*
X130441Y230048D01*
X129997Y229469D01*
X129717Y228795D01*
X129622Y228071D01*
X129717Y227348D01*
X129997Y226673D01*
X130441Y226094D01*
X131020Y225650D01*
X131694Y225371D01*
X132418Y225275D01*
X133141Y225371D01*
X133815Y225650D01*
X134394Y226094D01*
X134839Y226673D01*
X135118Y227348D01*
X135213Y228071D01*
X135118Y228795D01*
X134839Y229469D01*
X134394Y230048D01*
X133815Y230492D01*
X133141Y230771D01*
X132418Y230867D01*
D02*
G37*
G36*
X124543D02*
X123820Y230771D01*
X123146Y230492D01*
X122567Y230048D01*
X122123Y229469D01*
X121843Y228795D01*
X121748Y228071D01*
X121843Y227348D01*
X122123Y226673D01*
X122567Y226094D01*
X123146Y225650D01*
X123820Y225371D01*
X124543Y225275D01*
X125267Y225371D01*
X125941Y225650D01*
X126520Y226094D01*
X126965Y226673D01*
X127244Y227348D01*
X127339Y228071D01*
X127244Y228795D01*
X126965Y229469D01*
X126520Y230048D01*
X125941Y230492D01*
X125267Y230771D01*
X124543Y230867D01*
D02*
G37*
G36*
X168835Y226263D02*
X167984Y226094D01*
X167262Y225612D01*
X166780Y224890D01*
X166611Y224039D01*
X166780Y223188D01*
X167262Y222467D01*
X167984Y221985D01*
X168835Y221815D01*
X169686Y221985D01*
X170407Y222467D01*
X170889Y223188D01*
X171058Y224039D01*
X170889Y224890D01*
X170407Y225612D01*
X169686Y226094D01*
X168835Y226263D01*
D02*
G37*
G36*
X132720Y222846D02*
X131869Y222677D01*
X131148Y222195D01*
X130666Y221473D01*
X130497Y220622D01*
X130666Y219771D01*
X131148Y219050D01*
X131869Y218567D01*
X132720Y218398D01*
X133572Y218567D01*
X134293Y219050D01*
X134775Y219771D01*
X134944Y220622D01*
X134775Y221473D01*
X134293Y222195D01*
X133572Y222677D01*
X132720Y222846D01*
D02*
G37*
G36*
X81236Y222993D02*
X80513Y222897D01*
X79839Y222618D01*
X79260Y222174D01*
X78815Y221595D01*
X78536Y220921D01*
X78441Y220197D01*
X78536Y219474D01*
X78815Y218799D01*
X79260Y218220D01*
X79839Y217776D01*
X80513Y217497D01*
X81236Y217402D01*
X81960Y217497D01*
X82634Y217776D01*
X83213Y218220D01*
X83657Y218799D01*
X83937Y219474D01*
X84032Y220197D01*
X83937Y220921D01*
X83657Y221595D01*
X83213Y222174D01*
X82634Y222618D01*
X81960Y222897D01*
X81236Y222993D01*
D02*
G37*
G36*
X73362D02*
X72639Y222897D01*
X71965Y222618D01*
X71386Y222174D01*
X70941Y221595D01*
X70662Y220921D01*
X70567Y220197D01*
X70662Y219474D01*
X70941Y218799D01*
X71386Y218220D01*
X71965Y217776D01*
X72639Y217497D01*
X73362Y217402D01*
X74086Y217497D01*
X74760Y217776D01*
X75339Y218220D01*
X75783Y218799D01*
X76063Y219474D01*
X76158Y220197D01*
X76063Y220921D01*
X75783Y221595D01*
X75339Y222174D01*
X74760Y222618D01*
X74086Y222897D01*
X73362Y222993D01*
D02*
G37*
G36*
X65488D02*
X64765Y222897D01*
X64091Y222618D01*
X63512Y222174D01*
X63067Y221595D01*
X62788Y220921D01*
X62693Y220197D01*
X62788Y219474D01*
X63067Y218799D01*
X63512Y218220D01*
X64091Y217776D01*
X64765Y217497D01*
X65488Y217402D01*
X66212Y217497D01*
X66886Y217776D01*
X67465Y218220D01*
X67909Y218799D01*
X68189Y219474D01*
X68284Y220197D01*
X68189Y220921D01*
X67909Y221595D01*
X67465Y222174D01*
X66886Y222618D01*
X66212Y222897D01*
X65488Y222993D01*
D02*
G37*
G36*
X57614D02*
X56891Y222897D01*
X56217Y222618D01*
X55638Y222174D01*
X55193Y221595D01*
X54914Y220921D01*
X54819Y220197D01*
X54914Y219474D01*
X55193Y218799D01*
X55638Y218220D01*
X56217Y217776D01*
X56891Y217497D01*
X57614Y217402D01*
X58338Y217497D01*
X59012Y217776D01*
X59591Y218220D01*
X60035Y218799D01*
X60315Y219474D01*
X60410Y220197D01*
X60315Y220921D01*
X60035Y221595D01*
X59591Y222174D01*
X59012Y222618D01*
X58338Y222897D01*
X57614Y222993D01*
D02*
G37*
G36*
X210362Y224256D02*
X209279Y224114D01*
X208270Y223695D01*
X207403Y223030D01*
X206737Y222164D01*
X206319Y221154D01*
X206177Y220071D01*
X206319Y218988D01*
X206737Y217978D01*
X207403Y217111D01*
X208270Y216446D01*
X209279Y216028D01*
X210362Y215885D01*
X211445Y216028D01*
X212455Y216446D01*
X213322Y217111D01*
X213987Y217978D01*
X214405Y218988D01*
X214548Y220071D01*
X214405Y221154D01*
X213987Y222164D01*
X213322Y223030D01*
X212455Y223695D01*
X211445Y224114D01*
X210362Y224256D01*
D02*
G37*
G36*
X22898D02*
X21814Y224114D01*
X20805Y223695D01*
X19938Y223030D01*
X19273Y222164D01*
X18855Y221154D01*
X18712Y220071D01*
X18855Y218988D01*
X19273Y217978D01*
X19938Y217111D01*
X20805Y216446D01*
X21814Y216028D01*
X22898Y215885D01*
X23981Y216028D01*
X24990Y216446D01*
X25857Y217111D01*
X26522Y217978D01*
X26940Y218988D01*
X27083Y220071D01*
X26940Y221154D01*
X26522Y222164D01*
X25857Y223030D01*
X24990Y223695D01*
X23981Y224114D01*
X22898Y224256D01*
D02*
G37*
G36*
X85173Y215119D02*
X84450Y215023D01*
X83776Y214744D01*
X83197Y214300D01*
X82752Y213721D01*
X82473Y213047D01*
X82378Y212323D01*
X82473Y211599D01*
X82752Y210925D01*
X83197Y210346D01*
X83776Y209902D01*
X84450Y209623D01*
X85173Y209527D01*
X85897Y209623D01*
X86571Y209902D01*
X87150Y210346D01*
X87594Y210925D01*
X87874Y211599D01*
X87969Y212323D01*
X87874Y213047D01*
X87594Y213721D01*
X87150Y214300D01*
X86571Y214744D01*
X85897Y215023D01*
X85173Y215119D01*
D02*
G37*
G36*
X109106Y210854D02*
X108255Y210684D01*
X107534Y210202D01*
X107052Y209481D01*
X106883Y208630D01*
X107052Y207779D01*
X107534Y207057D01*
X108255Y206575D01*
X109106Y206406D01*
X109957Y206575D01*
X110679Y207057D01*
X111161Y207779D01*
X111330Y208630D01*
X111161Y209481D01*
X110679Y210202D01*
X109957Y210684D01*
X109106Y210854D01*
D02*
G37*
G36*
X22898Y214256D02*
X21814Y214114D01*
X20805Y213696D01*
X19938Y213030D01*
X19273Y212164D01*
X18855Y211154D01*
X18712Y210071D01*
X18855Y208988D01*
X19273Y207978D01*
X19938Y207111D01*
X20805Y206446D01*
X21814Y206028D01*
X22898Y205885D01*
X23981Y206028D01*
X24990Y206446D01*
X25857Y207111D01*
X26522Y207978D01*
X26940Y208988D01*
X27083Y210071D01*
X26940Y211154D01*
X26522Y212164D01*
X25857Y213030D01*
X24990Y213696D01*
X23981Y214114D01*
X22898Y214256D01*
D02*
G37*
G36*
X29835Y207101D02*
Y205476D01*
X31459D01*
X31389Y205827D01*
X30907Y206549D01*
X30186Y207031D01*
X29835Y207101D01*
D02*
G37*
G36*
X28835D02*
X28484Y207031D01*
X27762Y206549D01*
X27280Y205827D01*
X27210Y205476D01*
X28835D01*
Y207101D01*
D02*
G37*
G36*
X31459Y204476D02*
X29835D01*
Y202852D01*
X30186Y202922D01*
X30907Y203404D01*
X31389Y204125D01*
X31459Y204476D01*
D02*
G37*
G36*
X28835D02*
X27210D01*
X27280Y204125D01*
X27762Y203404D01*
X28484Y202922D01*
X28835Y202852D01*
Y204476D01*
D02*
G37*
G36*
X89110Y207245D02*
X88387Y207149D01*
X87713Y206870D01*
X87134Y206426D01*
X86689Y205847D01*
X86410Y205173D01*
X86315Y204449D01*
X86410Y203726D01*
X86689Y203051D01*
X87134Y202472D01*
X87713Y202028D01*
X88387Y201749D01*
X89110Y201654D01*
X89834Y201749D01*
X90508Y202028D01*
X91087Y202472D01*
X91531Y203051D01*
X91811Y203726D01*
X91906Y204449D01*
X91811Y205173D01*
X91531Y205847D01*
X91087Y206426D01*
X90508Y206870D01*
X89834Y207149D01*
X89110Y207245D01*
D02*
G37*
G36*
X65488D02*
X64765Y207149D01*
X64091Y206870D01*
X63512Y206426D01*
X63067Y205847D01*
X62788Y205173D01*
X62693Y204449D01*
X62788Y203726D01*
X63067Y203051D01*
X63512Y202472D01*
X64091Y202028D01*
X64765Y201749D01*
X65488Y201654D01*
X66212Y201749D01*
X66886Y202028D01*
X67465Y202472D01*
X67909Y203051D01*
X68189Y203726D01*
X68284Y204449D01*
X68189Y205173D01*
X67909Y205847D01*
X67465Y206426D01*
X66886Y206870D01*
X66212Y207149D01*
X65488Y207245D01*
D02*
G37*
G36*
X57614D02*
X56891Y207149D01*
X56217Y206870D01*
X55638Y206426D01*
X55193Y205847D01*
X54914Y205173D01*
X54819Y204449D01*
X54914Y203726D01*
X55193Y203051D01*
X55638Y202472D01*
X56217Y202028D01*
X56891Y201749D01*
X57614Y201654D01*
X58338Y201749D01*
X59012Y202028D01*
X59591Y202472D01*
X60035Y203051D01*
X60315Y203726D01*
X60410Y204449D01*
X60315Y205173D01*
X60035Y205847D01*
X59591Y206426D01*
X59012Y206870D01*
X58338Y207149D01*
X57614Y207245D01*
D02*
G37*
G36*
X22898Y204256D02*
X21814Y204114D01*
X20805Y203696D01*
X19938Y203030D01*
X19273Y202164D01*
X18855Y201154D01*
X18712Y200071D01*
X18855Y198988D01*
X19273Y197978D01*
X19938Y197111D01*
X20805Y196446D01*
X21814Y196028D01*
X22898Y195885D01*
X23981Y196028D01*
X24990Y196446D01*
X25857Y197111D01*
X26522Y197978D01*
X26940Y198988D01*
X27083Y200071D01*
X26940Y201154D01*
X26522Y202164D01*
X25857Y203030D01*
X24990Y203696D01*
X23981Y204114D01*
X22898Y204256D01*
D02*
G37*
G36*
X203284Y199371D02*
X202560Y199275D01*
X201886Y198996D01*
X201307Y198552D01*
X200863Y197973D01*
X200583Y197299D01*
X200488Y196575D01*
X200583Y195852D01*
X200863Y195177D01*
X201307Y194598D01*
X201886Y194154D01*
X202560Y193875D01*
X203284Y193780D01*
X204007Y193875D01*
X204681Y194154D01*
X205260Y194598D01*
X205705Y195177D01*
X205984Y195852D01*
X206079Y196575D01*
X205984Y197299D01*
X205705Y197973D01*
X205260Y198552D01*
X204681Y198996D01*
X204007Y199275D01*
X203284Y199371D01*
D02*
G37*
G36*
X104937Y202098D02*
X104086Y201929D01*
X103365Y201447D01*
X102883Y200725D01*
X102713Y199874D01*
X102883Y199023D01*
X103365Y198301D01*
X104086Y197819D01*
X104937Y197650D01*
X105768Y197816D01*
X105854Y197758D01*
X106167Y197471D01*
X106095Y197299D01*
X106000Y196575D01*
X106095Y195852D01*
X106375Y195177D01*
X106819Y194598D01*
X107398Y194154D01*
X108072Y193875D01*
X108795Y193780D01*
X109519Y193875D01*
X110193Y194154D01*
X110772Y194598D01*
X111216Y195177D01*
X111496Y195852D01*
X111591Y196575D01*
X111496Y197299D01*
X111216Y197973D01*
X110772Y198552D01*
X110193Y198996D01*
X109519Y199275D01*
X108795Y199371D01*
X108072Y199275D01*
X107505Y199040D01*
X107203Y199210D01*
X107060Y199367D01*
X107161Y199874D01*
X106992Y200725D01*
X106509Y201447D01*
X105788Y201929D01*
X104937Y202098D01*
D02*
G37*
G36*
X93047Y199371D02*
X92324Y199275D01*
X91650Y198996D01*
X91071Y198552D01*
X90626Y197973D01*
X90347Y197299D01*
X90252Y196575D01*
X90347Y195852D01*
X90626Y195177D01*
X91071Y194598D01*
X91650Y194154D01*
X92324Y193875D01*
X93047Y193780D01*
X93771Y193875D01*
X94445Y194154D01*
X95024Y194598D01*
X95468Y195177D01*
X95748Y195852D01*
X95843Y196575D01*
X95748Y197299D01*
X95468Y197973D01*
X95024Y198552D01*
X94445Y198996D01*
X93771Y199275D01*
X93047Y199371D01*
D02*
G37*
G36*
X61551D02*
X60828Y199275D01*
X60154Y198996D01*
X59575Y198552D01*
X59130Y197973D01*
X58851Y197299D01*
X58756Y196575D01*
X58851Y195852D01*
X59130Y195177D01*
X59575Y194598D01*
X60154Y194154D01*
X60828Y193875D01*
X61551Y193780D01*
X62275Y193875D01*
X62949Y194154D01*
X63528Y194598D01*
X63972Y195177D01*
X64252Y195852D01*
X64347Y196575D01*
X64252Y197299D01*
X63972Y197973D01*
X63528Y198552D01*
X62949Y198996D01*
X62275Y199275D01*
X61551Y199371D01*
D02*
G37*
G36*
X30055D02*
X29332Y199275D01*
X28657Y198996D01*
X28078Y198552D01*
X27634Y197973D01*
X27355Y197299D01*
X27260Y196575D01*
X27355Y195852D01*
X27634Y195177D01*
X28078Y194598D01*
X28657Y194154D01*
X29332Y193875D01*
X30055Y193780D01*
X30779Y193875D01*
X31453Y194154D01*
X32032Y194598D01*
X32476Y195177D01*
X32756Y195852D01*
X32851Y196575D01*
X32756Y197299D01*
X32476Y197973D01*
X32032Y198552D01*
X31453Y198996D01*
X30779Y199275D01*
X30055Y199371D01*
D02*
G37*
G36*
X135709Y191480D02*
X134858Y191311D01*
X134136Y190828D01*
X133654Y190107D01*
X133485Y189256D01*
X133654Y188405D01*
X134136Y187683D01*
X134858Y187201D01*
X135709Y187032D01*
X136560Y187201D01*
X137281Y187683D01*
X137763Y188405D01*
X137933Y189256D01*
X137763Y190107D01*
X137281Y190828D01*
X136560Y191311D01*
X135709Y191480D01*
D02*
G37*
G36*
X210362Y194105D02*
X209318Y193968D01*
X208345Y193565D01*
X207509Y192924D01*
X206868Y192088D01*
X206465Y191115D01*
X206328Y190071D01*
X206465Y189027D01*
X206868Y188054D01*
X207509Y187218D01*
X208345Y186577D01*
X209318Y186174D01*
X210362Y186036D01*
X211406Y186174D01*
X212380Y186577D01*
X213215Y187218D01*
X213856Y188054D01*
X214259Y189027D01*
X214397Y190071D01*
X214259Y191115D01*
X213856Y192088D01*
X213215Y192924D01*
X212380Y193565D01*
X211406Y193968D01*
X210362Y194105D01*
D02*
G37*
G36*
X22898D02*
X21853Y193968D01*
X20880Y193565D01*
X20045Y192924D01*
X19404Y192088D01*
X19001Y191115D01*
X18863Y190071D01*
X19001Y189027D01*
X19404Y188054D01*
X20045Y187218D01*
X20880Y186577D01*
X21853Y186174D01*
X22898Y186036D01*
X23942Y186174D01*
X24915Y186577D01*
X25750Y187218D01*
X26392Y188054D01*
X26795Y189027D01*
X26932Y190071D01*
X26795Y191115D01*
X26392Y192088D01*
X25750Y192924D01*
X24915Y193565D01*
X23942Y193968D01*
X22898Y194105D01*
D02*
G37*
G36*
X152103Y191497D02*
X151379Y191401D01*
X150705Y191122D01*
X150126Y190678D01*
X149682Y190099D01*
X149402Y189425D01*
X149307Y188701D01*
X149402Y187978D01*
X149682Y187303D01*
X150126Y186724D01*
X150705Y186280D01*
X151379Y186001D01*
X152103Y185905D01*
X152826Y186001D01*
X153500Y186280D01*
X154079Y186724D01*
X154524Y187303D01*
X154803Y187978D01*
X154898Y188701D01*
X154803Y189425D01*
X154524Y190099D01*
X154079Y190678D01*
X153500Y191122D01*
X152826Y191401D01*
X152103Y191497D01*
D02*
G37*
G36*
X89110D02*
X88387Y191401D01*
X87713Y191122D01*
X87134Y190678D01*
X86689Y190099D01*
X86410Y189425D01*
X86315Y188701D01*
X86410Y187978D01*
X86689Y187303D01*
X87134Y186724D01*
X87713Y186280D01*
X88387Y186001D01*
X89110Y185905D01*
X89834Y186001D01*
X90508Y186280D01*
X91087Y186724D01*
X91531Y187303D01*
X91811Y187978D01*
X91906Y188701D01*
X91811Y189425D01*
X91531Y190099D01*
X91087Y190678D01*
X90508Y191122D01*
X89834Y191401D01*
X89110Y191497D01*
D02*
G37*
G36*
X65488D02*
X64765Y191401D01*
X64091Y191122D01*
X63512Y190678D01*
X63067Y190099D01*
X62788Y189425D01*
X62693Y188701D01*
X62788Y187978D01*
X63067Y187303D01*
X63512Y186724D01*
X64091Y186280D01*
X64765Y186001D01*
X65488Y185905D01*
X66212Y186001D01*
X66886Y186280D01*
X67465Y186724D01*
X67909Y187303D01*
X68189Y187978D01*
X68284Y188701D01*
X68189Y189425D01*
X67909Y190099D01*
X67465Y190678D01*
X66886Y191122D01*
X66212Y191401D01*
X65488Y191497D01*
D02*
G37*
G36*
X57614D02*
X56891Y191401D01*
X56217Y191122D01*
X55638Y190678D01*
X55193Y190099D01*
X54914Y189425D01*
X54819Y188701D01*
X54914Y187978D01*
X55193Y187303D01*
X55638Y186724D01*
X56217Y186280D01*
X56891Y186001D01*
X57614Y185905D01*
X58338Y186001D01*
X59012Y186280D01*
X59591Y186724D01*
X60035Y187303D01*
X60315Y187978D01*
X60410Y188701D01*
X60315Y189425D01*
X60035Y190099D01*
X59591Y190678D01*
X59012Y191122D01*
X58338Y191401D01*
X57614Y191497D01*
D02*
G37*
G36*
X165861Y189825D02*
X165010Y189656D01*
X164289Y189174D01*
X163807Y188452D01*
X163637Y187601D01*
X163807Y186750D01*
X164289Y186029D01*
X165010Y185547D01*
X165861Y185378D01*
X166712Y185547D01*
X167434Y186029D01*
X167916Y186750D01*
X168085Y187601D01*
X167916Y188452D01*
X167434Y189174D01*
X166712Y189656D01*
X165861Y189825D01*
D02*
G37*
G36*
X127421Y187055D02*
X126570Y186885D01*
X125849Y186403D01*
X125367Y185682D01*
X125197Y184831D01*
X125367Y183980D01*
X125849Y183258D01*
X126570Y182776D01*
X127421Y182607D01*
X128272Y182776D01*
X128994Y183258D01*
X129476Y183980D01*
X129645Y184831D01*
X129476Y185682D01*
X128994Y186403D01*
X128272Y186885D01*
X127421Y187055D01*
D02*
G37*
G36*
X194024Y184551D02*
X193173Y184381D01*
X192451Y183899D01*
X191969Y183178D01*
X191800Y182327D01*
X191969Y181476D01*
X192451Y180754D01*
X193173Y180272D01*
X194024Y180103D01*
X194875Y180272D01*
X195596Y180754D01*
X196078Y181476D01*
X196247Y182327D01*
X196078Y183178D01*
X195596Y183899D01*
X194875Y184381D01*
X194024Y184551D01*
D02*
G37*
G36*
X93047Y183623D02*
X92324Y183527D01*
X91650Y183248D01*
X91071Y182804D01*
X90626Y182225D01*
X90347Y181551D01*
X90252Y180827D01*
X90347Y180103D01*
X90626Y179429D01*
X91071Y178850D01*
X91650Y178406D01*
X92324Y178127D01*
X93047Y178031D01*
X93771Y178127D01*
X94445Y178406D01*
X95024Y178850D01*
X95468Y179429D01*
X95748Y180103D01*
X95843Y180827D01*
X95748Y181551D01*
X95468Y182225D01*
X95024Y182804D01*
X94445Y183248D01*
X93771Y183527D01*
X93047Y183623D01*
D02*
G37*
G36*
X85173D02*
X84450Y183527D01*
X83776Y183248D01*
X83197Y182804D01*
X82752Y182225D01*
X82473Y181551D01*
X82378Y180827D01*
X82473Y180103D01*
X82752Y179429D01*
X83197Y178850D01*
X83776Y178406D01*
X84450Y178127D01*
X85173Y178031D01*
X85897Y178127D01*
X86571Y178406D01*
X87150Y178850D01*
X87594Y179429D01*
X87874Y180103D01*
X87969Y180827D01*
X87874Y181551D01*
X87594Y182225D01*
X87150Y182804D01*
X86571Y183248D01*
X85897Y183527D01*
X85173Y183623D01*
D02*
G37*
G36*
X77299D02*
X76576Y183527D01*
X75902Y183248D01*
X75323Y182804D01*
X74878Y182225D01*
X74599Y181551D01*
X74504Y180827D01*
X74599Y180103D01*
X74878Y179429D01*
X75323Y178850D01*
X75902Y178406D01*
X76576Y178127D01*
X77299Y178031D01*
X78023Y178127D01*
X78697Y178406D01*
X79276Y178850D01*
X79720Y179429D01*
X80000Y180103D01*
X80095Y180827D01*
X80000Y181551D01*
X79720Y182225D01*
X79276Y182804D01*
X78697Y183248D01*
X78023Y183527D01*
X77299Y183623D01*
D02*
G37*
G36*
X69425D02*
X68702Y183527D01*
X68028Y183248D01*
X67449Y182804D01*
X67004Y182225D01*
X66725Y181551D01*
X66630Y180827D01*
X66725Y180103D01*
X67004Y179429D01*
X67449Y178850D01*
X68028Y178406D01*
X68702Y178127D01*
X69425Y178031D01*
X70149Y178127D01*
X70823Y178406D01*
X71402Y178850D01*
X71846Y179429D01*
X72126Y180103D01*
X72221Y180827D01*
X72126Y181551D01*
X71846Y182225D01*
X71402Y182804D01*
X70823Y183248D01*
X70149Y183527D01*
X69425Y183623D01*
D02*
G37*
G36*
X61551D02*
X60828Y183527D01*
X60154Y183248D01*
X59575Y182804D01*
X59130Y182225D01*
X58851Y181551D01*
X58756Y180827D01*
X58851Y180103D01*
X59130Y179429D01*
X59575Y178850D01*
X60154Y178406D01*
X60828Y178127D01*
X61551Y178031D01*
X62275Y178127D01*
X62949Y178406D01*
X63528Y178850D01*
X63972Y179429D01*
X64252Y180103D01*
X64347Y180827D01*
X64252Y181551D01*
X63972Y182225D01*
X63528Y182804D01*
X62949Y183248D01*
X62275Y183527D01*
X61551Y183623D01*
D02*
G37*
G36*
X210362Y184105D02*
X209318Y183968D01*
X208345Y183565D01*
X207509Y182924D01*
X206868Y182088D01*
X206465Y181115D01*
X206328Y180071D01*
X206465Y179027D01*
X206868Y178054D01*
X207509Y177218D01*
X208345Y176577D01*
X209318Y176174D01*
X210362Y176036D01*
X211406Y176174D01*
X212380Y176577D01*
X213215Y177218D01*
X213856Y178054D01*
X214259Y179027D01*
X214397Y180071D01*
X214259Y181115D01*
X213856Y182088D01*
X213215Y182924D01*
X212380Y183565D01*
X211406Y183968D01*
X210362Y184105D01*
D02*
G37*
G36*
X22898D02*
X21853Y183968D01*
X20880Y183565D01*
X20045Y182924D01*
X19404Y182088D01*
X19001Y181115D01*
X18863Y180071D01*
X19001Y179027D01*
X19404Y178054D01*
X20045Y177218D01*
X20880Y176577D01*
X21853Y176174D01*
X22898Y176036D01*
X23942Y176174D01*
X24915Y176577D01*
X25750Y177218D01*
X26392Y178054D01*
X26795Y179027D01*
X26932Y180071D01*
X26795Y181115D01*
X26392Y182088D01*
X25750Y182924D01*
X24915Y183565D01*
X23942Y183968D01*
X22898Y184105D01*
D02*
G37*
G36*
X123268Y178342D02*
X122417Y178173D01*
X121695Y177691D01*
X121213Y176969D01*
X121044Y176118D01*
X121213Y175267D01*
X121695Y174546D01*
X122417Y174064D01*
X123268Y173894D01*
X124119Y174064D01*
X124840Y174546D01*
X125322Y175267D01*
X125492Y176118D01*
X125322Y176969D01*
X124840Y177691D01*
X124119Y178173D01*
X123268Y178342D01*
D02*
G37*
G36*
X167059Y175235D02*
Y173610D01*
X168683D01*
X168614Y173961D01*
X168131Y174683D01*
X167410Y175165D01*
X167059Y175235D01*
D02*
G37*
G36*
X166059D02*
X165708Y175165D01*
X164987Y174683D01*
X164505Y173961D01*
X164435Y173610D01*
X166059D01*
Y175235D01*
D02*
G37*
G36*
X168683Y172610D02*
X167059D01*
Y170986D01*
X167410Y171056D01*
X168131Y171538D01*
X168614Y172259D01*
X168683Y172610D01*
D02*
G37*
G36*
X166059D02*
X164435D01*
X164505Y172259D01*
X164987Y171538D01*
X165708Y171056D01*
X166059Y170986D01*
Y172610D01*
D02*
G37*
G36*
X199347Y175749D02*
X198623Y175653D01*
X197949Y175374D01*
X197370Y174930D01*
X196926Y174351D01*
X196646Y173677D01*
X196551Y172953D01*
X196646Y172229D01*
X196926Y171555D01*
X197370Y170976D01*
X197949Y170532D01*
X198623Y170253D01*
X199347Y170157D01*
X200070Y170253D01*
X200745Y170532D01*
X201324Y170976D01*
X201768Y171555D01*
X202047Y172229D01*
X202142Y172953D01*
X202047Y173677D01*
X201768Y174351D01*
X201324Y174930D01*
X200745Y175374D01*
X200070Y175653D01*
X199347Y175749D01*
D02*
G37*
G36*
X104859D02*
X104135Y175653D01*
X103461Y175374D01*
X102882Y174930D01*
X102437Y174351D01*
X102158Y173677D01*
X102063Y172953D01*
X102158Y172229D01*
X102437Y171555D01*
X102882Y170976D01*
X103461Y170532D01*
X104135Y170253D01*
X104859Y170157D01*
X105582Y170253D01*
X106256Y170532D01*
X106835Y170976D01*
X107280Y171555D01*
X107559Y172229D01*
X107654Y172953D01*
X107559Y173677D01*
X107280Y174351D01*
X106835Y174930D01*
X106256Y175374D01*
X105582Y175653D01*
X104859Y175749D01*
D02*
G37*
G36*
X96984D02*
X96261Y175653D01*
X95587Y175374D01*
X95008Y174930D01*
X94563Y174351D01*
X94284Y173677D01*
X94189Y172953D01*
X94284Y172229D01*
X94563Y171555D01*
X95008Y170976D01*
X95587Y170532D01*
X96261Y170253D01*
X96984Y170157D01*
X97708Y170253D01*
X98382Y170532D01*
X98961Y170976D01*
X99405Y171555D01*
X99685Y172229D01*
X99780Y172953D01*
X99685Y173677D01*
X99405Y174351D01*
X98961Y174930D01*
X98382Y175374D01*
X97708Y175653D01*
X96984Y175749D01*
D02*
G37*
G36*
X89110D02*
X88387Y175653D01*
X87713Y175374D01*
X87134Y174930D01*
X86689Y174351D01*
X86410Y173677D01*
X86315Y172953D01*
X86410Y172229D01*
X86689Y171555D01*
X87134Y170976D01*
X87713Y170532D01*
X88387Y170253D01*
X89110Y170157D01*
X89834Y170253D01*
X90508Y170532D01*
X91087Y170976D01*
X91531Y171555D01*
X91811Y172229D01*
X91906Y172953D01*
X91811Y173677D01*
X91531Y174351D01*
X91087Y174930D01*
X90508Y175374D01*
X89834Y175653D01*
X89110Y175749D01*
D02*
G37*
G36*
X81236D02*
X80513Y175653D01*
X79839Y175374D01*
X79260Y174930D01*
X78815Y174351D01*
X78536Y173677D01*
X78441Y172953D01*
X78536Y172229D01*
X78815Y171555D01*
X79260Y170976D01*
X79839Y170532D01*
X80513Y170253D01*
X81236Y170157D01*
X81960Y170253D01*
X82634Y170532D01*
X83213Y170976D01*
X83657Y171555D01*
X83937Y172229D01*
X84032Y172953D01*
X83937Y173677D01*
X83657Y174351D01*
X83213Y174930D01*
X82634Y175374D01*
X81960Y175653D01*
X81236Y175749D01*
D02*
G37*
G36*
X73362D02*
X72639Y175653D01*
X71965Y175374D01*
X71386Y174930D01*
X70941Y174351D01*
X70662Y173677D01*
X70567Y172953D01*
X70662Y172229D01*
X70941Y171555D01*
X71386Y170976D01*
X71965Y170532D01*
X72639Y170253D01*
X73362Y170157D01*
X74086Y170253D01*
X74760Y170532D01*
X75339Y170976D01*
X75783Y171555D01*
X76063Y172229D01*
X76158Y172953D01*
X76063Y173677D01*
X75783Y174351D01*
X75339Y174930D01*
X74760Y175374D01*
X74086Y175653D01*
X73362Y175749D01*
D02*
G37*
G36*
X65488D02*
X64765Y175653D01*
X64091Y175374D01*
X63512Y174930D01*
X63067Y174351D01*
X62788Y173677D01*
X62693Y172953D01*
X62788Y172229D01*
X63067Y171555D01*
X63512Y170976D01*
X64091Y170532D01*
X64765Y170253D01*
X65488Y170157D01*
X66212Y170253D01*
X66886Y170532D01*
X67465Y170976D01*
X67909Y171555D01*
X68189Y172229D01*
X68284Y172953D01*
X68189Y173677D01*
X67909Y174351D01*
X67465Y174930D01*
X66886Y175374D01*
X66212Y175653D01*
X65488Y175749D01*
D02*
G37*
G36*
X57614D02*
X56891Y175653D01*
X56217Y175374D01*
X55638Y174930D01*
X55193Y174351D01*
X54914Y173677D01*
X54819Y172953D01*
X54914Y172229D01*
X55193Y171555D01*
X55638Y170976D01*
X56217Y170532D01*
X56891Y170253D01*
X57614Y170157D01*
X58338Y170253D01*
X59012Y170532D01*
X59591Y170976D01*
X60035Y171555D01*
X60315Y172229D01*
X60410Y172953D01*
X60315Y173677D01*
X60035Y174351D01*
X59591Y174930D01*
X59012Y175374D01*
X58338Y175653D01*
X57614Y175749D01*
D02*
G37*
G36*
X123413Y172519D02*
X122562Y172350D01*
X121841Y171868D01*
X121359Y171146D01*
X121190Y170295D01*
X121359Y169444D01*
X121841Y168723D01*
X122562Y168241D01*
X123413Y168071D01*
X124264Y168241D01*
X124986Y168723D01*
X125468Y169444D01*
X125637Y170295D01*
X125468Y171146D01*
X124986Y171868D01*
X124264Y172350D01*
X123413Y172519D01*
D02*
G37*
G36*
X144713Y171637D02*
X143862Y171468D01*
X143140Y170986D01*
X142658Y170264D01*
X142489Y169413D01*
X142658Y168562D01*
X143140Y167841D01*
X143862Y167359D01*
X144713Y167190D01*
X145564Y167359D01*
X146285Y167841D01*
X146767Y168562D01*
X146936Y169413D01*
X146767Y170264D01*
X146285Y170986D01*
X145564Y171468D01*
X144713Y171637D01*
D02*
G37*
G36*
X210362Y174105D02*
X209318Y173968D01*
X208345Y173565D01*
X207509Y172924D01*
X206868Y172088D01*
X206465Y171115D01*
X206328Y170071D01*
X206465Y169027D01*
X206868Y168054D01*
X207509Y167218D01*
X208345Y166577D01*
X209318Y166174D01*
X210362Y166036D01*
X211406Y166174D01*
X212380Y166577D01*
X213215Y167218D01*
X213856Y168054D01*
X214259Y169027D01*
X214397Y170071D01*
X214259Y171115D01*
X213856Y172088D01*
X213215Y172924D01*
X212380Y173565D01*
X211406Y173968D01*
X210362Y174105D01*
D02*
G37*
G36*
X22898D02*
X21853Y173968D01*
X20880Y173565D01*
X20045Y172924D01*
X19404Y172088D01*
X19001Y171115D01*
X18863Y170071D01*
X19001Y169027D01*
X19404Y168054D01*
X20045Y167218D01*
X20880Y166577D01*
X21853Y166174D01*
X22898Y166036D01*
X23942Y166174D01*
X24915Y166577D01*
X25750Y167218D01*
X26392Y168054D01*
X26795Y169027D01*
X26932Y170071D01*
X26795Y171115D01*
X26392Y172088D01*
X25750Y172924D01*
X24915Y173565D01*
X23942Y173968D01*
X22898Y174105D01*
D02*
G37*
G36*
X70780Y168031D02*
X69928Y167862D01*
X69207Y167380D01*
X68725Y166658D01*
X68556Y165807D01*
X68725Y164956D01*
X69207Y164235D01*
X69928Y163752D01*
X70780Y163583D01*
X71631Y163752D01*
X72352Y164235D01*
X72834Y164956D01*
X73003Y165807D01*
X72834Y166658D01*
X72352Y167380D01*
X71631Y167862D01*
X70780Y168031D01*
D02*
G37*
G36*
X203284Y167875D02*
X202560Y167779D01*
X201886Y167500D01*
X201307Y167056D01*
X200863Y166477D01*
X200583Y165803D01*
X200488Y165079D01*
X200583Y164355D01*
X200863Y163681D01*
X201307Y163102D01*
X201886Y162658D01*
X202560Y162379D01*
X203284Y162283D01*
X204007Y162379D01*
X204681Y162658D01*
X205260Y163102D01*
X205705Y163681D01*
X205984Y164355D01*
X206079Y165079D01*
X205984Y165803D01*
X205705Y166477D01*
X205260Y167056D01*
X204681Y167500D01*
X204007Y167779D01*
X203284Y167875D01*
D02*
G37*
G36*
X61551D02*
X60828Y167779D01*
X60154Y167500D01*
X59575Y167056D01*
X59130Y166477D01*
X58851Y165803D01*
X58756Y165079D01*
X58851Y164355D01*
X59130Y163681D01*
X59575Y163102D01*
X60154Y162658D01*
X60828Y162379D01*
X61551Y162283D01*
X62275Y162379D01*
X62949Y162658D01*
X63528Y163102D01*
X63972Y163681D01*
X64252Y164355D01*
X64347Y165079D01*
X64252Y165803D01*
X63972Y166477D01*
X63528Y167056D01*
X62949Y167500D01*
X62275Y167779D01*
X61551Y167875D01*
D02*
G37*
G36*
X172554Y163483D02*
X171703Y163313D01*
X170982Y162831D01*
X170500Y162110D01*
X170330Y161259D01*
X170500Y160408D01*
X170982Y159686D01*
X171703Y159204D01*
X172554Y159035D01*
X173405Y159204D01*
X174127Y159686D01*
X174609Y160408D01*
X174778Y161259D01*
X174609Y162110D01*
X174127Y162831D01*
X173405Y163313D01*
X172554Y163483D01*
D02*
G37*
G36*
X125819Y162696D02*
X124968Y162527D01*
X124246Y162045D01*
X123764Y161323D01*
X123595Y160472D01*
X123764Y159621D01*
X124246Y158900D01*
X124968Y158418D01*
X125819Y158249D01*
X126670Y158418D01*
X127391Y158900D01*
X127874Y159621D01*
X128043Y160472D01*
X127874Y161323D01*
X127391Y162045D01*
X126670Y162527D01*
X125819Y162696D01*
D02*
G37*
G36*
X127457Y157853D02*
Y156228D01*
X129081D01*
X129011Y156579D01*
X128529Y157301D01*
X127808Y157783D01*
X127457Y157853D01*
D02*
G37*
G36*
X126457D02*
X126106Y157783D01*
X125384Y157301D01*
X124902Y156579D01*
X124832Y156228D01*
X126457D01*
Y157853D01*
D02*
G37*
G36*
X210362Y164105D02*
X209318Y163968D01*
X208345Y163565D01*
X207509Y162924D01*
X206868Y162088D01*
X206465Y161115D01*
X206328Y160071D01*
X206465Y159027D01*
X206868Y158054D01*
X207509Y157218D01*
X208345Y156577D01*
X209318Y156174D01*
X210362Y156036D01*
X211406Y156174D01*
X212380Y156577D01*
X213215Y157218D01*
X213856Y158054D01*
X214259Y159027D01*
X214397Y160071D01*
X214259Y161115D01*
X213856Y162088D01*
X213215Y162924D01*
X212380Y163565D01*
X211406Y163968D01*
X210362Y164105D01*
D02*
G37*
G36*
X22898D02*
X21853Y163968D01*
X20880Y163565D01*
X20045Y162924D01*
X19404Y162088D01*
X19001Y161115D01*
X18863Y160071D01*
X19001Y159027D01*
X19404Y158054D01*
X20045Y157218D01*
X20880Y156577D01*
X21853Y156174D01*
X22898Y156036D01*
X23942Y156174D01*
X24915Y156577D01*
X25750Y157218D01*
X26392Y158054D01*
X26795Y159027D01*
X26932Y160071D01*
X26795Y161115D01*
X26392Y162088D01*
X25750Y162924D01*
X24915Y163565D01*
X23942Y163968D01*
X22898Y164105D01*
D02*
G37*
G36*
X129081Y155228D02*
X127457D01*
Y153604D01*
X127808Y153674D01*
X128529Y154156D01*
X129011Y154877D01*
X129081Y155228D01*
D02*
G37*
G36*
X126457D02*
X124832D01*
X124902Y154877D01*
X125384Y154156D01*
X126106Y153674D01*
X126457Y153604D01*
Y155228D01*
D02*
G37*
G36*
X168307Y155236D02*
X160008D01*
Y146937D01*
X168307D01*
Y155236D01*
D02*
G37*
G36*
X174158Y155272D02*
X173074Y155129D01*
X172065Y154711D01*
X171198Y154046D01*
X170533Y153179D01*
X170115Y152170D01*
X169972Y151087D01*
X170115Y150003D01*
X170533Y148994D01*
X171198Y148127D01*
X172065Y147462D01*
X173074Y147044D01*
X174158Y146901D01*
X175241Y147044D01*
X176250Y147462D01*
X177117Y148127D01*
X177782Y148994D01*
X178200Y150003D01*
X178343Y151087D01*
X178200Y152170D01*
X177782Y153179D01*
X177117Y154046D01*
X176250Y154711D01*
X175241Y155129D01*
X174158Y155272D01*
D02*
G37*
G36*
X156040Y152127D02*
X155316Y152031D01*
X154642Y151752D01*
X154063Y151308D01*
X153619Y150729D01*
X153339Y150055D01*
X153244Y149331D01*
X153339Y148607D01*
X153619Y147933D01*
X154063Y147354D01*
X154642Y146910D01*
X155316Y146631D01*
X156040Y146535D01*
X156763Y146631D01*
X157437Y146910D01*
X158016Y147354D01*
X158461Y147933D01*
X158740Y148607D01*
X158835Y149331D01*
X158740Y150055D01*
X158461Y150729D01*
X158016Y151308D01*
X157437Y151752D01*
X156763Y152031D01*
X156040Y152127D01*
D02*
G37*
G36*
X148166D02*
X147442Y152031D01*
X146768Y151752D01*
X146189Y151308D01*
X145745Y150729D01*
X145465Y150055D01*
X145370Y149331D01*
X145465Y148607D01*
X145745Y147933D01*
X146189Y147354D01*
X146768Y146910D01*
X147442Y146631D01*
X148166Y146535D01*
X148889Y146631D01*
X149563Y146910D01*
X150142Y147354D01*
X150587Y147933D01*
X150866Y148607D01*
X150961Y149331D01*
X150866Y150055D01*
X150587Y150729D01*
X150142Y151308D01*
X149563Y151752D01*
X148889Y152031D01*
X148166Y152127D01*
D02*
G37*
G36*
X61551D02*
X60828Y152031D01*
X60154Y151752D01*
X59575Y151308D01*
X59130Y150729D01*
X58851Y150055D01*
X58756Y149331D01*
X58851Y148607D01*
X59130Y147933D01*
X59575Y147354D01*
X60154Y146910D01*
X60828Y146631D01*
X61551Y146535D01*
X62275Y146631D01*
X62949Y146910D01*
X63528Y147354D01*
X63972Y147933D01*
X64252Y148607D01*
X64347Y149331D01*
X64252Y150055D01*
X63972Y150729D01*
X63528Y151308D01*
X62949Y151752D01*
X62275Y152031D01*
X61551Y152127D01*
D02*
G37*
G36*
X53677D02*
X52954Y152031D01*
X52280Y151752D01*
X51701Y151308D01*
X51256Y150729D01*
X50977Y150055D01*
X50882Y149331D01*
X50977Y148607D01*
X51256Y147933D01*
X51701Y147354D01*
X52280Y146910D01*
X52954Y146631D01*
X53677Y146535D01*
X54401Y146631D01*
X55075Y146910D01*
X55654Y147354D01*
X56098Y147933D01*
X56378Y148607D01*
X56473Y149331D01*
X56378Y150055D01*
X56098Y150729D01*
X55654Y151308D01*
X55075Y151752D01*
X54401Y152031D01*
X53677Y152127D01*
D02*
G37*
G36*
X210362Y154105D02*
X209318Y153968D01*
X208345Y153565D01*
X207509Y152924D01*
X206868Y152088D01*
X206465Y151115D01*
X206328Y150071D01*
X206465Y149027D01*
X206868Y148054D01*
X207509Y147218D01*
X208345Y146577D01*
X209318Y146174D01*
X210362Y146036D01*
X211406Y146174D01*
X212380Y146577D01*
X213215Y147218D01*
X213856Y148054D01*
X214259Y149027D01*
X214397Y150071D01*
X214259Y151115D01*
X213856Y152088D01*
X213215Y152924D01*
X212380Y153565D01*
X211406Y153968D01*
X210362Y154105D01*
D02*
G37*
G36*
X22898D02*
X21853Y153968D01*
X20880Y153565D01*
X20045Y152924D01*
X19404Y152088D01*
X19001Y151115D01*
X18863Y150071D01*
X19001Y149027D01*
X19404Y148054D01*
X20045Y147218D01*
X20880Y146577D01*
X21853Y146174D01*
X22898Y146036D01*
X23942Y146174D01*
X24915Y146577D01*
X25750Y147218D01*
X26392Y148054D01*
X26795Y149027D01*
X26932Y150071D01*
X26795Y151115D01*
X26392Y152088D01*
X25750Y152924D01*
X24915Y153565D01*
X23942Y153968D01*
X22898Y154105D01*
D02*
G37*
G36*
X105622Y149413D02*
X104771Y149243D01*
X104050Y148761D01*
X103568Y148040D01*
X103398Y147189D01*
X103568Y146338D01*
X104050Y145616D01*
X104771Y145134D01*
X105622Y144965D01*
X106473Y145134D01*
X107194Y145616D01*
X107677Y146338D01*
X107846Y147189D01*
X107677Y148040D01*
X107194Y148761D01*
X106473Y149243D01*
X105622Y149413D01*
D02*
G37*
G36*
X100819Y147086D02*
X99968Y146917D01*
X99246Y146435D01*
X98764Y145713D01*
X98595Y144862D01*
X98661Y144533D01*
X98211Y144232D01*
X98205Y144236D01*
X97354Y144405D01*
X96503Y144236D01*
X95782Y143754D01*
X95300Y143032D01*
X95130Y142181D01*
X95300Y141330D01*
X95782Y140609D01*
X96503Y140127D01*
X97354Y139957D01*
X98205Y140127D01*
X98927Y140609D01*
X99409Y141330D01*
X99578Y142181D01*
X99513Y142510D01*
X99963Y142811D01*
X99968Y142808D01*
X100819Y142638D01*
X101670Y142808D01*
X102391Y143290D01*
X102874Y144011D01*
X103043Y144862D01*
X102874Y145713D01*
X102391Y146435D01*
X101670Y146917D01*
X100819Y147086D01*
D02*
G37*
G36*
X152103Y144253D02*
X151379Y144157D01*
X150705Y143878D01*
X150126Y143434D01*
X149682Y142855D01*
X149402Y142180D01*
X149307Y141457D01*
X149402Y140733D01*
X149682Y140059D01*
X150126Y139480D01*
X150705Y139036D01*
X151379Y138757D01*
X152103Y138661D01*
X152826Y138757D01*
X153500Y139036D01*
X154079Y139480D01*
X154524Y140059D01*
X154803Y140733D01*
X154898Y141457D01*
X154803Y142180D01*
X154524Y142855D01*
X154079Y143434D01*
X153500Y143878D01*
X152826Y144157D01*
X152103Y144253D01*
D02*
G37*
G36*
X128481D02*
X127757Y144157D01*
X127083Y143878D01*
X126504Y143434D01*
X126059Y142855D01*
X125780Y142180D01*
X125685Y141457D01*
X125780Y140733D01*
X126059Y140059D01*
X126504Y139480D01*
X127083Y139036D01*
X127757Y138757D01*
X128481Y138661D01*
X129204Y138757D01*
X129878Y139036D01*
X130457Y139480D01*
X130902Y140059D01*
X131181Y140733D01*
X131276Y141457D01*
X131181Y142180D01*
X130902Y142855D01*
X130457Y143434D01*
X129878Y143878D01*
X129204Y144157D01*
X128481Y144253D01*
D02*
G37*
G36*
X120607D02*
X119883Y144157D01*
X119209Y143878D01*
X118630Y143434D01*
X118185Y142855D01*
X117906Y142180D01*
X117811Y141457D01*
X117906Y140733D01*
X118185Y140059D01*
X118630Y139480D01*
X119209Y139036D01*
X119883Y138757D01*
X120607Y138661D01*
X121330Y138757D01*
X122004Y139036D01*
X122583Y139480D01*
X123028Y140059D01*
X123307Y140733D01*
X123402Y141457D01*
X123307Y142180D01*
X123028Y142855D01*
X122583Y143434D01*
X122004Y143878D01*
X121330Y144157D01*
X120607Y144253D01*
D02*
G37*
G36*
X57614D02*
X56891Y144157D01*
X56217Y143878D01*
X55638Y143434D01*
X55193Y142855D01*
X54914Y142180D01*
X54819Y141457D01*
X54914Y140733D01*
X55193Y140059D01*
X55638Y139480D01*
X56217Y139036D01*
X56891Y138757D01*
X57614Y138661D01*
X58338Y138757D01*
X59012Y139036D01*
X59591Y139480D01*
X60035Y140059D01*
X60315Y140733D01*
X60410Y141457D01*
X60315Y142180D01*
X60035Y142855D01*
X59591Y143434D01*
X59012Y143878D01*
X58338Y144157D01*
X57614Y144253D01*
D02*
G37*
G36*
X49740D02*
X49017Y144157D01*
X48342Y143878D01*
X47764Y143434D01*
X47319Y142855D01*
X47040Y142180D01*
X46945Y141457D01*
X47040Y140733D01*
X47319Y140059D01*
X47764Y139480D01*
X48342Y139036D01*
X49017Y138757D01*
X49740Y138661D01*
X50464Y138757D01*
X51138Y139036D01*
X51717Y139480D01*
X52161Y140059D01*
X52441Y140733D01*
X52536Y141457D01*
X52441Y142180D01*
X52161Y142855D01*
X51717Y143434D01*
X51138Y143878D01*
X50464Y144157D01*
X49740Y144253D01*
D02*
G37*
G36*
X93425Y141377D02*
X92574Y141208D01*
X91853Y140726D01*
X91371Y140005D01*
X91201Y139154D01*
X91371Y138303D01*
X91853Y137581D01*
X92574Y137099D01*
X93425Y136930D01*
X94276Y137099D01*
X94998Y137581D01*
X95480Y138303D01*
X95649Y139154D01*
X95480Y140005D01*
X94998Y140726D01*
X94276Y141208D01*
X93425Y141377D01*
D02*
G37*
G36*
X210362Y144105D02*
X209318Y143968D01*
X208345Y143565D01*
X207509Y142924D01*
X206868Y142088D01*
X206465Y141115D01*
X206328Y140071D01*
X206465Y139027D01*
X206868Y138054D01*
X207509Y137218D01*
X208345Y136577D01*
X209318Y136174D01*
X210362Y136036D01*
X211406Y136174D01*
X212380Y136577D01*
X213215Y137218D01*
X213856Y138054D01*
X214259Y139027D01*
X214397Y140071D01*
X214259Y141115D01*
X213856Y142088D01*
X213215Y142924D01*
X212380Y143565D01*
X211406Y143968D01*
X210362Y144105D01*
D02*
G37*
G36*
X22898D02*
X21853Y143968D01*
X20880Y143565D01*
X20045Y142924D01*
X19404Y142088D01*
X19001Y141115D01*
X18863Y140071D01*
X19001Y139027D01*
X19404Y138054D01*
X20045Y137218D01*
X20880Y136577D01*
X21853Y136174D01*
X22898Y136036D01*
X23942Y136174D01*
X24915Y136577D01*
X25750Y137218D01*
X26392Y138054D01*
X26795Y139027D01*
X26932Y140071D01*
X26795Y141115D01*
X26392Y142088D01*
X25750Y142924D01*
X24915Y143565D01*
X23942Y143968D01*
X22898Y144105D01*
D02*
G37*
G36*
X94705Y136362D02*
X93854Y136192D01*
X93132Y135710D01*
X92650Y134989D01*
X92481Y134138D01*
X92650Y133287D01*
X93132Y132565D01*
X93854Y132083D01*
X94705Y131914D01*
X95556Y132083D01*
X96277Y132565D01*
X96759Y133287D01*
X96929Y134138D01*
X96759Y134989D01*
X96277Y135710D01*
X95556Y136192D01*
X94705Y136362D01*
D02*
G37*
G36*
X171788Y136378D02*
X171064Y136283D01*
X170390Y136004D01*
X169811Y135560D01*
X169367Y134981D01*
X169087Y134306D01*
X168992Y133583D01*
X169087Y132859D01*
X169367Y132185D01*
X169811Y131606D01*
X170390Y131162D01*
X171064Y130883D01*
X171788Y130787D01*
X172511Y130883D01*
X173185Y131162D01*
X173764Y131606D01*
X174209Y132185D01*
X174488Y132859D01*
X174583Y133583D01*
X174488Y134306D01*
X174209Y134981D01*
X173764Y135560D01*
X173185Y136004D01*
X172511Y136283D01*
X171788Y136378D01*
D02*
G37*
G36*
X132418D02*
X131694Y136283D01*
X131020Y136004D01*
X130441Y135560D01*
X129997Y134981D01*
X129717Y134306D01*
X129622Y133583D01*
X129717Y132859D01*
X129997Y132185D01*
X130441Y131606D01*
X131020Y131162D01*
X131694Y130883D01*
X132418Y130787D01*
X133141Y130883D01*
X133815Y131162D01*
X134394Y131606D01*
X134839Y132185D01*
X135118Y132859D01*
X135213Y133583D01*
X135118Y134306D01*
X134839Y134981D01*
X134394Y135560D01*
X133815Y136004D01*
X133141Y136283D01*
X132418Y136378D01*
D02*
G37*
G36*
X124543D02*
X123820Y136283D01*
X123146Y136004D01*
X122567Y135560D01*
X122123Y134981D01*
X121843Y134306D01*
X121748Y133583D01*
X121843Y132859D01*
X122123Y132185D01*
X122567Y131606D01*
X123146Y131162D01*
X123820Y130883D01*
X124543Y130787D01*
X125267Y130883D01*
X125941Y131162D01*
X126520Y131606D01*
X126965Y132185D01*
X127244Y132859D01*
X127339Y133583D01*
X127244Y134306D01*
X126965Y134981D01*
X126520Y135560D01*
X125941Y136004D01*
X125267Y136283D01*
X124543Y136378D01*
D02*
G37*
G36*
X85173D02*
X84450Y136283D01*
X83776Y136004D01*
X83197Y135560D01*
X82752Y134981D01*
X82473Y134306D01*
X82378Y133583D01*
X82473Y132859D01*
X82752Y132185D01*
X83197Y131606D01*
X83776Y131162D01*
X84450Y130883D01*
X85173Y130787D01*
X85897Y130883D01*
X86571Y131162D01*
X87150Y131606D01*
X87594Y132185D01*
X87874Y132859D01*
X87969Y133583D01*
X87874Y134306D01*
X87594Y134981D01*
X87150Y135560D01*
X86571Y136004D01*
X85897Y136283D01*
X85173Y136378D01*
D02*
G37*
G36*
X61551D02*
X60828Y136283D01*
X60154Y136004D01*
X59575Y135560D01*
X59130Y134981D01*
X58851Y134306D01*
X58756Y133583D01*
X58851Y132859D01*
X59130Y132185D01*
X59575Y131606D01*
X60154Y131162D01*
X60828Y130883D01*
X61551Y130787D01*
X62275Y130883D01*
X62949Y131162D01*
X63528Y131606D01*
X63972Y132185D01*
X64252Y132859D01*
X64347Y133583D01*
X64252Y134306D01*
X63972Y134981D01*
X63528Y135560D01*
X62949Y136004D01*
X62275Y136283D01*
X61551Y136378D01*
D02*
G37*
G36*
X53677D02*
X52954Y136283D01*
X52280Y136004D01*
X51701Y135560D01*
X51256Y134981D01*
X50977Y134306D01*
X50882Y133583D01*
X50977Y132859D01*
X51256Y132185D01*
X51701Y131606D01*
X52280Y131162D01*
X52954Y130883D01*
X53677Y130787D01*
X54401Y130883D01*
X55075Y131162D01*
X55654Y131606D01*
X56098Y132185D01*
X56378Y132859D01*
X56473Y133583D01*
X56378Y134306D01*
X56098Y134981D01*
X55654Y135560D01*
X55075Y136004D01*
X54401Y136283D01*
X53677Y136378D01*
D02*
G37*
G36*
X45803D02*
X45080Y136283D01*
X44405Y136004D01*
X43826Y135560D01*
X43382Y134981D01*
X43103Y134306D01*
X43008Y133583D01*
X43103Y132859D01*
X43382Y132185D01*
X43826Y131606D01*
X44405Y131162D01*
X45080Y130883D01*
X45803Y130787D01*
X46527Y130883D01*
X47201Y131162D01*
X47780Y131606D01*
X48224Y132185D01*
X48504Y132859D01*
X48599Y133583D01*
X48504Y134306D01*
X48224Y134981D01*
X47780Y135560D01*
X47201Y136004D01*
X46527Y136283D01*
X45803Y136378D01*
D02*
G37*
G36*
X30055D02*
X29332Y136283D01*
X28657Y136004D01*
X28078Y135560D01*
X27634Y134981D01*
X27355Y134306D01*
X27260Y133583D01*
X27355Y132859D01*
X27634Y132185D01*
X28078Y131606D01*
X28657Y131162D01*
X29332Y130883D01*
X30055Y130787D01*
X30779Y130883D01*
X31453Y131162D01*
X32032Y131606D01*
X32476Y132185D01*
X32756Y132859D01*
X32851Y133583D01*
X32756Y134306D01*
X32476Y134981D01*
X32032Y135560D01*
X31453Y136004D01*
X30779Y136283D01*
X30055Y136378D01*
D02*
G37*
G36*
X187536D02*
X186812Y136283D01*
X186138Y136004D01*
X185559Y135560D01*
X185115Y134981D01*
X184835Y134306D01*
X184740Y133583D01*
X184835Y132859D01*
X185063Y132310D01*
X185068Y132084D01*
X184878Y131672D01*
X184353Y131321D01*
X183871Y130599D01*
X183701Y129748D01*
X183871Y128897D01*
X184353Y128175D01*
X185074Y127693D01*
X185925Y127524D01*
X186776Y127693D01*
X187498Y128175D01*
X187980Y128897D01*
X188149Y129748D01*
X188030Y130348D01*
X188228Y130811D01*
X188363Y130926D01*
X188934Y131162D01*
X189512Y131606D01*
X189957Y132185D01*
X190236Y132859D01*
X190331Y133583D01*
X190236Y134306D01*
X189957Y134981D01*
X189512Y135560D01*
X188934Y136004D01*
X188259Y136283D01*
X187536Y136378D01*
D02*
G37*
G36*
X22898Y134105D02*
X21853Y133968D01*
X20880Y133565D01*
X20045Y132924D01*
X19404Y132088D01*
X19001Y131115D01*
X18863Y130071D01*
X19001Y129027D01*
X19404Y128054D01*
X20045Y127218D01*
X20880Y126577D01*
X21853Y126174D01*
X22898Y126036D01*
X23942Y126174D01*
X24915Y126577D01*
X25750Y127218D01*
X26392Y128054D01*
X26795Y129027D01*
X26932Y130071D01*
X26795Y131115D01*
X26392Y132088D01*
X25750Y132924D01*
X24915Y133565D01*
X23942Y133968D01*
X22898Y134105D01*
D02*
G37*
G36*
X96984Y128504D02*
X96261Y128409D01*
X95587Y128130D01*
X95008Y127686D01*
X94563Y127107D01*
X94284Y126432D01*
X94189Y125709D01*
X94284Y124985D01*
X94563Y124311D01*
X95008Y123732D01*
X95587Y123288D01*
X96261Y123009D01*
X96984Y122913D01*
X97708Y123009D01*
X98382Y123288D01*
X98961Y123732D01*
X99405Y124311D01*
X99685Y124985D01*
X99780Y125709D01*
X99685Y126432D01*
X99405Y127107D01*
X98961Y127686D01*
X98382Y128130D01*
X97708Y128409D01*
X96984Y128504D01*
D02*
G37*
G36*
X89110D02*
X88387Y128409D01*
X87713Y128130D01*
X87134Y127686D01*
X86689Y127107D01*
X86410Y126432D01*
X86315Y125709D01*
X86410Y124985D01*
X86689Y124311D01*
X87134Y123732D01*
X87713Y123288D01*
X88387Y123009D01*
X89110Y122913D01*
X89834Y123009D01*
X90508Y123288D01*
X91087Y123732D01*
X91531Y124311D01*
X91811Y124985D01*
X91906Y125709D01*
X91811Y126432D01*
X91531Y127107D01*
X91087Y127686D01*
X90508Y128130D01*
X89834Y128409D01*
X89110Y128504D01*
D02*
G37*
G36*
X81236D02*
X80513Y128409D01*
X79839Y128130D01*
X79260Y127686D01*
X78815Y127107D01*
X78536Y126432D01*
X78441Y125709D01*
X78536Y124985D01*
X78815Y124311D01*
X79260Y123732D01*
X79839Y123288D01*
X80513Y123009D01*
X81236Y122913D01*
X81960Y123009D01*
X82634Y123288D01*
X83213Y123732D01*
X83657Y124311D01*
X83937Y124985D01*
X84032Y125709D01*
X83937Y126432D01*
X83657Y127107D01*
X83213Y127686D01*
X82634Y128130D01*
X81960Y128409D01*
X81236Y128504D01*
D02*
G37*
G36*
X73362D02*
X72639Y128409D01*
X71965Y128130D01*
X71386Y127686D01*
X70941Y127107D01*
X70662Y126432D01*
X70567Y125709D01*
X70662Y124985D01*
X70941Y124311D01*
X71386Y123732D01*
X71965Y123288D01*
X72639Y123009D01*
X73362Y122913D01*
X74086Y123009D01*
X74760Y123288D01*
X75339Y123732D01*
X75783Y124311D01*
X76063Y124985D01*
X76158Y125709D01*
X76063Y126432D01*
X75783Y127107D01*
X75339Y127686D01*
X74760Y128130D01*
X74086Y128409D01*
X73362Y128504D01*
D02*
G37*
G36*
X33992D02*
X33269Y128409D01*
X32594Y128130D01*
X32015Y127686D01*
X31571Y127107D01*
X31292Y126432D01*
X31197Y125709D01*
X31292Y124985D01*
X31571Y124311D01*
X32015Y123732D01*
X32594Y123288D01*
X33269Y123009D01*
X33992Y122913D01*
X34716Y123009D01*
X35390Y123288D01*
X35969Y123732D01*
X36413Y124311D01*
X36693Y124985D01*
X36788Y125709D01*
X36693Y126432D01*
X36413Y127107D01*
X35969Y127686D01*
X35390Y128130D01*
X34716Y128409D01*
X33992Y128504D01*
D02*
G37*
G36*
X210362Y124105D02*
X209318Y123968D01*
X208345Y123565D01*
X207509Y122924D01*
X206868Y122088D01*
X206465Y121115D01*
X206328Y120071D01*
X206465Y119027D01*
X206868Y118054D01*
X207509Y117218D01*
X208345Y116577D01*
X209318Y116174D01*
X210362Y116036D01*
X211406Y116174D01*
X212380Y116577D01*
X213215Y117218D01*
X213856Y118054D01*
X214259Y119027D01*
X214397Y120071D01*
X214259Y121115D01*
X213856Y122088D01*
X213215Y122924D01*
X212380Y123565D01*
X211406Y123968D01*
X210362Y124105D01*
D02*
G37*
G36*
X22898D02*
X21853Y123968D01*
X20880Y123565D01*
X20045Y122924D01*
X19404Y122088D01*
X19001Y121115D01*
X18863Y120071D01*
X19001Y119027D01*
X19404Y118054D01*
X20045Y117218D01*
X20880Y116577D01*
X21853Y116174D01*
X22898Y116036D01*
X23942Y116174D01*
X24915Y116577D01*
X25750Y117218D01*
X26392Y118054D01*
X26795Y119027D01*
X26932Y120071D01*
X26795Y121115D01*
X26392Y122088D01*
X25750Y122924D01*
X24915Y123565D01*
X23942Y123968D01*
X22898Y124105D01*
D02*
G37*
G36*
X203284Y120630D02*
X202560Y120535D01*
X201886Y120256D01*
X201307Y119812D01*
X200863Y119233D01*
X200583Y118558D01*
X200488Y117835D01*
X200583Y117111D01*
X200863Y116437D01*
X201307Y115858D01*
X201886Y115414D01*
X202560Y115135D01*
X203284Y115039D01*
X204007Y115135D01*
X204681Y115414D01*
X205260Y115858D01*
X205705Y116437D01*
X205984Y117111D01*
X206079Y117835D01*
X205984Y118558D01*
X205705Y119233D01*
X205260Y119812D01*
X204681Y120256D01*
X204007Y120535D01*
X203284Y120630D01*
D02*
G37*
G36*
X187536D02*
X186812Y120535D01*
X186138Y120256D01*
X185559Y119812D01*
X185115Y119233D01*
X184835Y118558D01*
X184740Y117835D01*
X184835Y117111D01*
X185115Y116437D01*
X185559Y115858D01*
X186138Y115414D01*
X186812Y115135D01*
X187536Y115039D01*
X188259Y115135D01*
X188934Y115414D01*
X189512Y115858D01*
X189957Y116437D01*
X190236Y117111D01*
X190331Y117835D01*
X190236Y118558D01*
X189957Y119233D01*
X189512Y119812D01*
X188934Y120256D01*
X188259Y120535D01*
X187536Y120630D01*
D02*
G37*
G36*
X46177Y117184D02*
X45326Y117015D01*
X44605Y116533D01*
X44123Y115811D01*
X43953Y114960D01*
X44123Y114109D01*
X44605Y113388D01*
X45326Y112906D01*
X46177Y112736D01*
X47028Y112906D01*
X47750Y113388D01*
X48232Y114109D01*
X48401Y114960D01*
X48232Y115811D01*
X47750Y116533D01*
X47028Y117015D01*
X46177Y117184D01*
D02*
G37*
G36*
X173055Y109648D02*
Y108024D01*
X174680D01*
X174610Y108375D01*
X174128Y109096D01*
X173406Y109578D01*
X173055Y109648D01*
D02*
G37*
G36*
X172055D02*
X171704Y109578D01*
X170983Y109096D01*
X170501Y108375D01*
X170431Y108024D01*
X172055D01*
Y109648D01*
D02*
G37*
G36*
X186158Y109376D02*
Y107752D01*
X187782D01*
X187712Y108103D01*
X187230Y108825D01*
X186509Y109307D01*
X186158Y109376D01*
D02*
G37*
G36*
X185158D02*
X184807Y109307D01*
X184085Y108825D01*
X183603Y108103D01*
X183533Y107752D01*
X185158D01*
Y109376D01*
D02*
G37*
G36*
X191473Y112756D02*
X190749Y112661D01*
X190075Y112382D01*
X189496Y111938D01*
X189052Y111359D01*
X188772Y110684D01*
X188677Y109961D01*
X188772Y109237D01*
X189052Y108563D01*
X189496Y107984D01*
X190075Y107540D01*
X190749Y107261D01*
X191473Y107165D01*
X192196Y107261D01*
X192870Y107540D01*
X193449Y107984D01*
X193894Y108563D01*
X194173Y109237D01*
X194268Y109961D01*
X194173Y110684D01*
X193894Y111359D01*
X193449Y111938D01*
X192870Y112382D01*
X192196Y112661D01*
X191473Y112756D01*
D02*
G37*
G36*
X89110D02*
X88387Y112661D01*
X87713Y112382D01*
X87134Y111938D01*
X86689Y111359D01*
X86410Y110684D01*
X86315Y109961D01*
X86410Y109237D01*
X86689Y108563D01*
X87134Y107984D01*
X87713Y107540D01*
X88387Y107261D01*
X89110Y107165D01*
X89834Y107261D01*
X90508Y107540D01*
X91087Y107984D01*
X91531Y108563D01*
X91811Y109237D01*
X91906Y109961D01*
X91811Y110684D01*
X91531Y111359D01*
X91087Y111938D01*
X90508Y112382D01*
X89834Y112661D01*
X89110Y112756D01*
D02*
G37*
G36*
X210362Y114105D02*
X209318Y113968D01*
X208345Y113565D01*
X207509Y112924D01*
X206868Y112088D01*
X206465Y111115D01*
X206328Y110071D01*
X206465Y109027D01*
X206868Y108054D01*
X207509Y107218D01*
X208345Y106577D01*
X209318Y106174D01*
X210362Y106036D01*
X211406Y106174D01*
X212380Y106577D01*
X213215Y107218D01*
X213856Y108054D01*
X214259Y109027D01*
X214397Y110071D01*
X214259Y111115D01*
X213856Y112088D01*
X213215Y112924D01*
X212380Y113565D01*
X211406Y113968D01*
X210362Y114105D01*
D02*
G37*
G36*
X22898D02*
X21853Y113968D01*
X20880Y113565D01*
X20045Y112924D01*
X19404Y112088D01*
X19001Y111115D01*
X18863Y110071D01*
X19001Y109027D01*
X19404Y108054D01*
X20045Y107218D01*
X20880Y106577D01*
X21853Y106174D01*
X22898Y106036D01*
X23942Y106174D01*
X24915Y106577D01*
X25750Y107218D01*
X26392Y108054D01*
X26795Y109027D01*
X26932Y110071D01*
X26795Y111115D01*
X26392Y112088D01*
X25750Y112924D01*
X24915Y113565D01*
X23942Y113968D01*
X22898Y114105D01*
D02*
G37*
G36*
X174680Y107024D02*
X173055D01*
Y105399D01*
X173406Y105469D01*
X174128Y105951D01*
X174610Y106673D01*
X174680Y107024D01*
D02*
G37*
G36*
X172055D02*
X170431D01*
X170501Y106673D01*
X170983Y105951D01*
X171704Y105469D01*
X172055Y105399D01*
Y107024D01*
D02*
G37*
G36*
X187782Y106752D02*
X186158D01*
Y105128D01*
X186509Y105197D01*
X187230Y105680D01*
X187712Y106401D01*
X187782Y106752D01*
D02*
G37*
G36*
X185158D02*
X183533D01*
X183603Y106401D01*
X184085Y105680D01*
X184807Y105197D01*
X185158Y105128D01*
Y106752D01*
D02*
G37*
G36*
X94504Y102098D02*
X93730Y101944D01*
X93073Y101505D01*
X92635Y100849D01*
X92593Y100641D01*
X92084D01*
X92042Y100849D01*
X91604Y101505D01*
X90947Y101944D01*
X90173Y102098D01*
X89399Y101944D01*
X88743Y101505D01*
X88304Y100849D01*
X88150Y100075D01*
X88304Y99301D01*
X88743Y98644D01*
X89399Y98206D01*
X89607Y98164D01*
Y97654D01*
X89399Y97613D01*
X88743Y97175D01*
X88304Y96518D01*
X88150Y95744D01*
X88304Y94970D01*
X88743Y94314D01*
X89399Y93875D01*
X89607Y93834D01*
Y93324D01*
X89399Y93283D01*
X88743Y92844D01*
X88304Y92188D01*
X88150Y91413D01*
X88304Y90639D01*
X88743Y89983D01*
X89399Y89544D01*
X90173Y89390D01*
X90947Y89544D01*
X91604Y89983D01*
X92042Y90639D01*
X92084Y90847D01*
X92593D01*
X92635Y90639D01*
X93073Y89983D01*
X93529Y89678D01*
X93730Y89544D01*
X93626Y89058D01*
X93047Y89134D01*
X92324Y89039D01*
X91650Y88760D01*
X91071Y88315D01*
X90626Y87736D01*
X90347Y87062D01*
X90252Y86339D01*
X90347Y85615D01*
X90626Y84941D01*
X91071Y84362D01*
X91650Y83918D01*
X92324Y83638D01*
X93047Y83543D01*
X93771Y83638D01*
X94445Y83918D01*
X95024Y84362D01*
X95468Y84941D01*
X95748Y85615D01*
X95843Y86339D01*
X95748Y87062D01*
X95468Y87736D01*
X95024Y88315D01*
X94445Y88760D01*
X93831Y89014D01*
X93976Y89495D01*
X94504Y89390D01*
X95278Y89544D01*
X95934Y89983D01*
X96373Y90639D01*
X96527Y91413D01*
X96373Y92188D01*
X95934Y92844D01*
X95278Y93283D01*
X95070Y93324D01*
Y93834D01*
X95278Y93875D01*
X95934Y94314D01*
X96373Y94970D01*
X96527Y95744D01*
X96373Y96518D01*
X95934Y97175D01*
X95278Y97613D01*
X95070Y97654D01*
Y98164D01*
X95278Y98206D01*
X95934Y98644D01*
X96373Y99301D01*
X96527Y100075D01*
X96373Y100849D01*
X95934Y101505D01*
X95278Y101944D01*
X94504Y102098D01*
D02*
G37*
G36*
X77653Y105406D02*
X76930Y105310D01*
X76256Y105031D01*
X75677Y104587D01*
X75232Y104008D01*
X74953Y103334D01*
X74858Y102610D01*
X74953Y101887D01*
X75232Y101213D01*
X75677Y100634D01*
X76256Y100189D01*
X76930Y99910D01*
X77653Y99815D01*
X78377Y99910D01*
X79051Y100189D01*
X79630Y100634D01*
X80075Y101213D01*
X80354Y101887D01*
X80449Y102610D01*
X80354Y103334D01*
X80075Y104008D01*
X79630Y104587D01*
X79051Y105031D01*
X78377Y105310D01*
X77653Y105406D01*
D02*
G37*
G36*
X173201Y101262D02*
Y99638D01*
X174825D01*
X174755Y99989D01*
X174273Y100710D01*
X173552Y101192D01*
X173201Y101262D01*
D02*
G37*
G36*
X172201D02*
X171850Y101192D01*
X171128Y100710D01*
X170646Y99989D01*
X170576Y99638D01*
X172201D01*
Y101262D01*
D02*
G37*
G36*
X174825Y98638D02*
X173201D01*
Y97013D01*
X173552Y97083D01*
X174273Y97565D01*
X174755Y98287D01*
X174825Y98638D01*
D02*
G37*
G36*
X172201D02*
X170576D01*
X170646Y98287D01*
X171128Y97565D01*
X171850Y97083D01*
X172201Y97013D01*
Y98638D01*
D02*
G37*
G36*
X210362Y104105D02*
X209318Y103968D01*
X208345Y103565D01*
X207509Y102924D01*
X206868Y102088D01*
X206465Y101115D01*
X206328Y100071D01*
X206465Y99027D01*
X206868Y98054D01*
X207509Y97218D01*
X208345Y96577D01*
X209318Y96174D01*
X210362Y96036D01*
X211406Y96174D01*
X212380Y96577D01*
X213215Y97218D01*
X213856Y98054D01*
X214259Y99027D01*
X214397Y100071D01*
X214259Y101115D01*
X213856Y102088D01*
X213215Y102924D01*
X212380Y103565D01*
X211406Y103968D01*
X210362Y104105D01*
D02*
G37*
G36*
X22898D02*
X21853Y103968D01*
X20880Y103565D01*
X20045Y102924D01*
X19404Y102088D01*
X19001Y101115D01*
X18863Y100071D01*
X19001Y99027D01*
X19404Y98054D01*
X20045Y97218D01*
X20880Y96577D01*
X21853Y96174D01*
X22898Y96036D01*
X23942Y96174D01*
X24915Y96577D01*
X25750Y97218D01*
X26392Y98054D01*
X26795Y99027D01*
X26932Y100071D01*
X26795Y101115D01*
X26392Y102088D01*
X25750Y102924D01*
X24915Y103565D01*
X23942Y103968D01*
X22898Y104105D01*
D02*
G37*
G36*
Y94105D02*
X21853Y93968D01*
X20880Y93565D01*
X20045Y92924D01*
X19404Y92088D01*
X19001Y91115D01*
X18863Y90071D01*
X19001Y89027D01*
X19404Y88054D01*
X20045Y87218D01*
X20880Y86577D01*
X21853Y86174D01*
X22898Y86036D01*
X23942Y86174D01*
X24915Y86577D01*
X25750Y87218D01*
X26392Y88054D01*
X26795Y89027D01*
X26932Y90071D01*
X26795Y91115D01*
X26392Y92088D01*
X25750Y92924D01*
X24915Y93565D01*
X23942Y93968D01*
X22898Y94105D01*
D02*
G37*
G36*
X203284Y89134D02*
X202560Y89039D01*
X201886Y88760D01*
X201307Y88315D01*
X200863Y87736D01*
X200583Y87062D01*
X200488Y86339D01*
X200583Y85615D01*
X200863Y84941D01*
X201307Y84362D01*
X201886Y83918D01*
X202560Y83638D01*
X203284Y83543D01*
X204007Y83638D01*
X204681Y83918D01*
X205260Y84362D01*
X205705Y84941D01*
X205984Y85615D01*
X206079Y86339D01*
X205984Y87062D01*
X205705Y87736D01*
X205260Y88315D01*
X204681Y88760D01*
X204007Y89039D01*
X203284Y89134D01*
D02*
G37*
G36*
X183122Y86704D02*
X182271Y86535D01*
X181550Y86053D01*
X181068Y85331D01*
X180898Y84480D01*
X181068Y83629D01*
X181550Y82908D01*
X182271Y82426D01*
X183122Y82257D01*
X183973Y82426D01*
X184695Y82908D01*
X185177Y83629D01*
X185346Y84480D01*
X185177Y85331D01*
X184695Y86053D01*
X183973Y86535D01*
X183122Y86704D01*
D02*
G37*
G36*
X61929Y86705D02*
X60974Y86579D01*
X60085Y86211D01*
X59321Y85624D01*
X58734Y84860D01*
X58366Y83970D01*
X58240Y83016D01*
X58366Y82061D01*
X58549Y81619D01*
X58482Y81475D01*
X58188Y81185D01*
X57614Y81260D01*
X56891Y81165D01*
X56217Y80886D01*
X55638Y80441D01*
X55193Y79862D01*
X54914Y79188D01*
X54819Y78465D01*
X54914Y77741D01*
X55193Y77067D01*
X55638Y76488D01*
X56217Y76044D01*
X56891Y75764D01*
X57614Y75669D01*
X58338Y75764D01*
X59012Y76044D01*
X59591Y76488D01*
X60035Y77067D01*
X60315Y77741D01*
X60410Y78465D01*
X60315Y79188D01*
X60699Y79566D01*
X60974Y79452D01*
X61929Y79327D01*
X62326Y79379D01*
X62398Y79349D01*
X62754Y78931D01*
X62693Y78465D01*
X62788Y77741D01*
X63067Y77067D01*
X63512Y76488D01*
X64091Y76044D01*
X64765Y75764D01*
X65488Y75669D01*
X66212Y75764D01*
X66886Y76044D01*
X67465Y76488D01*
X67909Y77067D01*
X68189Y77741D01*
X68284Y78465D01*
X68189Y79188D01*
X67909Y79862D01*
X67465Y80441D01*
X66886Y80886D01*
X66212Y81165D01*
X65691Y81234D01*
X65343Y81700D01*
X65492Y82061D01*
X65618Y83016D01*
X65492Y83970D01*
X65124Y84860D01*
X64538Y85624D01*
X63774Y86211D01*
X62884Y86579D01*
X61929Y86705D01*
D02*
G37*
G36*
X52595Y86646D02*
X45279D01*
Y79331D01*
X52595D01*
Y86646D01*
D02*
G37*
G36*
X136354Y81260D02*
X135631Y81165D01*
X134957Y80886D01*
X134378Y80441D01*
X133933Y79862D01*
X133727Y79364D01*
X133192Y79144D01*
X132978Y79308D01*
X131777Y79806D01*
X130488Y79976D01*
X122614D01*
X121325Y79806D01*
X120124Y79308D01*
X119093Y78517D01*
X118302Y77486D01*
X117804Y76285D01*
X117635Y74996D01*
X117804Y73707D01*
X117827Y73652D01*
X117444Y73270D01*
X117393Y73291D01*
X116669Y73386D01*
X115946Y73291D01*
X115272Y73012D01*
X114693Y72567D01*
X114249Y71988D01*
X113969Y71314D01*
X113874Y70591D01*
X113969Y69867D01*
X114249Y69193D01*
X114693Y68614D01*
X115272Y68170D01*
X115946Y67890D01*
X116669Y67795D01*
X117393Y67890D01*
X118067Y68170D01*
X118646Y68614D01*
X119090Y69193D01*
X119370Y69867D01*
X119461Y70562D01*
X119675Y70732D01*
X119896Y70859D01*
X120124Y70684D01*
X121325Y70186D01*
X122614Y70016D01*
X130488D01*
X131777Y70186D01*
X132978Y70684D01*
X134009Y71475D01*
X134801Y72506D01*
X135298Y73707D01*
X135468Y74996D01*
X135421Y75352D01*
X135875Y75732D01*
X136354Y75669D01*
X137078Y75764D01*
X137752Y76044D01*
X138331Y76488D01*
X138776Y77067D01*
X139055Y77741D01*
X139150Y78465D01*
X139055Y79188D01*
X138776Y79862D01*
X138331Y80441D01*
X137752Y80886D01*
X137078Y81165D01*
X136354Y81260D01*
D02*
G37*
G36*
X210362Y84105D02*
X209318Y83968D01*
X208345Y83565D01*
X207509Y82924D01*
X206868Y82088D01*
X206465Y81115D01*
X206328Y80071D01*
X206465Y79027D01*
X206868Y78054D01*
X207509Y77218D01*
X208345Y76577D01*
X209318Y76174D01*
X210362Y76036D01*
X211406Y76174D01*
X212380Y76577D01*
X213215Y77218D01*
X213856Y78054D01*
X214259Y79027D01*
X214397Y80071D01*
X214259Y81115D01*
X213856Y82088D01*
X213215Y82924D01*
X212380Y83565D01*
X211406Y83968D01*
X210362Y84105D01*
D02*
G37*
G36*
X22898D02*
X21853Y83968D01*
X20880Y83565D01*
X20045Y82924D01*
X19404Y82088D01*
X19001Y81115D01*
X18863Y80071D01*
X19001Y79027D01*
X19404Y78054D01*
X20045Y77218D01*
X20880Y76577D01*
X21853Y76174D01*
X22898Y76036D01*
X23942Y76174D01*
X24915Y76577D01*
X25750Y77218D01*
X26392Y78054D01*
X26795Y79027D01*
X26932Y80071D01*
X26795Y81115D01*
X26392Y82088D01*
X25750Y82924D01*
X24915Y83565D01*
X23942Y83968D01*
X22898Y84105D01*
D02*
G37*
G36*
X104859Y81260D02*
X104135Y81165D01*
X103461Y80886D01*
X102882Y80441D01*
X102437Y79862D01*
X102158Y79188D01*
X102063Y78465D01*
X102158Y77741D01*
X102437Y77067D01*
X102882Y76488D01*
X103461Y76044D01*
X104135Y75764D01*
X104859Y75669D01*
X105582Y75764D01*
X106256Y76044D01*
X106835Y76488D01*
X107280Y77067D01*
X107559Y77741D01*
X107654Y78465D01*
X107559Y79188D01*
X107280Y79862D01*
X106835Y80441D01*
X106256Y80886D01*
X105582Y81165D01*
X104859Y81260D01*
D02*
G37*
G36*
X96984D02*
X96261Y81165D01*
X95587Y80886D01*
X95008Y80441D01*
X94563Y79862D01*
X94284Y79188D01*
X94189Y78465D01*
X94284Y77741D01*
X94563Y77067D01*
X95008Y76488D01*
X95587Y76044D01*
X96261Y75764D01*
X96984Y75669D01*
X97708Y75764D01*
X98382Y76044D01*
X98961Y76488D01*
X99405Y77067D01*
X99685Y77741D01*
X99780Y78465D01*
X99685Y79188D01*
X99405Y79862D01*
X98961Y80441D01*
X98382Y80886D01*
X97708Y81165D01*
X96984Y81260D01*
D02*
G37*
G36*
X89110D02*
X88387Y81165D01*
X87713Y80886D01*
X87134Y80441D01*
X86689Y79862D01*
X86410Y79188D01*
X86315Y78465D01*
X86410Y77741D01*
X86689Y77067D01*
X87134Y76488D01*
X87713Y76044D01*
X88387Y75764D01*
X89110Y75669D01*
X89834Y75764D01*
X90508Y76044D01*
X91087Y76488D01*
X91531Y77067D01*
X91811Y77741D01*
X91906Y78465D01*
X91811Y79188D01*
X91531Y79862D01*
X91087Y80441D01*
X90508Y80886D01*
X89834Y81165D01*
X89110Y81260D01*
D02*
G37*
G36*
X33992D02*
X33269Y81165D01*
X32594Y80886D01*
X32015Y80441D01*
X31571Y79862D01*
X31292Y79188D01*
X31197Y78465D01*
X31292Y77741D01*
X31571Y77067D01*
X32015Y76488D01*
X32594Y76044D01*
X33269Y75764D01*
X33992Y75669D01*
X34716Y75764D01*
X35390Y76044D01*
X35969Y76488D01*
X36413Y77067D01*
X36693Y77741D01*
X36788Y78465D01*
X36693Y79188D01*
X36413Y79862D01*
X35969Y80441D01*
X35390Y80886D01*
X34716Y81165D01*
X33992Y81260D01*
D02*
G37*
G36*
X100921Y73386D02*
X100198Y73291D01*
X99524Y73012D01*
X98945Y72567D01*
X98500Y71988D01*
X98221Y71314D01*
X98126Y70591D01*
X98221Y69867D01*
X98500Y69193D01*
X98945Y68614D01*
X99524Y68170D01*
X100198Y67890D01*
X100921Y67795D01*
X101645Y67890D01*
X102319Y68170D01*
X102898Y68614D01*
X103342Y69193D01*
X103622Y69867D01*
X103717Y70591D01*
X103622Y71314D01*
X103342Y71988D01*
X102898Y72567D01*
X102319Y73012D01*
X101645Y73291D01*
X100921Y73386D01*
D02*
G37*
G36*
X45803D02*
X45080Y73291D01*
X44405Y73012D01*
X43826Y72567D01*
X43382Y71988D01*
X43103Y71314D01*
X43008Y70591D01*
X43103Y69867D01*
X43382Y69193D01*
X43826Y68614D01*
X44405Y68170D01*
X45080Y67890D01*
X45803Y67795D01*
X46527Y67890D01*
X47201Y68170D01*
X47780Y68614D01*
X48224Y69193D01*
X48504Y69867D01*
X48599Y70591D01*
X48504Y71314D01*
X48224Y71988D01*
X47780Y72567D01*
X47201Y73012D01*
X46527Y73291D01*
X45803Y73386D01*
D02*
G37*
G36*
X37929D02*
X37206Y73291D01*
X36531Y73012D01*
X35952Y72567D01*
X35508Y71988D01*
X35229Y71314D01*
X35134Y70591D01*
X35229Y69867D01*
X35508Y69193D01*
X35952Y68614D01*
X36531Y68170D01*
X37206Y67890D01*
X37929Y67795D01*
X38653Y67890D01*
X39327Y68170D01*
X39906Y68614D01*
X40350Y69193D01*
X40630Y69867D01*
X40725Y70591D01*
X40630Y71314D01*
X40350Y71988D01*
X39906Y72567D01*
X39327Y73012D01*
X38653Y73291D01*
X37929Y73386D01*
D02*
G37*
G36*
X22898Y74105D02*
X21853Y73968D01*
X20880Y73565D01*
X20045Y72924D01*
X19404Y72088D01*
X19001Y71115D01*
X18863Y70071D01*
X19001Y69027D01*
X19404Y68054D01*
X20045Y67218D01*
X20880Y66577D01*
X21853Y66174D01*
X22898Y66036D01*
X23942Y66174D01*
X24915Y66577D01*
X25750Y67218D01*
X26392Y68054D01*
X26795Y69027D01*
X26890Y69749D01*
X26982Y69772D01*
X27397Y69767D01*
X27634Y69193D01*
X28078Y68614D01*
X28657Y68170D01*
X29332Y67890D01*
X30055Y67795D01*
X30779Y67890D01*
X31453Y68170D01*
X32032Y68614D01*
X32476Y69193D01*
X32756Y69867D01*
X32851Y70591D01*
X32756Y71314D01*
X32476Y71988D01*
X32032Y72567D01*
X31453Y73012D01*
X30779Y73291D01*
X30055Y73386D01*
X29332Y73291D01*
X28657Y73012D01*
X28078Y72567D01*
X27634Y71988D01*
X27355Y71314D01*
X27314Y71002D01*
X26810Y71002D01*
X26795Y71115D01*
X26392Y72088D01*
X25750Y72924D01*
X24915Y73565D01*
X23942Y73968D01*
X22898Y74105D01*
D02*
G37*
G36*
X210362D02*
X209318Y73968D01*
X208345Y73565D01*
X207509Y72924D01*
X206868Y72088D01*
X206465Y71115D01*
X206328Y70071D01*
X206465Y69027D01*
X206868Y68054D01*
X207509Y67218D01*
X208345Y66577D01*
X209318Y66174D01*
X210362Y66036D01*
X211406Y66174D01*
X212380Y66577D01*
X213215Y67218D01*
X213856Y68054D01*
X214259Y69027D01*
X214397Y70071D01*
X214259Y71115D01*
X213856Y72088D01*
X213215Y72924D01*
X212380Y73565D01*
X211406Y73968D01*
X210362Y74105D01*
D02*
G37*
G36*
X136354Y65512D02*
X135631Y65417D01*
X134957Y65138D01*
X134378Y64693D01*
X133933Y64114D01*
X133654Y63440D01*
X133559Y62717D01*
X133654Y61993D01*
X133933Y61319D01*
X134378Y60740D01*
X134957Y60296D01*
X135631Y60016D01*
X136354Y59921D01*
X137078Y60016D01*
X137752Y60296D01*
X138331Y60740D01*
X138776Y61319D01*
X139055Y61993D01*
X139150Y62717D01*
X139055Y63440D01*
X138776Y64114D01*
X138331Y64693D01*
X137752Y65138D01*
X137078Y65417D01*
X136354Y65512D01*
D02*
G37*
G36*
X128481D02*
X127757Y65417D01*
X127083Y65138D01*
X126504Y64693D01*
X126059Y64114D01*
X125780Y63440D01*
X125685Y62717D01*
X125780Y61993D01*
X126059Y61319D01*
X126504Y60740D01*
X127083Y60296D01*
X127757Y60016D01*
X128481Y59921D01*
X129204Y60016D01*
X129878Y60296D01*
X130457Y60740D01*
X130902Y61319D01*
X131181Y61993D01*
X131276Y62717D01*
X131181Y63440D01*
X130902Y64114D01*
X130457Y64693D01*
X129878Y65138D01*
X129204Y65417D01*
X128481Y65512D01*
D02*
G37*
G36*
X120607D02*
X119883Y65417D01*
X119209Y65138D01*
X118630Y64693D01*
X118185Y64114D01*
X117906Y63440D01*
X117811Y62717D01*
X117906Y61993D01*
X118185Y61319D01*
X118630Y60740D01*
X119209Y60296D01*
X119883Y60016D01*
X120607Y59921D01*
X121330Y60016D01*
X122004Y60296D01*
X122583Y60740D01*
X123028Y61319D01*
X123307Y61993D01*
X123402Y62717D01*
X123307Y63440D01*
X123028Y64114D01*
X122583Y64693D01*
X122004Y65138D01*
X121330Y65417D01*
X120607Y65512D01*
D02*
G37*
G36*
X104859D02*
X104135Y65417D01*
X103461Y65138D01*
X102882Y64693D01*
X102437Y64114D01*
X102158Y63440D01*
X102063Y62717D01*
X102158Y61993D01*
X102437Y61319D01*
X102882Y60740D01*
X103461Y60296D01*
X104135Y60016D01*
X104859Y59921D01*
X105582Y60016D01*
X106256Y60296D01*
X106835Y60740D01*
X107280Y61319D01*
X107559Y61993D01*
X107654Y62717D01*
X107559Y63440D01*
X107280Y64114D01*
X106835Y64693D01*
X106256Y65138D01*
X105582Y65417D01*
X104859Y65512D01*
D02*
G37*
G36*
X73362D02*
X72639Y65417D01*
X71965Y65138D01*
X71386Y64693D01*
X70941Y64114D01*
X70662Y63440D01*
X70567Y62717D01*
X70662Y61993D01*
X70941Y61319D01*
X71386Y60740D01*
X71965Y60296D01*
X72639Y60016D01*
X73362Y59921D01*
X74086Y60016D01*
X74760Y60296D01*
X75339Y60740D01*
X75783Y61319D01*
X76063Y61993D01*
X76158Y62717D01*
X76063Y63440D01*
X75783Y64114D01*
X75339Y64693D01*
X74760Y65138D01*
X74086Y65417D01*
X73362Y65512D01*
D02*
G37*
G36*
X65488D02*
X64765Y65417D01*
X64091Y65138D01*
X63512Y64693D01*
X63067Y64114D01*
X62788Y63440D01*
X62693Y62717D01*
X62788Y61993D01*
X63067Y61319D01*
X63512Y60740D01*
X64091Y60296D01*
X64765Y60016D01*
X65488Y59921D01*
X66212Y60016D01*
X66886Y60296D01*
X67465Y60740D01*
X67909Y61319D01*
X68189Y61993D01*
X68284Y62717D01*
X68189Y63440D01*
X67909Y64114D01*
X67465Y64693D01*
X66886Y65138D01*
X66212Y65417D01*
X65488Y65512D01*
D02*
G37*
G36*
X57614D02*
X56891Y65417D01*
X56217Y65138D01*
X55638Y64693D01*
X55193Y64114D01*
X54914Y63440D01*
X54819Y62717D01*
X54914Y61993D01*
X55193Y61319D01*
X55638Y60740D01*
X56217Y60296D01*
X56891Y60016D01*
X57614Y59921D01*
X58338Y60016D01*
X59012Y60296D01*
X59591Y60740D01*
X60035Y61319D01*
X60315Y61993D01*
X60410Y62717D01*
X60315Y63440D01*
X60035Y64114D01*
X59591Y64693D01*
X59012Y65138D01*
X58338Y65417D01*
X57614Y65512D01*
D02*
G37*
G36*
X49740D02*
X49017Y65417D01*
X48342Y65138D01*
X47764Y64693D01*
X47319Y64114D01*
X47040Y63440D01*
X46945Y62717D01*
X47040Y61993D01*
X47319Y61319D01*
X47764Y60740D01*
X48342Y60296D01*
X49017Y60016D01*
X49740Y59921D01*
X50464Y60016D01*
X51138Y60296D01*
X51717Y60740D01*
X52161Y61319D01*
X52441Y61993D01*
X52536Y62717D01*
X52441Y63440D01*
X52161Y64114D01*
X51717Y64693D01*
X51138Y65138D01*
X50464Y65417D01*
X49740Y65512D01*
D02*
G37*
G36*
X41866D02*
X41143Y65417D01*
X40468Y65138D01*
X39889Y64693D01*
X39445Y64114D01*
X39166Y63440D01*
X39071Y62717D01*
X39166Y61993D01*
X39445Y61319D01*
X39889Y60740D01*
X40468Y60296D01*
X41143Y60016D01*
X41866Y59921D01*
X42590Y60016D01*
X43264Y60296D01*
X43843Y60740D01*
X44287Y61319D01*
X44567Y61993D01*
X44662Y62717D01*
X44567Y63440D01*
X44287Y64114D01*
X43843Y64693D01*
X43264Y65138D01*
X42590Y65417D01*
X41866Y65512D01*
D02*
G37*
G36*
X33992D02*
X33269Y65417D01*
X32594Y65138D01*
X32015Y64693D01*
X31571Y64114D01*
X31292Y63440D01*
X31197Y62717D01*
X31292Y61993D01*
X31571Y61319D01*
X32015Y60740D01*
X32594Y60296D01*
X33269Y60016D01*
X33992Y59921D01*
X34716Y60016D01*
X35390Y60296D01*
X35969Y60740D01*
X36413Y61319D01*
X36693Y61993D01*
X36788Y62717D01*
X36693Y63440D01*
X36413Y64114D01*
X35969Y64693D01*
X35390Y65138D01*
X34716Y65417D01*
X33992Y65512D01*
D02*
G37*
G36*
X210362Y64105D02*
X209318Y63968D01*
X208345Y63565D01*
X207509Y62924D01*
X206868Y62088D01*
X206465Y61115D01*
X206328Y60071D01*
X206465Y59027D01*
X206868Y58054D01*
X207509Y57218D01*
X208345Y56577D01*
X209318Y56174D01*
X210362Y56036D01*
X211406Y56174D01*
X212380Y56577D01*
X213215Y57218D01*
X213856Y58054D01*
X214259Y59027D01*
X214397Y60071D01*
X214259Y61115D01*
X213856Y62088D01*
X213215Y62924D01*
X212380Y63565D01*
X211406Y63968D01*
X210362Y64105D01*
D02*
G37*
G36*
X22898D02*
X21853Y63968D01*
X20880Y63565D01*
X20045Y62924D01*
X19404Y62088D01*
X19001Y61115D01*
X18863Y60071D01*
X19001Y59027D01*
X19404Y58054D01*
X20045Y57218D01*
X20880Y56577D01*
X21853Y56174D01*
X22898Y56036D01*
X23942Y56174D01*
X24915Y56577D01*
X25750Y57218D01*
X26392Y58054D01*
X26795Y59027D01*
X26932Y60071D01*
X26795Y61115D01*
X26392Y62088D01*
X25750Y62924D01*
X24915Y63565D01*
X23942Y63968D01*
X22898Y64105D01*
D02*
G37*
G36*
X145449Y72102D02*
X144160Y71932D01*
X142959Y71434D01*
X141928Y70643D01*
X141136Y69612D01*
X140639Y68411D01*
X140469Y67122D01*
Y59248D01*
X140621Y58099D01*
X140358Y57731D01*
X140234Y57631D01*
X139568Y57543D01*
X138894Y57264D01*
X138315Y56819D01*
X137871Y56240D01*
X137591Y55566D01*
X137496Y54843D01*
X137591Y54119D01*
X137871Y53445D01*
X138315Y52866D01*
X138894Y52422D01*
X139568Y52142D01*
X140292Y52047D01*
X141015Y52142D01*
X141689Y52422D01*
X142268Y52866D01*
X142713Y53445D01*
X142992Y54119D01*
X143025Y54367D01*
X143570Y54682D01*
X144160Y54438D01*
X145449Y54268D01*
X146738Y54438D01*
X147939Y54936D01*
X148970Y55727D01*
X149761Y56758D01*
X150259Y57959D01*
X150428Y59248D01*
Y67122D01*
X150259Y68411D01*
X149761Y69612D01*
X148970Y70643D01*
X147939Y71434D01*
X146738Y71932D01*
X145449Y72102D01*
D02*
G37*
G36*
X191473Y65512D02*
X190749Y65417D01*
X190075Y65138D01*
X189496Y64693D01*
X189052Y64114D01*
X188772Y63440D01*
X188677Y62717D01*
X188772Y61993D01*
X189052Y61319D01*
X189278Y61024D01*
X189032Y60524D01*
X181598D01*
Y52587D01*
X189535D01*
Y54339D01*
X189727Y54433D01*
X190035Y54474D01*
X190611Y53725D01*
X191440Y53089D01*
X192405Y52689D01*
X193441Y52552D01*
X194477Y52689D01*
X195442Y53089D01*
X196271Y53725D01*
X196907Y54554D01*
X197307Y55519D01*
X197444Y56555D01*
X197307Y57591D01*
X196907Y58556D01*
X196271Y59386D01*
X195442Y60022D01*
X194477Y60422D01*
X193894Y60498D01*
X193673Y61032D01*
X193894Y61319D01*
X194173Y61993D01*
X194268Y62717D01*
X194173Y63440D01*
X193894Y64114D01*
X193449Y64693D01*
X192870Y65138D01*
X192196Y65417D01*
X191473Y65512D01*
D02*
G37*
G36*
X100921Y57638D02*
X100198Y57543D01*
X99524Y57264D01*
X98945Y56819D01*
X98500Y56240D01*
X98221Y55566D01*
X98126Y54843D01*
X98221Y54119D01*
X98500Y53445D01*
X98945Y52866D01*
X99524Y52422D01*
X100198Y52142D01*
X100921Y52047D01*
X101645Y52142D01*
X102319Y52422D01*
X102898Y52866D01*
X103342Y53445D01*
X103622Y54119D01*
X103717Y54843D01*
X103622Y55566D01*
X103342Y56240D01*
X102898Y56819D01*
X102319Y57264D01*
X101645Y57543D01*
X100921Y57638D01*
D02*
G37*
G36*
X93047D02*
X92324Y57543D01*
X91650Y57264D01*
X91071Y56819D01*
X90626Y56240D01*
X90347Y55566D01*
X90252Y54843D01*
X90347Y54119D01*
X90626Y53445D01*
X91071Y52866D01*
X91650Y52422D01*
X92324Y52142D01*
X93047Y52047D01*
X93771Y52142D01*
X94445Y52422D01*
X95024Y52866D01*
X95468Y53445D01*
X95748Y54119D01*
X95843Y54843D01*
X95748Y55566D01*
X95468Y56240D01*
X95024Y56819D01*
X94445Y57264D01*
X93771Y57543D01*
X93047Y57638D01*
D02*
G37*
G36*
X85173D02*
X84450Y57543D01*
X83776Y57264D01*
X83197Y56819D01*
X82752Y56240D01*
X82473Y55566D01*
X82378Y54843D01*
X82473Y54119D01*
X82752Y53445D01*
X83197Y52866D01*
X83776Y52422D01*
X84450Y52142D01*
X85173Y52047D01*
X85897Y52142D01*
X86571Y52422D01*
X87150Y52866D01*
X87594Y53445D01*
X87874Y54119D01*
X87969Y54843D01*
X87874Y55566D01*
X87594Y56240D01*
X87150Y56819D01*
X86571Y57264D01*
X85897Y57543D01*
X85173Y57638D01*
D02*
G37*
G36*
X77299D02*
X76576Y57543D01*
X75902Y57264D01*
X75323Y56819D01*
X74878Y56240D01*
X74599Y55566D01*
X74504Y54843D01*
X74599Y54119D01*
X74878Y53445D01*
X75323Y52866D01*
X75902Y52422D01*
X76576Y52142D01*
X77299Y52047D01*
X78023Y52142D01*
X78697Y52422D01*
X79276Y52866D01*
X79720Y53445D01*
X80000Y54119D01*
X80095Y54843D01*
X80000Y55566D01*
X79720Y56240D01*
X79276Y56819D01*
X78697Y57264D01*
X78023Y57543D01*
X77299Y57638D01*
D02*
G37*
G36*
X69425D02*
X68702Y57543D01*
X68028Y57264D01*
X67449Y56819D01*
X67004Y56240D01*
X66725Y55566D01*
X66630Y54843D01*
X66725Y54119D01*
X67004Y53445D01*
X67449Y52866D01*
X68028Y52422D01*
X68702Y52142D01*
X69425Y52047D01*
X70149Y52142D01*
X70823Y52422D01*
X71402Y52866D01*
X71846Y53445D01*
X72126Y54119D01*
X72221Y54843D01*
X72126Y55566D01*
X71846Y56240D01*
X71402Y56819D01*
X70823Y57264D01*
X70149Y57543D01*
X69425Y57638D01*
D02*
G37*
G36*
X61551D02*
X60828Y57543D01*
X60154Y57264D01*
X59575Y56819D01*
X59130Y56240D01*
X58851Y55566D01*
X58756Y54843D01*
X58851Y54119D01*
X59130Y53445D01*
X59575Y52866D01*
X60154Y52422D01*
X60828Y52142D01*
X61551Y52047D01*
X62275Y52142D01*
X62949Y52422D01*
X63528Y52866D01*
X63972Y53445D01*
X64252Y54119D01*
X64347Y54843D01*
X64252Y55566D01*
X63972Y56240D01*
X63528Y56819D01*
X62949Y57264D01*
X62275Y57543D01*
X61551Y57638D01*
D02*
G37*
G36*
X53677D02*
X52954Y57543D01*
X52280Y57264D01*
X51701Y56819D01*
X51256Y56240D01*
X50977Y55566D01*
X50882Y54843D01*
X50977Y54119D01*
X51256Y53445D01*
X51701Y52866D01*
X52280Y52422D01*
X52954Y52142D01*
X53677Y52047D01*
X54401Y52142D01*
X55075Y52422D01*
X55654Y52866D01*
X56098Y53445D01*
X56378Y54119D01*
X56473Y54843D01*
X56378Y55566D01*
X56098Y56240D01*
X55654Y56819D01*
X55075Y57264D01*
X54401Y57543D01*
X53677Y57638D01*
D02*
G37*
G36*
X45803D02*
X45080Y57543D01*
X44405Y57264D01*
X43826Y56819D01*
X43382Y56240D01*
X43103Y55566D01*
X43008Y54843D01*
X43103Y54119D01*
X43382Y53445D01*
X43826Y52866D01*
X44405Y52422D01*
X45080Y52142D01*
X45803Y52047D01*
X46527Y52142D01*
X47201Y52422D01*
X47780Y52866D01*
X48224Y53445D01*
X48504Y54119D01*
X48599Y54843D01*
X48504Y55566D01*
X48224Y56240D01*
X47780Y56819D01*
X47201Y57264D01*
X46527Y57543D01*
X45803Y57638D01*
D02*
G37*
G36*
X37929D02*
X37206Y57543D01*
X36531Y57264D01*
X35952Y56819D01*
X35508Y56240D01*
X35229Y55566D01*
X35134Y54843D01*
X35229Y54119D01*
X35508Y53445D01*
X35952Y52866D01*
X36531Y52422D01*
X37206Y52142D01*
X37929Y52047D01*
X38653Y52142D01*
X39327Y52422D01*
X39906Y52866D01*
X40350Y53445D01*
X40630Y54119D01*
X40725Y54843D01*
X40630Y55566D01*
X40350Y56240D01*
X39906Y56819D01*
X39327Y57264D01*
X38653Y57543D01*
X37929Y57638D01*
D02*
G37*
G36*
X30055D02*
X29332Y57543D01*
X28657Y57264D01*
X28078Y56819D01*
X27634Y56240D01*
X27355Y55566D01*
X27260Y54843D01*
X27355Y54119D01*
X27634Y53445D01*
X28078Y52866D01*
X28657Y52422D01*
X29332Y52142D01*
X30055Y52047D01*
X30779Y52142D01*
X31453Y52422D01*
X32032Y52866D01*
X32476Y53445D01*
X32756Y54119D01*
X32851Y54843D01*
X32756Y55566D01*
X32476Y56240D01*
X32032Y56819D01*
X31453Y57264D01*
X30779Y57543D01*
X30055Y57638D01*
D02*
G37*
G36*
X183599Y49764D02*
X182875Y49669D01*
X182201Y49390D01*
X181622Y48945D01*
X181178Y48366D01*
X180898Y47692D01*
X180803Y46969D01*
X180898Y46245D01*
X181178Y45571D01*
X181622Y44992D01*
X182201Y44548D01*
X182875Y44268D01*
X183599Y44173D01*
X184322Y44268D01*
X184996Y44548D01*
X185575Y44992D01*
X186020Y45571D01*
X186299Y46245D01*
X186394Y46969D01*
X186299Y47692D01*
X186020Y48366D01*
X185575Y48945D01*
X184996Y49390D01*
X184322Y49669D01*
X183599Y49764D01*
D02*
G37*
G36*
X175725D02*
X175001Y49669D01*
X174327Y49390D01*
X173748Y48945D01*
X173304Y48366D01*
X173024Y47692D01*
X172929Y46969D01*
X173024Y46245D01*
X173304Y45571D01*
X173748Y44992D01*
X174327Y44548D01*
X175001Y44268D01*
X175725Y44173D01*
X176448Y44268D01*
X177122Y44548D01*
X177701Y44992D01*
X178146Y45571D01*
X178425Y46245D01*
X178520Y46969D01*
X178425Y47692D01*
X178146Y48366D01*
X177701Y48945D01*
X177122Y49390D01*
X176448Y49669D01*
X175725Y49764D01*
D02*
G37*
G36*
X144229D02*
X143505Y49669D01*
X142831Y49390D01*
X142252Y48945D01*
X141807Y48366D01*
X141528Y47692D01*
X141433Y46969D01*
X141528Y46245D01*
X141807Y45571D01*
X142252Y44992D01*
X142831Y44548D01*
X143505Y44268D01*
X144229Y44173D01*
X144952Y44268D01*
X145626Y44548D01*
X146205Y44992D01*
X146650Y45571D01*
X146929Y46245D01*
X147024Y46969D01*
X146929Y47692D01*
X146650Y48366D01*
X146205Y48945D01*
X145626Y49390D01*
X144952Y49669D01*
X144229Y49764D01*
D02*
G37*
G36*
X116669Y57638D02*
X115946Y57543D01*
X115272Y57264D01*
X114693Y56819D01*
X114249Y56240D01*
X113969Y55566D01*
X113874Y54843D01*
X113969Y54119D01*
X114249Y53445D01*
X114693Y52866D01*
X115272Y52422D01*
X115946Y52142D01*
X116669Y52047D01*
X117281Y52128D01*
X117580Y51923D01*
X117735Y51743D01*
X117635Y50980D01*
X117804Y49692D01*
X118302Y48491D01*
X119093Y47459D01*
X120124Y46668D01*
X121325Y46170D01*
X122614Y46001D01*
X130488D01*
X131777Y46170D01*
X132978Y46668D01*
X133084Y46749D01*
X133617Y46528D01*
X133654Y46245D01*
X133933Y45571D01*
X134378Y44992D01*
X134957Y44548D01*
X135631Y44268D01*
X136354Y44173D01*
X137078Y44268D01*
X137752Y44548D01*
X138331Y44992D01*
X138776Y45571D01*
X139055Y46245D01*
X139150Y46969D01*
X139055Y47692D01*
X138776Y48366D01*
X138331Y48945D01*
X137752Y49390D01*
X137078Y49669D01*
X136354Y49764D01*
X135802Y49692D01*
X135434Y49968D01*
X135351Y50094D01*
X135468Y50980D01*
X135298Y52269D01*
X134801Y53470D01*
X134009Y54501D01*
X132978Y55293D01*
X131777Y55790D01*
X130488Y55960D01*
X122614D01*
X121325Y55790D01*
X120124Y55293D01*
X119930Y55143D01*
X119396Y55364D01*
X119370Y55566D01*
X119090Y56240D01*
X118646Y56819D01*
X118067Y57264D01*
X117393Y57543D01*
X116669Y57638D01*
D02*
G37*
G36*
X104859Y49764D02*
X104135Y49669D01*
X103461Y49390D01*
X102882Y48945D01*
X102437Y48366D01*
X102158Y47692D01*
X102063Y46969D01*
X102158Y46245D01*
X102437Y45571D01*
X102882Y44992D01*
X103461Y44548D01*
X104135Y44268D01*
X104859Y44173D01*
X105582Y44268D01*
X106256Y44548D01*
X106835Y44992D01*
X107280Y45571D01*
X107559Y46245D01*
X107654Y46969D01*
X107559Y47692D01*
X107280Y48366D01*
X106835Y48945D01*
X106256Y49390D01*
X105582Y49669D01*
X104859Y49764D01*
D02*
G37*
G36*
X65587Y51240D02*
X58272D01*
Y43925D01*
X65587D01*
Y51240D01*
D02*
G37*
G36*
X48937Y51244D02*
X47982Y51118D01*
X47093Y50750D01*
X46328Y50164D01*
X45742Y49400D01*
X45374Y48510D01*
X45248Y47555D01*
X45374Y46600D01*
X45742Y45711D01*
X46328Y44947D01*
X47093Y44360D01*
X47982Y43992D01*
X48937Y43866D01*
X49892Y43992D01*
X50782Y44360D01*
X51546Y44947D01*
X52132Y45711D01*
X52500Y46600D01*
X52626Y47555D01*
X52500Y48510D01*
X52132Y49400D01*
X51546Y50164D01*
X50782Y50750D01*
X49892Y51118D01*
X48937Y51244D01*
D02*
G37*
G36*
X163914Y41890D02*
X163190Y41795D01*
X162516Y41516D01*
X161937Y41071D01*
X161493Y40492D01*
X161213Y39818D01*
X161118Y39095D01*
X161213Y38371D01*
X161493Y37697D01*
X161937Y37118D01*
X162516Y36674D01*
X163190Y36394D01*
X163914Y36299D01*
X164637Y36394D01*
X165311Y36674D01*
X165890Y37118D01*
X166335Y37697D01*
X166614Y38371D01*
X166709Y39095D01*
X166614Y39818D01*
X166335Y40492D01*
X165890Y41071D01*
X165311Y41516D01*
X164637Y41795D01*
X163914Y41890D01*
D02*
G37*
G36*
X156040D02*
X155316Y41795D01*
X154642Y41516D01*
X154063Y41071D01*
X153619Y40492D01*
X153339Y39818D01*
X153244Y39095D01*
X153339Y38371D01*
X153619Y37697D01*
X154063Y37118D01*
X154642Y36674D01*
X155316Y36394D01*
X156040Y36299D01*
X156763Y36394D01*
X157437Y36674D01*
X158016Y37118D01*
X158461Y37697D01*
X158740Y38371D01*
X158835Y39095D01*
X158740Y39818D01*
X158461Y40492D01*
X158016Y41071D01*
X157437Y41516D01*
X156763Y41795D01*
X156040Y41890D01*
D02*
G37*
G36*
X148166D02*
X147442Y41795D01*
X146768Y41516D01*
X146189Y41071D01*
X145745Y40492D01*
X145465Y39818D01*
X145370Y39095D01*
X145465Y38371D01*
X145745Y37697D01*
X146189Y37118D01*
X146768Y36674D01*
X147442Y36394D01*
X148166Y36299D01*
X148889Y36394D01*
X149563Y36674D01*
X150142Y37118D01*
X150587Y37697D01*
X150866Y38371D01*
X150961Y39095D01*
X150866Y39818D01*
X150587Y40492D01*
X150142Y41071D01*
X149563Y41516D01*
X148889Y41795D01*
X148166Y41890D01*
D02*
G37*
G36*
X140292D02*
X139568Y41795D01*
X138894Y41516D01*
X138315Y41071D01*
X137871Y40492D01*
X137591Y39818D01*
X137496Y39095D01*
X137591Y38371D01*
X137871Y37697D01*
X138315Y37118D01*
X138894Y36674D01*
X139568Y36394D01*
X140292Y36299D01*
X141015Y36394D01*
X141689Y36674D01*
X142268Y37118D01*
X142713Y37697D01*
X142992Y38371D01*
X143087Y39095D01*
X142992Y39818D01*
X142713Y40492D01*
X142268Y41071D01*
X141689Y41516D01*
X141015Y41795D01*
X140292Y41890D01*
D02*
G37*
G36*
X132418D02*
X131694Y41795D01*
X131020Y41516D01*
X130441Y41071D01*
X129997Y40492D01*
X129717Y39818D01*
X129622Y39095D01*
X129717Y38371D01*
X129997Y37697D01*
X130441Y37118D01*
X131020Y36674D01*
X131694Y36394D01*
X132418Y36299D01*
X133141Y36394D01*
X133815Y36674D01*
X134394Y37118D01*
X134839Y37697D01*
X135118Y38371D01*
X135213Y39095D01*
X135118Y39818D01*
X134839Y40492D01*
X134394Y41071D01*
X133815Y41516D01*
X133141Y41795D01*
X132418Y41890D01*
D02*
G37*
G36*
X124543D02*
X123820Y41795D01*
X123146Y41516D01*
X122567Y41071D01*
X122123Y40492D01*
X121843Y39818D01*
X121748Y39095D01*
X121843Y38371D01*
X122123Y37697D01*
X122567Y37118D01*
X123146Y36674D01*
X123820Y36394D01*
X124543Y36299D01*
X125267Y36394D01*
X125941Y36674D01*
X126520Y37118D01*
X126965Y37697D01*
X127244Y38371D01*
X127339Y39095D01*
X127244Y39818D01*
X126965Y40492D01*
X126520Y41071D01*
X125941Y41516D01*
X125267Y41795D01*
X124543Y41890D01*
D02*
G37*
G36*
X116669D02*
X115946Y41795D01*
X115272Y41516D01*
X114693Y41071D01*
X114249Y40492D01*
X113969Y39818D01*
X113874Y39095D01*
X113969Y38371D01*
X114249Y37697D01*
X114693Y37118D01*
X115272Y36674D01*
X115946Y36394D01*
X116669Y36299D01*
X117393Y36394D01*
X118067Y36674D01*
X118646Y37118D01*
X119090Y37697D01*
X119370Y38371D01*
X119465Y39095D01*
X119370Y39818D01*
X119090Y40492D01*
X118646Y41071D01*
X118067Y41516D01*
X117393Y41795D01*
X116669Y41890D01*
D02*
G37*
G36*
X69425D02*
X68702Y41795D01*
X68028Y41516D01*
X67449Y41071D01*
X67004Y40492D01*
X66725Y39818D01*
X66630Y39095D01*
X66725Y38371D01*
X67004Y37697D01*
X67449Y37118D01*
X68028Y36674D01*
X68702Y36394D01*
X69425Y36299D01*
X70149Y36394D01*
X70823Y36674D01*
X71402Y37118D01*
X71846Y37697D01*
X72126Y38371D01*
X72221Y39095D01*
X72126Y39818D01*
X71846Y40492D01*
X71402Y41071D01*
X70823Y41516D01*
X70149Y41795D01*
X69425Y41890D01*
D02*
G37*
G36*
X159977Y34016D02*
X159253Y33921D01*
X158579Y33642D01*
X158000Y33197D01*
X157556Y32618D01*
X157276Y31944D01*
X157181Y31221D01*
X157276Y30497D01*
X157556Y29823D01*
X158000Y29244D01*
X158579Y28800D01*
X159253Y28520D01*
X159977Y28425D01*
X160700Y28520D01*
X161374Y28800D01*
X161953Y29244D01*
X162398Y29823D01*
X162677Y30497D01*
X162772Y31221D01*
X162677Y31944D01*
X162398Y32618D01*
X161953Y33197D01*
X161374Y33642D01*
X160700Y33921D01*
X159977Y34016D01*
D02*
G37*
G36*
X152103D02*
X151379Y33921D01*
X150705Y33642D01*
X150126Y33197D01*
X149682Y32618D01*
X149402Y31944D01*
X149307Y31221D01*
X149402Y30497D01*
X149682Y29823D01*
X150126Y29244D01*
X150705Y28800D01*
X151379Y28520D01*
X152103Y28425D01*
X152826Y28520D01*
X153500Y28800D01*
X154079Y29244D01*
X154524Y29823D01*
X154803Y30497D01*
X154898Y31221D01*
X154803Y31944D01*
X154524Y32618D01*
X154079Y33197D01*
X153500Y33642D01*
X152826Y33921D01*
X152103Y34016D01*
D02*
G37*
G36*
X144229D02*
X143505Y33921D01*
X142831Y33642D01*
X142252Y33197D01*
X141807Y32618D01*
X141528Y31944D01*
X141433Y31221D01*
X141528Y30497D01*
X141807Y29823D01*
X142252Y29244D01*
X142831Y28800D01*
X143505Y28520D01*
X144229Y28425D01*
X144952Y28520D01*
X145626Y28800D01*
X146205Y29244D01*
X146650Y29823D01*
X146929Y30497D01*
X147024Y31221D01*
X146929Y31944D01*
X146650Y32618D01*
X146205Y33197D01*
X145626Y33642D01*
X144952Y33921D01*
X144229Y34016D01*
D02*
G37*
G36*
X136354D02*
X135631Y33921D01*
X134957Y33642D01*
X134378Y33197D01*
X133933Y32618D01*
X133654Y31944D01*
X133559Y31221D01*
X133654Y30497D01*
X133933Y29823D01*
X134378Y29244D01*
X134957Y28800D01*
X135631Y28520D01*
X136354Y28425D01*
X137078Y28520D01*
X137752Y28800D01*
X138331Y29244D01*
X138776Y29823D01*
X139055Y30497D01*
X139150Y31221D01*
X139055Y31944D01*
X138776Y32618D01*
X138331Y33197D01*
X137752Y33642D01*
X137078Y33921D01*
X136354Y34016D01*
D02*
G37*
G36*
X128481D02*
X127757Y33921D01*
X127083Y33642D01*
X126504Y33197D01*
X126059Y32618D01*
X125780Y31944D01*
X125685Y31221D01*
X125780Y30497D01*
X126059Y29823D01*
X126504Y29244D01*
X127083Y28800D01*
X127757Y28520D01*
X128481Y28425D01*
X129204Y28520D01*
X129878Y28800D01*
X130457Y29244D01*
X130902Y29823D01*
X131181Y30497D01*
X131276Y31221D01*
X131181Y31944D01*
X130902Y32618D01*
X130457Y33197D01*
X129878Y33642D01*
X129204Y33921D01*
X128481Y34016D01*
D02*
G37*
G36*
X120607D02*
X119883Y33921D01*
X119209Y33642D01*
X118630Y33197D01*
X118185Y32618D01*
X117906Y31944D01*
X117811Y31221D01*
X117906Y30497D01*
X118185Y29823D01*
X118630Y29244D01*
X119209Y28800D01*
X119883Y28520D01*
X120607Y28425D01*
X121330Y28520D01*
X122004Y28800D01*
X122583Y29244D01*
X123028Y29823D01*
X123307Y30497D01*
X123402Y31221D01*
X123307Y31944D01*
X123028Y32618D01*
X122583Y33197D01*
X122004Y33642D01*
X121330Y33921D01*
X120607Y34016D01*
D02*
G37*
G36*
X112733D02*
X112009Y33921D01*
X111335Y33642D01*
X110756Y33197D01*
X110311Y32618D01*
X110032Y31944D01*
X109937Y31221D01*
X110032Y30497D01*
X110311Y29823D01*
X110756Y29244D01*
X111335Y28800D01*
X112009Y28520D01*
X112733Y28425D01*
X113456Y28520D01*
X114130Y28800D01*
X114709Y29244D01*
X115154Y29823D01*
X115433Y30497D01*
X115528Y31221D01*
X115433Y31944D01*
X115154Y32618D01*
X114709Y33197D01*
X114130Y33642D01*
X113456Y33921D01*
X112733Y34016D01*
D02*
G37*
G36*
X104859D02*
X104135Y33921D01*
X103461Y33642D01*
X102882Y33197D01*
X102437Y32618D01*
X102158Y31944D01*
X102063Y31221D01*
X102158Y30497D01*
X102437Y29823D01*
X102882Y29244D01*
X103461Y28800D01*
X104135Y28520D01*
X104859Y28425D01*
X105582Y28520D01*
X106256Y28800D01*
X106835Y29244D01*
X107280Y29823D01*
X107559Y30497D01*
X107654Y31221D01*
X107559Y31944D01*
X107280Y32618D01*
X106835Y33197D01*
X106256Y33642D01*
X105582Y33921D01*
X104859Y34016D01*
D02*
G37*
%LPD*%
D106*
X22898Y250071D02*
D03*
D114*
X29335Y204976D02*
D03*
X166559Y173110D02*
D03*
X126957Y155728D02*
D03*
X185658Y107252D02*
D03*
X172701Y99138D02*
D03*
X172555Y107524D02*
D03*
M02*
